<svg width="1280" height="860" viewBox="0 0 1280 860" fill="none" xmlns="http://www.w3.org/2000/svg">
<g opacity="0.8" clip-path="url(#clip0_17_877)">
<path d="M724.787 600.084C719.82 600.084 715.483 599.635 711.887 598.737C692.446 593.797 681.681 584.747 681.546 573.317C681.299 553.534 712.493 532.448 762.926 518.301C782.816 512.71 795.064 502.829 796.525 491.175C797.716 481.587 791.311 471.774 779.377 464.925C747.553 446.646 684.828 451.519 616.461 503.615C552.094 552.658 483.705 571.947 427.879 571.947C398.82 571.947 373.199 566.738 353.287 557.756C326.879 545.854 311.507 527.867 310.001 507.074C305.057 438.899 422.71 337.714 425.317 335.469C427.092 333.538 492.313 264.015 579.85 250.273C631.047 242.234 671.343 249.621 693.323 271.089C706.92 284.382 712.628 302.369 709.842 323.096C707.437 340.903 710.673 352.692 719.461 358.126C738.294 369.781 783.355 352.243 849.812 307.377C908.896 267.473 973.106 259.502 1009.56 287.549C1038.66 309.937 1044.89 350.334 1027.09 401.263C1001.2 475.344 918.943 527.688 872.218 552.299C817.853 580.93 757.599 600.084 724.809 600.084H724.787ZM737.8 453.764C754.79 453.764 769.219 457.357 780.096 463.6C792.569 470.763 799.244 481.137 797.986 491.332C796.457 503.615 783.827 513.967 763.308 519.716C703.841 536.4 682.85 558.317 683.03 573.272C683.164 583.984 693.548 592.494 712.246 597.277C761.105 609.74 980.949 528.563 1025.63 400.747C1043.2 350.469 1037.13 310.7 1008.59 288.716C972.656 261.074 909.166 269.068 850.621 308.612C782.703 354.489 738.294 371.577 718.651 359.406C709.325 353.635 705.864 341.352 708.336 322.894C711.078 302.639 705.504 285.101 692.267 272.144C670.646 251.014 630.799 243.761 580.097 251.732C492.29 265.542 427.047 335.783 426.396 336.502L426.328 336.569C425.137 337.58 306.562 439.123 311.484 506.939C312.945 527.149 328.003 544.709 353.893 556.363C411.675 582.389 518.181 576.596 615.539 502.403C661.207 467.619 704.448 453.764 737.8 453.764Z" fill="#2D3185"/>
<path d="M718.606 604.418C714.516 604.418 710.808 604.149 707.482 603.587C684.693 599.725 671.118 590.383 670.264 577.966C668.916 558.497 697.818 536.962 745.71 521.759C765.87 515.36 778.163 504.716 779.467 492.522C780.501 482.754 774.41 473.345 762.724 466.676C734.428 450.531 675.209 451.092 601.425 505.861C502.876 578.999 398.303 582.793 342.836 555.375C316.856 542.531 302.405 523.511 302.113 501.797C301.191 432.005 415.585 333.874 418.125 331.696C419.945 329.743 488.447 257.189 581.828 243.648C636.688 235.699 678.422 243.289 699.279 265.071C711.572 277.893 716.067 295.116 712.314 314.922C709.1 331.898 711.999 343.912 720.697 349.683C739.98 362.483 786.434 345.776 851.52 302.684C909.593 264.24 972.274 257.481 1007.49 285.865C1036.24 309.016 1041.16 351.929 1021.02 403.576C991.647 478.892 912.043 530.944 867.207 555.286C812.369 585.039 752.902 604.418 718.584 604.418H718.606ZM722.742 455.965C739.642 455.965 753.464 459.625 763.488 465.351C775.691 472.312 782.074 482.283 780.973 492.657C779.602 505.479 766.926 516.595 746.182 523.174C689.749 541.071 670.736 563.145 671.77 577.853C672.579 589.53 685.704 598.355 707.751 602.105C734.271 606.596 797.312 591.529 866.51 553.961C911.166 529.731 990.433 477.904 1019.65 403.037C1039.54 352.041 1034.78 309.757 1006.59 287.032C971.869 259.053 909.908 265.857 852.396 303.919C785.827 347.999 740.002 364.257 719.91 350.918C710.673 344.788 707.549 332.235 710.898 314.63C714.561 295.318 710.179 278.544 698.245 266.104C677.726 244.704 636.485 237.248 582.098 245.13C488.447 258.716 419.923 332.011 419.249 332.752L419.181 332.819C418.013 333.807 302.742 432.252 303.663 501.774C303.933 522.882 318.092 541.453 343.533 554.028C398.595 581.244 502.516 577.404 600.549 504.648C648.959 468.742 691.233 455.987 722.742 455.987V455.965Z" fill="url(#paint0_radial_17_877)"/>
<path d="M711.055 608.819C708.201 608.819 705.549 608.685 703.077 608.438C676.445 605.721 660.218 596.312 658.578 582.614C656.263 563.347 683.075 541.363 728.54 525.218C748.992 517.964 761.353 506.49 762.454 493.757C763.308 484.012 757.375 474.783 746.16 468.428C719.033 453.068 660.937 454.213 586.413 508.062C524.653 552.703 461.725 570.263 410.304 570.286C379.289 570.286 352.455 563.886 332.565 553.197C306.877 539.365 293.28 519.244 294.269 496.519C297.393 425.089 408.483 330.057 410.978 327.924C412.843 325.925 484.626 250.34 583.85 237.024C642.351 229.164 685.389 236.934 705.077 258.895C716.157 271.268 719.55 287.796 714.853 306.726C710.808 323.073 713.258 334.997 721.955 341.195C741.553 355.14 789.423 339.398 853.295 297.991C910.312 261.006 971.51 255.415 1005.56 284.091C1034.39 308.365 1037.83 352.759 1015 405.912C961.419 530.629 781.917 608.819 711.033 608.819H711.055ZM708.471 458.435C724.517 458.435 737.53 461.826 746.902 467.125C758.656 473.772 764.859 483.54 763.96 493.892C762.791 507.231 750.07 519.177 729.057 526.632C675.546 545.63 658.33 567.928 660.083 582.434C661.634 595.369 677.366 604.306 703.234 606.956C767.218 613.49 958.183 534.469 1013.65 405.328C1036.19 352.827 1032.91 309.061 1004.61 285.236C971.083 256.987 910.604 262.623 854.149 299.248C789.738 341.015 741.261 356.757 721.124 342.43C711.864 335.85 709.212 323.388 713.415 306.366C717.977 287.953 714.718 271.875 703.976 259.906C684.625 238.349 642.036 230.759 584.053 238.528C484.559 251.867 412.754 328.216 412.057 328.979L411.989 329.046C410.866 329.99 298.876 425.358 295.775 496.587C294.808 518.706 308.136 538.354 333.284 551.895C385.717 580.121 487.031 578.078 585.536 506.871C635.025 471.1 677.434 458.457 708.471 458.457V458.435Z" fill="url(#paint1_radial_17_877)"/>
<path d="M703.279 613.4C701.706 613.4 700.155 613.355 698.649 613.288C668.466 611.873 648.959 602.15 646.486 587.284C643.318 568.152 668.152 545.697 711.347 528.676C732.114 520.479 744.564 508.174 745.463 494.902C746.115 485.247 740.362 476.264 729.619 470.224C703.639 455.605 646.599 457.334 571.377 510.307C525.799 542.396 476.558 562.404 428.958 568.152C387.56 573.16 349.713 567.164 322.384 551.266C297.213 536.625 284.111 514.753 286.403 491.242C293.55 418.172 401.359 326.217 403.809 324.151C405.719 322.13 480.783 243.491 585.851 230.422C665.365 220.519 697.638 237.024 710.696 252.608C720.697 264.532 723.011 280.43 717.393 298.552C712.516 314.271 714.516 326.082 723.214 332.706C743.059 347.864 792.367 333.156 855.093 293.32C911.054 257.773 970.791 253.326 1003.72 282.249C1032.66 307.669 1034.6 353.613 1009 408.269C981.938 466.092 928.045 520.434 857.273 561.303C802.57 592.898 741.598 613.423 703.257 613.423L703.279 613.4ZM694.199 460.882C709.392 460.882 721.618 464.004 730.361 468.921C741.62 475.254 747.666 484.753 746.947 495.015C746.003 508.892 733.215 521.669 711.887 530.09C661.117 550.121 645.565 572.643 647.97 587.06C650.307 601.162 669.275 610.413 698.717 611.806C736.406 613.557 799.806 592.741 856.531 560.001C927.033 519.289 980.702 465.171 1007.65 407.618C1032.93 353.59 1031.13 308.297 1002.73 283.349C970.319 254.876 911.324 259.389 855.902 294.577C792.614 334.75 742.676 349.458 722.292 333.897C713.213 326.958 710.965 314.248 715.954 298.125C721.416 280.52 719.191 265.115 709.549 253.596C696.716 238.304 664.893 222.113 586.053 231.949C480.693 245.063 405.652 324.465 404.888 325.251L404.82 325.319C403.719 326.239 295.033 418.509 287.909 491.444C285.661 514.349 298.517 535.704 323.149 550.031C350.185 565.75 387.695 571.678 428.778 566.715C476.131 560.989 525.148 541.093 570.523 509.139C621.135 473.502 663.657 460.95 694.177 460.95L694.199 460.882Z" fill="url(#paint2_radial_17_877)"/>
<path d="M694.334 618.138H694.199C659.926 618.093 637.429 608.325 634.036 592C630.08 572.935 653.094 550.008 694.132 532.156C715.28 522.949 727.776 509.768 728.473 495.958C728.945 486.459 723.349 477.747 713.145 472.043C688.266 458.165 632.283 460.456 556.364 512.53C496.92 553.309 439.318 569.634 391.965 569.634C359.782 569.634 332.34 562.089 312.293 549.582C287.167 533.885 274.896 510.711 278.582 485.965C289.729 411.278 394.28 322.4 396.684 320.379C398.64 318.313 476.985 236.664 587.896 223.797C654.375 216.095 698.717 223.82 716.179 246.163C725.191 257.683 726.495 272.975 719.932 290.333C714.336 305.154 715.932 317.145 724.405 324.106C740.092 336.973 783.13 334.391 856.868 288.582C911.796 254.472 970.072 251.103 1001.92 280.228C1031.02 306.838 1031.4 354.354 1003 410.56C973.195 469.505 919.684 524.095 852.329 564.268C796.615 597.502 736.091 618.138 694.357 618.138H694.334ZM679.906 463.33C694.244 463.33 705.706 466.182 713.864 470.74C724.585 476.736 730.473 485.943 729.956 496.048C729.237 510.442 716.404 524.117 694.716 533.548C654.375 551.109 631.698 573.384 635.496 591.708C638.733 607.292 660.668 616.611 694.177 616.656H694.312C735.799 616.656 796.008 596.109 851.52 563.01C918.65 522.972 971.937 468.607 1001.63 409.909C1029.72 354.331 1029.45 307.489 1000.88 281.351C969.555 252.698 911.975 256.133 857.655 289.884C783.243 336.12 739.53 338.478 723.438 325.296C714.426 317.908 712.673 305.311 718.517 289.839C724.877 272.975 723.641 258.199 714.966 247.106C703.032 231.837 671.321 215.646 588.031 225.302C476.828 238.191 398.482 320.626 397.718 321.456L397.651 321.524C396.595 322.422 291.19 411.593 280.043 486.212C276.447 510.329 288.471 532.987 313.058 548.324C338.925 564.47 375.221 571.004 415.293 566.693C461.455 561.73 509.955 542.576 555.51 511.318C607.246 475.815 649.902 463.33 679.906 463.33Z" fill="url(#paint3_radial_17_877)"/>
<path d="M682.423 623.124C648.082 623.124 625.45 613.468 621.315 596.738C616.618 577.674 637.924 554.253 676.939 535.637C698.155 525.509 711.078 511.026 711.505 496.924C711.797 487.492 706.538 479.319 696.694 473.884C671.77 460.097 617.854 463.6 541.329 514.776C441.588 581.469 349.331 579.582 302.157 548.122C276.986 531.348 265.524 506.759 270.716 480.688C285.886 404.362 387.133 318.582 389.493 316.584C391.493 314.495 473.097 229.793 589.874 217.151C659.791 209.583 705.302 217.353 721.483 239.606C729.596 250.744 729.934 265.453 722.45 282.137C716.112 296.284 717.213 308.118 725.574 315.506C740.811 328.934 784.816 328.732 858.644 283.888C912.515 251.171 969.397 248.88 1000.19 278.162C1029.47 306.007 1028.3 355.117 996.973 412.895C922.021 551.131 769.353 619.98 689.772 622.989C687.277 623.079 684.805 623.124 682.423 623.124ZM665.073 465.486C678.625 465.486 689.48 468.158 697.436 472.582C707.774 478.308 713.303 486.953 713.01 496.969C712.583 511.654 699.324 526.61 677.591 536.984C639.25 555.285 618.236 578.055 622.776 596.379C626.934 613.266 652.599 622.876 689.727 621.484C768.971 618.498 920.988 549.896 995.67 412.177C1026.66 355.027 1027.94 306.591 999.176 279.24C968.88 250.43 912.717 252.81 859.453 285.168C784.928 330.439 740.227 330.394 724.607 316.629C715.707 308.792 714.471 296.329 721.101 281.531C728.36 265.363 728.068 251.171 720.292 240.504C709.235 225.302 677.681 209.179 590.053 218.678C472.985 231.343 391.38 316.808 390.571 317.684L390.504 317.751C389.47 318.605 287.369 404.699 272.199 481.025C267.143 506.467 278.38 530.472 303.012 546.91C349.758 578.1 441.341 579.874 540.498 513.563C593.335 478.241 635.564 465.508 665.073 465.508V465.486Z" fill="url(#paint4_radial_17_877)"/>
<path d="M671.186 628.333C636.733 628.333 613.134 618.475 608.303 601.499C602.796 582.075 622.034 558.766 659.746 539.095C681.389 527.8 694.424 512.373 694.559 497.777C694.649 488.637 689.592 480.801 680.333 475.726C656.51 462.679 603.538 466.654 526.316 516.999C426.822 581.828 336.97 578.729 292.044 546.887C266.738 528.967 256.13 502.919 262.895 475.434C282.065 397.491 380.031 314.787 382.368 312.833C384.391 310.7 469.299 222.967 591.919 210.549C665.185 203.138 711.819 210.886 726.742 232.959C734.046 243.738 733.439 257.93 725.012 273.963C718.045 287.212 718.674 299.203 726.742 306.86C743.418 322.669 791.221 320.266 860.464 279.195C913.279 247.87 968.79 246.59 998.591 276.006C1028.08 305.109 1025.31 355.858 990.995 415.23C954.946 477.612 903.57 531.236 842.417 570.263C790.434 603.452 733.192 624.426 685.367 627.839C680.468 628.176 675.748 628.355 671.208 628.355L671.186 628.333ZM650.779 467.911C663.522 467.911 673.658 470.359 681.074 474.423C690.851 479.79 696.2 488.099 696.087 497.799C695.93 512.934 682.603 528.878 660.465 540.42C623.967 559.44 604.549 582.681 609.763 601.095C615 619.598 643.902 629.254 685.232 626.335C779.557 619.643 914.403 544.709 989.669 414.467C1023.61 355.723 1026.46 305.648 997.513 277.062C968.206 248.139 913.436 249.509 861.206 280.475C791.311 321.928 742.766 324.151 725.686 307.938C717.078 299.787 716.337 287.144 723.641 273.244C731.911 257.503 732.518 244.232 725.461 233.79C715.28 218.745 683.884 202.734 592.031 212.031C469.097 224.471 384.234 312.991 383.402 313.889L383.335 313.956C382.346 314.787 283.526 397.783 264.333 475.793C257.726 502.65 268.131 528.114 292.898 545.674C337.42 577.224 426.598 580.211 525.485 515.764C579.49 480.576 621.832 467.934 650.756 467.934L650.779 467.911Z" fill="url(#paint5_radial_17_877)"/>
<path d="M659.701 633.767C624.709 633.767 600.639 623.842 595.065 606.304C588.862 586.79 606.617 562.965 642.576 542.576C664.691 530.045 677.816 513.586 677.658 498.585C677.568 489.805 672.736 482.35 664.016 477.612C641.295 465.284 589.222 469.73 511.303 519.244C465.388 548.414 418.44 565.458 375.514 568.512C338.139 571.184 304.854 563.145 281.841 545.877C256.355 526.767 246.579 499.169 255.029 470.157C278.222 390.574 372.929 310.925 375.177 309.039C377.289 306.838 465.433 216.095 593.874 203.924C670.444 196.671 718.135 204.373 731.821 226.2C738.361 236.664 736.878 250.34 727.484 265.744C719.843 278.297 719.955 290.109 727.821 298.148C744.115 314.787 793.109 314.473 862.195 274.48C913.976 244.501 968.139 244.21 996.973 273.738C1010.64 287.706 1017.27 307.377 1016.17 330.573C1014.93 356.464 1004.43 385.724 984.927 417.543C896.019 562.651 769.556 623.82 680.872 632.667C673.456 633.408 666.354 633.767 659.679 633.767H659.701ZM636.485 470.336C648.442 470.336 657.903 472.559 664.758 476.287C673.973 481.295 679.097 489.199 679.187 498.563C679.321 514.124 665.927 531.056 643.34 543.878C608.033 563.886 590.525 587.06 596.504 605.855C602.931 626.02 635.227 635.721 680.76 631.185C769.106 622.36 895.075 561.416 983.691 416.757C1020.66 356.42 1025.13 304.682 995.94 274.794C967.599 245.781 914.155 246.163 862.981 275.804C792.817 316.404 744.025 316.831 726.787 299.225C718.404 290.67 718.202 278.185 726.225 264.981C735.44 249.868 736.901 237.091 730.585 227.009C721.258 212.143 690.019 196.334 594.054 205.429C465.254 217.645 377.132 309.196 376.255 310.116L376.188 310.184C375.222 310.992 279.706 390.889 256.49 470.583C248.219 498.945 257.793 525.959 282.762 544.686C305.484 561.73 338.386 569.657 375.424 567.007C418.102 563.953 464.804 546.999 510.517 517.964C565.714 482.889 608.145 470.336 636.485 470.336Z" fill="url(#paint6_radial_17_877)"/>
<path d="M648.307 639.359C612.64 639.359 587.963 629.276 581.581 611.132C574.659 591.461 591.042 567.12 625.361 546.034C647.97 532.156 661.185 514.686 660.735 499.304C660.488 490.793 655.993 483.944 647.723 479.498C626.057 467.844 574.883 472.762 496.246 521.445C440.217 556.139 390.931 569.073 351.354 569.073C316.519 569.073 289.235 559.058 271.525 545.046C246.174 524.993 237.049 495.015 247.163 464.857C274.357 383.658 365.782 307.085 368.007 305.244C370.165 303.021 461.59 209.224 595.874 197.278C675.636 190.182 724.382 197.794 736.856 219.329C742.744 229.479 740.362 242.683 729.978 257.526C721.685 269.382 721.281 281.014 728.922 289.39C745.823 307.961 797.626 307.197 863.97 269.742C914.717 241.111 967.554 241.762 995.49 271.358C1025 302.639 1018.8 358.126 978.926 419.812C874.353 581.513 756.723 627.435 676.445 637.45C666.489 638.685 657.072 639.291 648.307 639.314V639.359ZM621.338 472.694C635.834 472.694 644.419 476.04 648.442 478.196C657.094 482.844 661.994 490.322 662.241 499.281C662.713 515.202 649.206 533.167 626.147 547.336C592.458 568.04 576.322 591.708 582.996 610.661C590.683 632.532 626.439 642.256 676.242 636.035C756.206 626.043 873.41 580.278 977.645 419.07C1017.13 358.014 1023.38 303.223 994.389 272.459C966.948 243.356 914.83 242.817 864.712 271.111C794.57 310.7 744.587 308.881 727.821 290.445C719.685 281.486 720.022 269.203 728.765 256.717C738.923 242.189 741.216 229.861 735.575 220.137C727.102 205.496 695.997 189.912 596.009 198.827C461.343 210.818 369.962 305.423 369.064 306.366L368.996 306.434C368.075 307.197 275.84 384.017 248.579 465.396C238.69 494.925 247.612 524.297 272.446 543.923C309.889 573.519 390.751 585.061 495.459 520.21C557.488 481.789 597.425 472.694 621.315 472.694H621.338Z" fill="url(#paint7_radial_17_877)"/>
<path d="M637.025 645.085C600.549 645.085 575.153 634.8 567.939 616.005C560.32 596.155 575.355 571.296 608.19 549.514C637.407 530.135 650.757 505.502 640.688 489.626C626.934 467.979 571.197 469.393 481.255 523.713C376.503 586.993 297.213 574.44 261.142 544.484C235.499 523.197 227.341 491.467 239.342 459.648C270.536 376.809 358.68 303.312 360.86 301.516C363.063 299.226 457.77 202.442 597.897 190.698C680.76 183.759 730.563 191.282 741.89 212.458C747.149 222.316 743.913 235.07 732.518 249.374C723.596 260.557 722.697 271.965 730.046 280.677C743.733 296.89 791.153 306.119 865.746 265.093C915.459 237.765 967.037 239.337 994.074 269C1023.83 301.651 1015.9 358.912 972.881 422.169C925.572 491.759 878.017 543.137 827.449 579.223C779.669 613.333 728.81 633.97 671.95 642.345C659.454 644.187 647.722 645.085 636.98 645.085H637.025ZM607.493 474.805C624.776 474.805 636.373 480.015 641.947 488.817C652.487 505.434 638.935 530.899 608.999 550.772C576.794 572.15 561.961 596.334 569.332 615.489C576.434 633.992 607.089 650.385 671.77 640.886C787.558 623.842 880.039 556.139 971.667 421.361C1014.26 358.71 1022.23 302.145 992.973 270.033C966.408 240.886 915.571 239.427 866.465 266.418C799.019 303.515 746.205 302.145 728.877 281.643C721.034 272.346 721.91 260.243 731.304 248.454C742.317 234.666 745.486 222.45 740.519 213.176C732.833 198.805 701.863 183.512 597.987 192.203C457.455 203.969 362.816 301.606 361.872 302.594L361.804 302.661C360.905 303.402 271.975 377.124 240.69 460.187C228.936 491.4 236.915 522.478 262.063 543.339C297.753 572.98 376.368 585.286 480.424 522.433C536.789 488.391 579.535 474.805 607.426 474.805H607.493Z" fill="url(#paint8_radial_17_877)"/>
<path d="M625.585 650.991C582.862 650.991 560.724 636.799 554.117 620.923C545.779 600.848 559.556 575.45 590.997 552.995C620.461 531.932 633.968 506.377 623.877 490.883C610.348 470.089 556.342 472.874 466.242 525.936C420.642 552.793 375.581 567.816 335.891 569.41C301.259 570.78 270.986 561.797 250.624 544.08C224.666 521.49 217.519 487.964 231.498 454.393C266.693 369.938 351.556 299.517 353.714 297.743C355.961 295.408 453.949 195.593 599.92 184.074C685.839 177.315 736.631 184.702 746.857 205.451C751.576 215.04 747.486 227.39 735.035 241.156C725.529 251.665 724.135 262.848 731.17 271.852C739.148 282.047 756.88 287.796 778.68 287.279C797.109 286.83 827.495 281.8 867.544 260.377C916.246 234.307 966.566 236.777 992.771 266.508C1022.77 300.55 1013.11 359.608 966.903 424.482C865.139 567.389 784.007 627.749 667.545 647.173C651.79 649.801 637.834 650.968 625.585 650.968V650.991ZM592.615 477.185C609.471 477.185 620.079 482.327 625.113 490.075C635.676 506.288 621.989 532.673 591.851 554.23C561.039 576.259 547.442 600.982 555.488 620.361C563.758 640.257 597.447 657.368 667.275 645.714C783.288 626.357 864.15 566.176 965.667 423.629C1011.45 359.361 1021.13 300.999 991.647 267.518C965.914 238.326 916.335 235.991 868.24 261.725C800.975 297.721 746.812 294.285 729.978 272.795C722.45 263.162 723.865 251.283 733.911 240.168C745.913 226.874 749.936 215.107 745.508 206.125C738.586 192.068 707.729 177.09 600.032 185.578C453.657 197.12 355.736 297.788 354.77 298.821L354.702 298.889C353.848 299.585 268.221 370.23 232.892 454.977C219.16 487.919 226.149 520.816 251.613 542.957C271.682 560.428 301.596 569.275 335.846 567.928C375.266 566.356 420.103 551.401 465.478 524.679C524.743 489.783 566.276 477.208 592.615 477.208V477.185Z" fill="url(#paint9_radial_17_877)"/>
<path d="M614.55 656.919C570.77 656.919 547.554 642.413 540.183 625.885C531.126 605.586 543.689 579.627 573.827 556.475C603.493 533.661 617.18 507.231 607.134 492.185C595.2 474.333 547.217 473.053 451.23 528.182C348.028 587.464 274.402 575.158 239.949 543.833C214.036 520.3 207.788 484.012 223.677 449.138C262.85 363.066 344.454 295.7 346.567 293.971C348.859 291.613 450.106 188.744 601.942 177.472C690.783 170.87 742.609 178.123 751.823 198.423C756.049 207.764 751.127 219.71 737.575 232.982C727.506 242.84 725.596 253.798 732.316 263.05C746.295 282.316 798.053 292.781 869.342 255.707C917.055 230.893 966.161 234.217 991.557 263.97C1021.83 299.45 1010.37 360.327 960.924 426.817C902.671 505.142 859.813 552.501 817.606 585.196C772.68 620.002 725.057 640.594 663.14 652.024C644.756 655.414 628.619 656.896 614.595 656.896L614.55 656.919ZM578.209 479.835C593.874 479.835 603.718 484.416 608.37 491.355C618.888 507.073 605.044 534.357 574.726 557.666C545.195 580.368 532.789 605.653 541.554 625.279C551.038 646.567 587.896 664.397 662.825 650.564C779.512 629.029 846.103 578.661 959.688 425.919C1008.68 360.035 1020.17 299.854 990.388 264.936C965.464 235.721 917.1 232.533 870.016 257.032C797.941 294.51 745.373 283.641 731.08 263.925C723.865 254 725.843 242.323 736.496 231.904C749.554 219.104 754.386 207.742 750.43 199.029C744.227 185.309 713.437 170.668 602.032 178.954C449.814 190.271 348.612 293.993 347.601 295.026L347.533 295.094C346.702 295.767 264.378 363.291 225.026 449.745C209.204 484.528 215.137 519.267 240.937 542.71C275.009 573.654 347.938 585.757 450.465 526.857C510.742 492.23 552.386 479.812 578.209 479.812V479.835Z" fill="url(#paint10_radial_17_877)"/>
<path d="M603.56 662.937C558.634 662.937 534.272 648.071 526.091 630.893C516.293 610.324 527.71 583.804 556.612 559.956C586.457 535.345 600.347 508.039 590.413 493.555C578.547 476.242 531.8 476.848 436.194 530.427C333.756 587.823 262.041 574.956 229.094 543.766C202.821 518.907 197.742 480.621 215.811 443.906C258.984 356.195 337.33 291.905 339.397 290.221C341.757 287.796 446.285 181.918 603.92 170.87C695.66 164.448 748.475 171.521 756.7 191.349C760.476 200.466 754.723 212.031 740.024 224.785C729.417 234.015 727.012 244.726 733.395 254.225C746.834 274.188 799.874 286.965 871.072 251.013C917.796 227.413 965.734 231.567 990.343 261.365C1020.86 298.327 1007.6 361.045 954.856 429.153C842.799 573.811 788.232 630.938 658.622 656.896C637.609 661.096 619.315 662.937 603.538 662.937H603.56ZM563.691 482.125C578.12 482.125 587.222 486.235 591.672 492.724C602.055 507.882 588.031 535.996 557.578 561.124C529.238 584.5 517.978 610.346 527.462 630.264C541.037 658.76 592.391 668.641 658.353 655.437C787.468 629.568 841.9 572.599 953.688 428.255C1005.99 360.753 1019.27 298.709 989.22 262.331C965.082 233.094 917.886 229.097 871.791 252.361C799.784 288.716 745.935 275.468 732.203 255.078C725.349 244.883 727.843 233.431 739.081 223.663C748.947 215.085 759.779 202.599 755.352 191.933C749.801 178.55 719.033 164.313 604.055 172.374C445.948 183.467 341.51 290.221 340.476 291.299L340.409 291.366C339.622 292.017 260.58 356.442 217.205 444.58C199.427 480.711 204.394 518.301 230.172 542.688C262.738 573.497 333.779 586.139 435.498 529.125C496.92 494.723 538.475 482.125 563.713 482.125H563.691Z" fill="url(#paint11_radial_17_877)"/>
<path d="M592.638 669C546.498 669 520.945 653.753 511.932 635.945C501.235 614.77 511.258 588.34 539.441 563.459C569.399 536.984 583.558 508.825 573.827 494.992C562.59 479.004 516.607 480.531 421.204 532.673C375.581 557.621 333.509 570.488 296.179 570.914C263.479 571.318 236.487 561.932 218.103 543.833C191.449 517.605 187.583 477.32 207.99 438.651C255.119 349.346 330.183 288.11 332.25 286.448C333.352 285.325 360.343 257.862 406.685 229.479C450.128 202.869 519.956 169.927 605.943 164.245C700.469 157.98 754.295 164.897 761.644 184.231C765.016 193.123 758.431 204.306 742.564 216.589C731.439 225.19 728.54 235.699 734.585 245.4C748.34 267.451 804.054 280.026 872.892 246.343C918.65 223.932 965.442 228.895 989.287 258.693C1003.27 276.141 1007.9 300.079 1002.68 327.923C996.748 359.653 978.634 394.504 948.878 431.488L940.9 441.413C828.551 581.087 786.524 633.363 654.217 661.747C630.597 666.822 610.145 669 592.66 669H592.638ZM549.42 484.281C561.668 484.281 570.388 487.515 575.04 494.117C585.379 508.825 571.467 537.141 540.43 564.559C512.786 588.969 502.898 614.747 513.281 635.249C528.563 665.497 583.76 675.31 653.88 660.265C785.669 631.971 827.607 579.829 939.708 440.448L947.687 430.523C1003.31 361.382 1018.44 297.496 988.096 259.614C964.7 230.377 918.65 225.571 873.522 247.668C803.896 281.755 747.351 268.708 733.282 246.185C726.787 235.766 729.821 224.538 741.62 215.399C752.273 207.135 764.162 195.122 760.206 184.747C755.262 171.746 724.494 157.89 606.01 165.727C442.105 176.596 334.363 286.403 333.284 287.504L333.217 287.571C332.453 288.177 256.714 349.526 209.316 439.348C189.224 477.387 193 517.021 219.16 542.755C250.309 573.407 319.552 586.498 420.485 531.348C476.985 500.471 522.023 484.281 549.442 484.281H549.42Z" fill="url(#paint12_radial_17_877)"/>
<g opacity="0.8" clip-path="url(#clip1_17_877)">
<path d="M518.968 389.491C514.277 391.583 509.086 392.752 503.622 392.752C498.158 392.752 492.967 391.577 488.276 389.491L503.622 359L518.968 389.491ZM467 431.769L473.032 419.785C477.997 421.741 481.649 426.3 482.264 431.769H467ZM508.813 429.079L497.077 405.762L485.164 429.425C483.858 423.732 479.823 419.071 474.495 416.87L486.812 392.399C491.941 394.709 497.631 396.006 503.622 396.006C509.613 396.006 515.303 394.709 520.432 392.399L526.088 403.636C516.821 408.819 510.208 418.147 508.813 429.079ZM511.849 431.769C512.417 420.96 518.606 411.612 527.551 406.55L531.75 414.893L523.256 431.769H511.842H511.849ZM526.922 431.769L533.59 418.528L540.258 431.769H526.929H526.922Z" fill="#1565C0"/>
<path d="M590.537 406.394H581.51L576.996 396.122H563.004L558.278 406.394H552.274L571.778 363.464L590.544 406.394H590.537ZM564.672 392.623H575.505L570.164 380.462L564.666 392.623H564.672Z" fill="#1565C0"/>
<path d="M611.806 386.984C611.806 386.264 611.73 385.618 611.58 385.054C611.43 384.491 611.224 384.015 610.971 383.641C610.711 383.261 610.424 382.976 610.096 382.779C609.768 382.582 609.426 382.486 609.07 382.486C608.715 382.486 608.311 382.561 607.846 382.711C607.388 382.86 606.902 383.071 606.396 383.336C605.89 383.607 605.37 383.934 604.844 384.321C604.317 384.708 603.811 385.143 603.332 385.625V406.394H595.044V380.543L603.332 377.377V380.265C604.604 379.3 605.972 378.594 607.422 378.138C608.872 377.683 610.315 377.459 611.751 377.459C612.866 377.459 613.926 377.683 614.924 378.138C615.923 378.594 616.798 379.205 617.55 379.986C618.303 380.761 618.898 381.678 619.342 382.724C619.787 383.77 620.005 384.885 620.005 386.074V406.401H611.799V386.991L611.806 386.984Z" fill="#1565C0"/>
<path d="M627.904 368.043C627.904 367.472 628.021 366.922 628.246 366.405C628.479 365.889 628.793 365.441 629.204 365.074C629.607 364.707 630.079 364.408 630.613 364.184C631.146 363.96 631.72 363.851 632.336 363.851C632.951 363.851 633.533 363.96 634.073 364.184C634.613 364.408 635.085 364.7 635.482 365.074C635.878 365.447 636.193 365.889 636.426 366.405C636.658 366.922 636.768 367.472 636.768 368.043C636.768 368.613 636.651 369.157 636.426 369.666C636.193 370.176 635.878 370.618 635.482 370.984C635.085 371.358 634.613 371.65 634.073 371.874C633.533 372.099 632.951 372.207 632.336 372.207C631.72 372.207 631.139 372.099 630.613 371.874C630.086 371.65 629.614 371.358 629.204 370.984C628.793 370.618 628.479 370.176 628.246 369.666C628.014 369.157 627.904 368.613 627.904 368.043ZM628.246 380.537L636.508 377.371V406.387H628.246V380.543V380.537Z" fill="#1565C0"/>
<path d="M645.241 366.63L653.53 363.464V379.932C654.59 379.212 655.752 378.621 657.01 378.152C658.269 377.69 659.479 377.459 660.649 377.459C662.352 377.459 663.918 377.799 665.347 378.471C666.783 379.151 668.021 380.061 669.067 381.223C670.114 382.378 670.928 383.73 671.509 385.265C672.09 386.801 672.384 388.431 672.384 390.15C672.384 391.665 672.2 393.132 671.823 394.552C671.447 395.972 670.928 397.297 670.244 398.54C669.56 399.784 668.746 400.918 667.789 401.958C666.831 402.997 665.771 403.88 664.602 404.607C663.432 405.341 662.181 405.912 660.847 406.312C659.514 406.72 658.118 406.924 656.662 406.924C654.521 406.924 652.469 406.625 650.514 406.02C648.558 405.422 646.8 404.458 645.241 403.147V366.63ZM653.53 401.258C653.81 401.516 654.104 401.767 654.405 402.005C654.706 402.243 655.027 402.46 655.362 402.644C655.697 402.827 656.06 402.977 656.45 403.085C656.84 403.194 657.264 403.255 657.722 403.255C658.645 403.255 659.479 402.963 660.232 402.379C660.984 401.795 661.627 400.993 662.167 399.96C662.707 398.934 663.124 397.718 663.418 396.326C663.713 394.926 663.856 393.425 663.856 391.814C663.856 390.612 663.706 389.477 663.405 388.411C663.104 387.344 662.694 386.413 662.167 385.605C661.647 384.796 661.032 384.165 660.32 383.703C659.609 383.241 658.857 383.01 658.064 383.01C657.27 383.01 656.504 383.247 655.677 383.716C654.843 384.185 654.124 384.783 653.523 385.51V401.258H653.53Z" fill="#1565C0"/>
<path d="M678.279 368.043C678.279 367.472 678.396 366.922 678.621 366.405C678.854 365.889 679.168 365.441 679.579 365.074C679.982 364.707 680.454 364.408 680.987 364.184C681.521 363.96 682.095 363.851 682.711 363.851C683.326 363.851 683.908 363.96 684.448 364.184C684.988 364.408 685.46 364.7 685.857 365.074C686.253 365.447 686.568 365.889 686.8 366.405C687.033 366.922 687.142 367.472 687.142 368.043C687.142 368.613 687.026 369.157 686.8 369.666C686.568 370.176 686.253 370.618 685.857 370.984C685.46 371.358 684.988 371.65 684.448 371.874C683.908 372.099 683.326 372.207 682.711 372.207C682.095 372.207 681.514 372.099 680.987 371.874C680.454 371.65 679.989 371.358 679.579 370.984C679.168 370.618 678.854 370.176 678.621 369.666C678.389 369.157 678.279 368.613 678.279 368.043ZM678.621 380.537L686.883 377.371V406.387H678.621V380.543V380.537Z" fill="#1565C0"/>
<path d="M708.076 406.924C705.915 406.924 703.918 406.55 702.085 405.81C700.252 405.069 698.666 404.05 697.332 402.752C695.999 401.455 694.952 399.933 694.2 398.187C693.448 396.434 693.072 394.545 693.072 392.507C693.072 390.327 693.448 388.309 694.2 386.468C694.952 384.626 695.992 383.037 697.319 381.705C698.645 380.374 700.225 379.334 702.058 378.58C703.891 377.833 705.888 377.452 708.049 377.452C710.21 377.452 712.207 377.819 714.053 378.546C715.893 379.28 717.486 380.278 718.82 381.556C720.154 382.833 721.207 384.334 721.966 386.067C722.725 387.799 723.108 389.661 723.108 391.665C723.108 393.669 722.732 395.728 721.98 397.582C721.227 399.437 720.181 401.047 718.847 402.426C717.514 403.806 715.92 404.899 714.081 405.701C712.241 406.509 710.237 406.91 708.076 406.91V406.924ZM709.034 403.452C709.779 403.452 710.47 403.201 711.106 402.691C711.742 402.182 712.296 401.496 712.768 400.64C713.239 399.777 713.602 398.785 713.855 397.657C714.115 396.529 714.238 395.354 714.238 394.131C714.238 392.317 714.108 390.612 713.855 389.008C713.595 387.405 713.178 386.006 712.597 384.803C712.015 383.601 711.256 382.649 710.326 381.943C709.396 381.236 708.261 380.89 706.914 380.89C706.257 380.89 705.628 381.141 705.026 381.637C704.424 382.14 703.891 382.806 703.433 383.648C702.974 384.491 702.605 385.462 702.331 386.563C702.058 387.663 701.921 388.825 701.921 390.048C701.921 391.882 702.085 393.615 702.414 395.238C702.742 396.869 703.207 398.289 703.822 399.498C704.431 400.714 705.176 401.672 706.052 402.386C706.927 403.099 707.926 403.452 709.04 403.452H709.034Z" fill="#1565C0"/>
<path d="M763.525 387.127C763.525 386.495 763.45 385.904 763.3 385.333C763.149 384.769 762.944 384.28 762.677 383.859C762.411 383.438 762.103 383.111 761.747 382.86C761.392 382.609 761.009 382.486 760.605 382.486C760.127 382.486 759.634 382.568 759.121 382.738C758.608 382.908 758.095 383.125 757.596 383.404C757.097 383.682 756.618 384.008 756.174 384.375C755.729 384.749 755.339 385.136 755.004 385.544V406.401H746.852V387.127C746.852 386.495 746.77 385.904 746.613 385.333C746.456 384.769 746.237 384.28 745.963 383.859C745.69 383.444 745.375 383.111 745.02 382.86C744.664 382.609 744.301 382.486 743.932 382.486C743.488 382.486 743.016 382.568 742.51 382.738C742.004 382.908 741.498 383.125 740.998 383.404C740.499 383.682 740.007 384.008 739.535 384.375C739.063 384.749 738.646 385.136 738.276 385.544V406.401H730.042V380.543L738.276 377.377V380.462C739.569 379.538 740.909 378.804 742.298 378.267C743.686 377.731 745.02 377.459 746.292 377.459C747.003 377.459 747.714 377.54 748.432 377.71C749.15 377.88 749.841 378.111 750.504 378.417C751.168 378.723 751.783 379.096 752.351 379.531C752.918 379.966 753.404 380.462 753.814 381.019C754.437 380.503 755.114 380.02 755.859 379.572C756.605 379.123 757.384 378.75 758.212 378.444C759.032 378.138 759.874 377.901 760.735 377.724C761.59 377.547 762.445 377.459 763.3 377.459C764.449 377.459 765.543 377.69 766.582 378.152C767.615 378.614 768.525 379.253 769.304 380.068C770.084 380.883 770.699 381.834 771.164 382.928C771.623 384.022 771.855 385.197 771.855 386.454V406.394H763.546V387.12L763.525 387.127Z" fill="#1565C0"/>
<path d="M792.844 407.033C790.915 407.033 789.096 406.659 787.4 405.905C785.697 405.157 784.22 404.145 782.968 402.875C781.71 401.604 780.718 400.137 779.98 398.459C779.241 396.781 778.879 395.014 778.879 393.139C778.879 390.897 779.214 388.818 779.891 386.902C780.561 384.986 781.518 383.322 782.756 381.916C783.994 380.509 785.478 379.416 787.202 378.627C788.925 377.839 790.853 377.445 792.98 377.445C794.875 377.445 796.612 377.758 798.185 378.39C799.758 379.021 801.112 379.878 802.233 380.971C803.355 382.065 804.23 383.349 804.846 384.83C805.468 386.311 805.776 387.894 805.776 389.579H786.948C787.017 391.155 787.243 392.65 787.626 394.077C788.009 395.503 788.515 396.753 789.151 397.84C789.787 398.921 790.539 399.784 791.394 400.422C792.249 401.061 793.206 401.38 794.246 401.38C795.148 401.38 796.037 401.217 796.913 400.891C797.788 400.565 798.602 400.123 799.34 399.559C800.086 398.995 800.729 398.336 801.276 397.589C801.823 396.842 802.22 396.027 802.473 395.157L806.672 395.85C806.248 397.385 805.571 398.832 804.641 400.184C803.71 401.536 802.623 402.718 801.372 403.738C800.12 404.757 798.766 405.558 797.296 406.143C795.825 406.727 794.341 407.019 792.837 407.019L792.844 407.033ZM796.325 386.651C796.256 385.815 796.078 385.054 795.805 384.361C795.531 383.668 795.182 383.071 794.758 382.568C794.334 382.065 793.835 381.685 793.274 381.413C792.707 381.148 792.098 381.012 791.442 381.012C790.929 381.012 790.423 381.148 789.93 381.413C789.431 381.685 788.986 382.058 788.59 382.554C788.193 383.043 787.851 383.635 787.578 384.334C787.304 385.027 787.119 385.802 787.031 386.651H796.325Z" fill="#1565C0"/>
<path d="M553.607 417.835H556.131V423.603H562.121V417.835H564.645V431.817H562.121V425.58H556.131V431.817H553.607V417.835Z" fill="#1565C0"/>
<path d="M584.526 426.701V426.415C584.526 422.889 586.68 421.157 589.367 421.157C592.486 421.157 593.84 422.889 593.84 426.232V427.21H586.946C587.09 429.391 588.218 430.166 590.229 430.166C591.583 430.166 592.568 429.86 593.491 429.391V431.022C592.773 431.49 591.542 432 589.757 432C586.249 432 584.526 430.023 584.526 426.701ZM586.946 425.6H591.44C591.44 423.623 590.701 422.889 589.326 422.889C588.239 422.889 587.111 423.46 586.946 425.6Z" fill="#1565C0"/>
<path d="M612.859 429.024C612.859 427.088 614.151 426.191 616.244 425.886L618.727 425.6V424.805C618.727 423.379 618.091 423.052 616.306 423.052C615.28 423.052 614.377 423.195 613.741 423.338V421.728C614.726 421.34 615.854 421.157 617.229 421.157C619.67 421.157 621.086 422.095 621.086 424.275V431.817H619.137L618.952 430.961H618.829C618.316 431.552 617.475 432 616.101 432C614.192 432 612.859 431.042 612.859 429.024ZM618.727 429.717V427.129L616.778 427.333C615.731 427.414 615.177 427.842 615.177 428.902C615.177 429.901 615.854 430.349 616.819 430.349C617.578 430.349 618.337 430.084 618.727 429.717Z" fill="#1565C0"/>
<path d="M641.315 416.918H643.695V431.817H641.315V416.918Z" fill="#1565C0"/>
<path d="M664.595 429.228V423.155H663.118V421.32H664.595V418.854H666.913V421.32H669.437V423.155H666.913V428.902C666.913 429.779 667.241 430.105 668.349 430.105C668.76 430.105 669.19 430.043 669.56 429.942V431.511C669.149 431.715 668.575 431.939 667.59 431.939C665.764 431.939 664.595 431.205 664.595 429.228Z" fill="#1565C0"/>
<path d="M689.153 416.918H691.512V422.217H691.615C692.477 421.585 693.708 421.137 694.98 421.137C697.011 421.137 698.057 421.952 698.057 424.031V431.817H695.677V424.581C695.677 423.521 695.328 423.093 693.892 423.093C693.072 423.093 692.148 423.358 691.512 423.664V431.817H689.153V416.918Z" fill="#1565C0"/>
<path d="M717.63 426.803V426.477C717.63 422.849 719.846 421.137 722.78 421.137C724.175 421.137 725.016 421.402 725.693 421.769V423.603C724.811 423.256 724.175 423.032 722.923 423.032C721.159 423.032 720.071 424.133 720.071 426.232V426.701C720.071 429.106 721.077 430.125 723.087 430.125C724.38 430.125 725.262 429.717 725.796 429.473V431.185C725.119 431.613 724.134 432 722.677 432C719.559 432 717.63 430.268 717.63 426.803Z" fill="#1565C0"/>
<path d="M744.691 429.024C744.691 427.088 745.984 426.191 748.077 425.886L750.559 425.6V424.805C750.559 423.379 749.923 423.052 748.138 423.052C747.112 423.052 746.21 423.195 745.574 423.338V421.728C746.558 421.34 747.687 421.157 749.061 421.157C751.503 421.157 752.918 422.095 752.918 424.275V431.817H750.969L750.785 430.961H750.662C750.149 431.552 749.308 432 747.933 432C746.025 432 744.691 431.042 744.691 429.024ZM750.559 429.717V427.129L748.61 427.333C747.564 427.414 747.01 427.842 747.01 428.902C747.01 429.901 747.687 430.349 748.651 430.349C749.41 430.349 750.169 430.084 750.559 429.717Z" fill="#1565C0"/>
<path d="M773.107 421.32H775.384V422.543H775.466C776.041 421.789 777.128 421.239 778.236 421.239C778.523 421.239 778.79 421.259 778.892 421.3V423.379C778.626 423.338 778.277 423.317 778.031 423.317C777.087 423.317 776.143 423.582 775.466 424.01V431.817H773.107V421.32Z" fill="#1565C0"/>
<path d="M797.685 426.701V426.415C797.685 422.889 799.84 421.157 802.527 421.157C805.646 421.157 807 422.889 807 426.232V427.21H800.106C800.25 429.391 801.378 430.166 803.389 430.166C804.743 430.166 805.728 429.86 806.651 429.391V431.022C805.933 431.49 804.702 432 802.917 432C799.409 432 797.685 430.023 797.685 426.701ZM800.106 425.6H804.6C804.6 423.623 803.861 422.889 802.486 422.889C801.399 422.889 800.271 423.46 800.106 425.6Z" fill="#1565C0"/>
</g>
</g>
<circle cx="625" cy="769" r="72" fill="url(#paint13_linear_17_877)" fill-opacity="0.16"/>
<path d="M589.597 751.172V761.625H587.363V757.078H584.988V755.25H587.363V751.172H589.597ZM577.628 758.469C580.488 757.609 582.292 756.008 582.675 754.047H578.378V752.219H585.144C585.144 756.117 582.769 758.969 578.535 760.266L577.628 758.469ZM580.035 765.266V760.562H582.332V763.469H589.957V765.266H580.035ZM602.547 751.156V754.422H604.406V756.25H602.547V759.391H600.297V751.156H602.547ZM591 757.984C594.047 757.195 595.734 755.68 596.054 753.859H591.687V752.062H598.531C598.531 755.945 596.187 758.625 591.89 759.797L591 757.984ZM592.906 762.531C592.898 760.727 594.89 759.562 597.812 759.562C600.75 759.562 602.695 760.727 602.703 762.531C602.695 764.375 600.75 765.523 597.812 765.516C594.89 765.523 592.898 764.375 592.906 762.531ZM595.14 762.531C595.132 763.352 596.117 763.781 597.812 763.781C599.5 763.781 600.476 763.352 600.484 762.531C600.476 761.727 599.5 761.305 597.812 761.297C596.117 761.305 595.132 761.727 595.14 762.531ZM616.793 752.328V753.672C616.793 755.398 616.793 757.398 616.262 760.359L614.043 760.172C614.496 757.617 614.535 755.703 614.527 754.109H606.058V752.328H616.793ZM604.793 763.828V762.016H607.433V757.562H609.668V762.016H611.012V757.562H613.23V762.016H617.871V763.828H604.793ZM631.539 757.797V759.562H628.477V760.75H629.961V765.5H627.711V762.5H619.914V760.75H621.43V759.562H618.461V757.797H631.539ZM619.727 754.266C619.719 752.516 621.805 751.422 624.992 751.422C628.164 751.422 630.25 752.516 630.258 754.266C630.25 756.039 628.164 757.133 624.992 757.141C621.805 757.133 619.719 756.039 619.727 754.266ZM622.07 754.266C622.055 755.047 623.094 755.398 624.992 755.406C626.875 755.398 627.93 755.047 627.93 754.266C627.93 753.531 626.875 753.164 624.992 753.156C623.094 753.164 622.055 753.531 622.07 754.266ZM623.695 760.75H626.258V759.562H623.695V760.75ZM639.738 752.234C639.731 756.328 638.082 759.031 633.176 760.578L632.317 758.844C634.215 758.25 635.442 757.523 636.215 756.664L632.645 756.953L632.348 755.203L637.137 755.062C637.238 754.734 637.309 754.391 637.348 754.031H633.067V752.234H639.738ZM634.723 765.266V760.719H636.988V763.469H644.613V765.266H634.723ZM639.629 757.25V755.422H642.035V751.172H644.27V761.734H642.035V757.25H639.629ZM658.157 751.172V761.875H656.016V751.172H658.157ZM646.328 759.969V752.234H651.782V754.016H648.485V755.25H651.282V756.938H648.485V758.172C649.891 758.164 650.977 758.117 652.235 757.906L652.453 759.656C650.821 759.93 649.438 759.977 647.328 759.969H646.328ZM648.469 765.266V760.719H650.735V763.469H658.5V765.266H648.469ZM651.875 756.797V755.016H653.157V751.422H655.282V761.547H653.157V756.797H651.875ZM672.575 762.062V763.891H659.465V762.062H672.575ZM659.809 758.562C663.176 758.141 664.629 756.422 664.833 754.859H660.575V753.062H664.903V751.344H667.122V753.062H671.465V754.859H667.192C667.387 756.422 668.84 758.141 672.231 758.562L671.372 760.344C668.762 759.984 666.965 758.867 665.997 757.383C665.036 758.867 663.247 759.984 660.653 760.344L659.809 758.562ZM610.099 775.172V785.625H607.865V780.609H605.709V778.797H607.865V775.172H610.099ZM597.834 782.281C600.279 781.539 601.201 779.68 601.209 777.906V777.875H598.459V776.078H606.24V777.875H603.506V777.922C603.506 779.539 604.396 781.305 606.724 782.047L605.631 783.828C604.06 783.328 603.006 782.344 602.388 781.109C601.756 782.477 600.654 783.562 598.99 784.094L597.834 782.281ZM600.49 789.266V784.719H602.74V787.469H610.427V789.266H600.49ZM624.721 782.156V783.938H619.471V786.266H617.252V783.938H611.611V782.156H624.721ZM613.096 789.266V785.078H615.346V787.469H623.283V789.266H613.096ZM613.221 781.141V775.766H623.049V781.141H613.221ZM615.424 779.406H620.846V777.5H615.424V779.406ZM637.654 775.156V785.891H635.514V775.156H637.654ZM625.045 782.391C627.037 781.422 627.709 779.594 627.717 777.891V776.094H629.904V777.891C629.897 779.539 630.506 781.156 632.342 782.016L631.107 783.75C630.014 783.234 629.287 782.398 628.826 781.375C628.326 782.547 627.506 783.516 626.279 784.078L625.045 782.391ZM627.842 789.266V784.641H630.092V787.469H637.998V789.266H627.842ZM631.014 780.156V778.328H632.607V775.359H634.732V785.453H632.607V780.156H631.014ZM651.119 775.156V789.531H648.901V781.906H646.541V780.109H648.901V775.156H651.119ZM639.619 786.359V776.328H646.323V778.141H641.869V780.312H645.838V782.062H641.869V784.523C643.674 784.508 645.221 784.438 646.916 784.188L647.135 785.969C645.041 786.281 643.127 786.344 640.776 786.359H639.619Z" fill="#097EEA"/>
<path d="M284.889 176.531V177.639H270.633V176.531H277.084V174.703H272.443V169.535H283.113V170.643H273.797V173.578H283.219V174.703H278.42V176.531H284.889ZM272.355 181.594C272.347 179.81 274.377 178.79 277.752 178.781C281.101 178.79 283.113 179.81 283.131 181.594C283.113 183.396 281.101 184.406 277.752 184.424C274.377 184.406 272.347 183.396 272.355 181.594ZM273.762 181.594C273.744 182.692 275.247 183.325 277.752 183.316C280.23 183.325 281.733 182.692 281.742 181.594C281.733 180.513 280.23 179.871 277.752 179.871C275.247 179.871 273.744 180.513 273.762 181.594ZM300.428 175.406V176.531H293.977V178.078H298.6V181.576H289.318V183.158H299.074V184.248H287.947V180.539H297.246V179.15H287.912V178.078H292.605V176.531H286.189V175.406H300.428ZM288.035 174.088V169.324H298.582V174.088H288.035ZM289.406 172.98H297.211V170.432H289.406V172.98ZM303.908 169.764V172.277H308.268V169.764H309.621V171.363H313.312V168.797H314.701V178.271H313.312V175.723H309.621V177.111H302.537V169.764H303.908ZM303.908 175.986H308.268V173.385H303.908V175.986ZM304.277 181.506C304.269 179.643 306.264 178.588 309.516 178.57C312.759 178.588 314.754 179.643 314.754 181.506C314.754 183.334 312.759 184.389 309.516 184.389C306.264 184.389 304.269 183.334 304.277 181.506ZM305.648 181.506C305.64 182.631 307.116 183.299 309.516 183.299C311.906 183.299 313.383 182.631 313.383 181.506C313.383 180.337 311.906 179.669 309.516 179.66C307.116 179.669 305.64 180.337 305.648 181.506ZM309.621 174.58H313.312V172.488H309.621V174.58ZM330.188 168.814V180.68H328.799V179.062H325.564V178.061H328.799V168.814H330.188ZM317.215 176.057C320.124 176.039 324.044 176.013 327.393 175.6L327.48 176.602C326.092 176.821 324.624 176.962 323.191 177.05V180.135H321.803V177.12C320.221 177.182 318.718 177.182 317.408 177.182L317.215 176.057ZM318.48 172.172C318.472 170.528 320.036 169.447 322.348 169.447C324.642 169.447 326.206 170.528 326.215 172.172C326.206 173.842 324.642 174.879 322.348 174.879C320.036 174.879 318.472 173.842 318.48 172.172ZM319.465 184.09V179.52H320.854V182.93H330.574V184.09H319.465ZM319.799 172.172C319.781 173.191 320.818 173.851 322.348 173.859C323.833 173.851 324.888 173.191 324.896 172.172C324.888 171.17 323.833 170.484 322.348 170.502C320.818 170.484 319.781 171.17 319.799 172.172Z" fill="#212121"/>
<path d="M940.473 187.256C940.481 189.462 943.347 191.36 946.168 191.756L945.605 192.881C943.18 192.477 940.771 191.132 939.77 189.216C938.768 191.149 936.368 192.477 933.934 192.881L933.371 191.756C936.192 191.36 939.049 189.497 939.049 187.256V186.359H940.473V187.256ZM932.633 195.764V194.604H946.871V195.764H940.402V201.424H939.049V195.764H932.633ZM953.305 186.939C955.757 186.948 957.497 188.442 957.506 190.613C957.497 192.793 955.757 194.278 953.305 194.287C950.835 194.278 949.077 192.793 949.086 190.613C949.077 188.442 950.835 186.948 953.305 186.939ZM948.277 196.836C951.16 196.845 955.142 196.818 958.596 196.309L958.701 197.328C955.124 197.996 951.283 198.014 948.471 198.014L948.277 196.836ZM950.439 190.613C950.431 192.072 951.635 193.074 953.305 193.074C954.957 193.074 956.161 192.072 956.152 190.613C956.161 189.163 954.957 188.152 953.305 188.152C951.635 188.152 950.431 189.163 950.439 190.613ZM959.633 201.459V185.797H961.004V201.459H959.633ZM972.412 187.537V188.346C972.403 189.585 972.403 191.65 971.955 194.551L970.566 194.428C970.997 191.809 971.032 189.91 971.023 188.662H964.467V187.537H972.412ZM963.588 196.836C964.616 196.827 965.759 196.818 966.963 196.792V192.002H968.316V196.748C970.048 196.687 971.823 196.572 973.449 196.379L973.52 197.416C970.232 197.926 966.559 197.996 963.764 197.979L963.588 196.836ZM974.434 201.424V185.797H975.805V192.336H978.336V193.531H975.805V201.424H974.434ZM992.662 185.797V201.424H991.344V193.232H989.041V200.615H987.775V186.148H989.041V192.09H991.344V185.797H992.662ZM979.883 197.557V187.713H985.736V188.855H981.254V196.379C983.407 196.37 984.893 196.291 986.633 195.939L986.756 197.1C984.875 197.486 983.284 197.548 980.885 197.557H979.883ZM1004.21 187.484V188.609H994.895V187.484H998.867V185.727H1000.24V187.484H1004.21ZM995.791 192.248C995.782 190.525 997.294 189.436 999.553 189.418C1001.79 189.436 1003.3 190.525 1003.31 192.248C1003.3 193.944 1001.79 195.052 999.553 195.061C997.294 195.052 995.782 193.944 995.791 192.248ZM996.846 197.557V196.432H1007.08V201.424H1005.71V197.557H996.846ZM997.109 192.248C997.101 193.285 998.076 193.962 999.553 193.953C1001.01 193.962 1002 193.285 1002.01 192.248C1002 191.185 1001.01 190.499 999.553 190.49C998.076 190.499 997.101 191.185 997.109 192.248ZM1005.71 195.57V185.797H1007.08V190.139H1009.43V191.299H1007.08V195.57H1005.71Z" fill="#212121"/>
<path d="M963.889 672.531V673.639H949.633V672.531H956.084V670.703H951.443V665.535H962.113V666.643H952.797V669.578H962.219V670.703H957.42V672.531H963.889ZM951.355 677.594C951.347 675.81 953.377 674.79 956.752 674.781C960.101 674.79 962.113 675.81 962.131 677.594C962.113 679.396 960.101 680.406 956.752 680.424C953.377 680.406 951.347 679.396 951.355 677.594ZM952.762 677.594C952.744 678.692 954.247 679.325 956.752 679.316C959.23 679.325 960.733 678.692 960.742 677.594C960.733 676.513 959.23 675.871 956.752 675.871C954.247 675.871 952.744 676.513 952.762 677.594ZM979.428 671.406V672.531H972.977V674.078H977.6V677.576H968.318V679.158H978.074V680.248H966.947V676.539H976.246V675.15H966.912V674.078H971.605V672.531H965.189V671.406H979.428ZM967.035 670.088V665.324H977.582V670.088H967.035ZM968.406 668.98H976.211V666.432H968.406V668.98ZM995.055 677.277V678.42H980.746V677.277H987.18V673.902H982.434V665.904H983.822V668.734H991.943V665.904H993.297V673.902H988.533V677.277H995.055ZM983.822 672.777H991.943V669.859H983.822V672.777ZM1009.8 667.117V668.26H997.006V667.117H1002.74V665.061H1004.09V667.117H1009.8ZM996.303 678.596V677.453H1002.74V675.256C999.95 675.106 998.271 674.025 998.289 672.268C998.271 670.413 1000.23 669.314 1003.42 669.332C1006.57 669.314 1008.56 670.413 1008.55 672.268C1008.56 674.025 1006.85 675.106 1004.09 675.256V677.453H1010.61V678.596H996.303ZM999.678 672.268C999.66 673.454 1001.09 674.14 1003.42 674.148C1005.72 674.14 1007.16 673.454 1007.15 672.268C1007.16 671.107 1005.72 670.422 1003.42 670.422C1001.09 670.422 999.66 671.107 999.678 672.268ZM1017.15 669.596C1017.13 672.101 1018.94 674.86 1021.21 675.941L1020.42 677.031C1018.66 676.17 1017.18 674.324 1016.47 672.206C1015.75 674.5 1014.19 676.521 1012.44 677.418L1011.6 676.328C1013.85 675.229 1015.78 672.259 1015.8 669.596V667.557H1012.16V666.414H1020.67V667.557H1017.15V669.596ZM1022.58 680.424V664.797H1023.95V671.125H1026.57V672.303H1023.95V680.424H1022.58Z" fill="#212121"/>
<path d="M106.939 680.797V691.537H105.621V680.797H106.939ZM93.5625 688.268C94.0459 688.268 94.5996 688.268 95.1973 688.268V683.311H93.8438V682.15H101.191V683.311H99.8203V688.101C100.427 688.057 101.016 688.004 101.561 687.934L101.613 688.971C99.0908 689.41 95.8125 689.428 93.7207 689.428L93.5625 688.268ZM95.6191 695.281C98.3613 694.912 101.016 693.348 101.016 691.344V690.852H102.404V691.344C102.396 693.348 105.085 694.912 107.836 695.281L107.291 696.354C104.944 695.993 102.677 694.851 101.71 693.154C100.761 694.851 98.502 695.993 96.1289 696.354L95.6191 695.281ZM96.498 688.241C97.166 688.232 97.8516 688.206 98.5371 688.171V683.311H96.498V688.241ZM100.646 686.299V685.156H102.738V681.148H104.039V690.096H102.738V686.299H100.646ZM122.074 680.797V696.459H120.686V680.797H122.074ZM110.104 692.68V682.133H111.475V686.264H116.133V682.133H117.486V692.68H110.104ZM111.475 691.52H116.133V687.371H111.475V691.52ZM139.055 693.189V694.35H124.746V693.189H139.055ZM125.449 689.357C128.095 688.909 131.162 686.729 131.162 684.242V683.521H125.924V682.379H137.824V683.521H132.586V684.242C132.595 686.729 135.671 688.856 138.369 689.305L137.807 690.395C135.416 689.938 132.894 688.408 131.892 686.246C130.89 688.417 128.376 689.981 126.029 690.465L125.449 689.357ZM153.223 680.797V696.424H151.834V680.797H153.223ZM140.496 692.363C144.724 690.359 146.886 687.362 147.193 683.627H141.217V682.502H148.6C148.582 686.993 146.49 690.975 141.252 693.488L140.496 692.363ZM160.166 681.535C162.258 681.526 163.857 682.748 164.156 684.541H167.426V680.797H168.814V689.182H167.426V685.684H164.165C163.893 687.529 162.284 688.76 160.166 688.76C157.784 688.76 156.097 687.283 156.105 685.139C156.097 683.021 157.784 681.526 160.166 681.535ZM157.424 685.139C157.424 686.562 158.558 687.591 160.166 687.6C161.739 687.591 162.873 686.562 162.873 685.139C162.873 683.697 161.739 682.695 160.166 682.713C158.558 682.695 157.424 683.697 157.424 685.139ZM158.742 696.213V689.973H160.131V691.959H167.426V689.973H168.814V696.213H158.742ZM160.131 695.088H167.426V693.066H160.131V695.088ZM176.531 681.676L172.418 696.916H171.047L175.143 681.676H176.531ZM186.287 682.379V683.521H177.445V682.379H181.242V680.656H182.613V682.379H186.287ZM178.377 687.107C178.359 685.402 179.801 684.286 181.91 684.277C184.002 684.286 185.47 685.402 185.479 687.107C185.47 688.795 184.002 689.902 181.91 689.902C179.801 689.902 178.359 688.795 178.377 687.107ZM179.66 687.107C179.651 688.153 180.548 688.856 181.91 688.865C183.255 688.856 184.178 688.153 184.195 687.107C184.178 686.053 183.255 685.35 181.91 685.35C180.548 685.35 179.651 686.053 179.66 687.107ZM180.205 696.213V690.693H181.576V692.346H189.012V690.693H190.383V696.213H180.205ZM181.576 695.105H189.012V693.418H181.576V695.105ZM186.27 688.654V687.512H188.994V685.596H186.287V684.453H188.994V680.797H190.383V690.043H188.994V688.654H186.27ZM205.799 680.797V696.424H204.428V680.797H205.799ZM193.072 692.258C194.408 692.249 195.938 692.24 197.52 692.188V690.482C195.639 690.289 194.426 689.217 194.443 687.652C194.426 685.886 195.929 684.743 198.188 684.752C200.446 684.743 201.976 685.886 201.967 687.652C201.976 689.199 200.763 690.271 198.908 690.482V692.135C200.42 692.064 201.949 691.959 203.391 691.766L203.496 692.82C200.007 693.383 196.184 693.436 193.283 693.436L193.072 692.258ZM193.406 683.855V682.73H197.52V680.814H198.908V682.73H202.986V683.855H193.406ZM195.727 687.652C195.718 688.733 196.737 689.445 198.188 689.428C199.646 689.445 200.657 688.733 200.648 687.652C200.657 686.562 199.646 685.824 198.188 685.824C196.737 685.824 195.718 686.562 195.727 687.652Z" fill="#212121"/>
<circle cx="623" cy="78" r="72" fill="url(#paint14_linear_17_877)" fill-opacity="0.16"/>
<path d="M608.318 59.1719V67.0781H606.177V59.1719H608.318ZM595.881 61.875V60.2031H598.146V59.1406H600.365V60.2031H602.631V61.875H595.881ZM596.271 64.5312C596.263 63.1172 597.537 62.1484 599.287 62.1562C601.013 62.1484 602.287 63.1172 602.287 64.5312C602.287 65.9375 601.013 66.8828 599.287 66.875C597.537 66.8828 596.263 65.9375 596.271 64.5312ZM598.209 64.5312C598.209 65.0781 598.646 65.3516 599.287 65.3594C599.896 65.3516 600.334 65.0781 600.334 64.5312C600.334 63.9844 599.896 63.6875 599.287 63.6875C598.646 63.6875 598.209 63.9844 598.209 64.5312ZM598.412 69.1094V67.5H608.318V71.1875H600.662V71.7812H608.693V73.4219H598.427V69.6719H606.084V69.1094H598.412ZM602.349 64.3438V62.5781H603.396V59.4062H605.506V66.9688H603.396V64.3438H602.349ZM617.299 60.9688C617.291 62.9688 618.846 65.2344 622.33 65.8125L621.346 67.6719C618.775 67.1875 617.017 65.8281 616.096 64.0781C615.166 65.8125 613.392 67.1797 610.846 67.6719L609.892 65.8125C613.299 65.2188 614.877 62.9375 614.892 60.9688V59.9688H617.299V60.9688ZM609.627 71.7969V69.9531H622.736V71.7969H609.627ZM629.686 60.75C629.686 62.0859 629.584 63.3359 629.303 64.5H630.607V59.4688H632.701V72.8906H630.607V66.2969H628.693C627.92 67.9844 626.607 69.4453 624.451 70.6875L623.201 69.1719C624.897 68.1641 625.982 67.0703 626.639 65.7891L623.545 66.1094L623.311 64.2031L627.272 64.0156C627.381 63.5469 627.451 63.0547 627.49 62.5312H624.029V60.75H629.686ZM633.654 73.5V59.1562H635.764V73.5H633.654ZM640.948 60.1406C642.877 60.1328 644.338 61.7031 644.643 64.25H646.901V59.1562H649.119V73.5312H646.901V66.0312H644.666C644.432 68.7656 642.94 70.4375 640.948 70.4375C638.752 70.4375 637.174 68.4531 637.182 65.2656C637.174 62.125 638.752 60.1328 640.948 60.1406ZM639.338 65.2656C639.33 67.3516 639.987 68.3906 640.948 68.3906C641.924 68.3906 642.557 67.3516 642.557 65.2656C642.557 63.2188 641.924 62.1641 640.948 62.1719C639.987 62.1641 639.33 63.2188 639.338 65.2656ZM578.919 96V84.6875H583.544C586.091 84.6875 587.662 86.1328 587.654 88.4375C587.662 90 586.943 91.1094 585.693 91.6797L588.06 96H585.138L583.06 92.1094H581.576V96H578.919ZM581.576 89.9844H582.982C584.24 89.9922 584.904 89.5 584.904 88.4375C584.904 87.375 584.24 86.8438 582.982 86.8438H581.576V89.9844ZM592.525 96.1719C590.134 96.1719 588.681 94.7656 588.681 93C588.681 91.6953 589.502 90.9141 590.705 90.0938C590.158 89.375 589.689 88.5312 589.697 87.5312C589.689 85.8516 590.955 84.5234 592.869 84.5312C594.72 84.5234 595.861 85.7812 595.869 87.2812C595.861 88.3359 595.314 89.2266 594.353 89.9062L593.744 90.3516L595.447 92.2734C595.752 91.7188 595.931 91.0625 595.931 90.3281H598.072C598.072 91.8359 597.697 93.1172 597.009 94.0391L598.744 96H596.056L595.416 95.2969C594.548 95.9141 593.494 96.1719 592.525 96.1719ZM591.228 92.8281C591.22 93.5703 591.791 94.0781 592.681 94.0781C593.119 94.0781 593.564 93.9531 593.986 93.7344L592.025 91.5938C591.509 91.9531 591.22 92.3672 591.228 92.8281ZM591.884 87.5625C591.892 87.9922 592.142 88.4219 592.525 88.9141L593.072 88.5625C593.611 88.2266 593.83 87.8359 593.838 87.4375C593.83 87.0312 593.502 86.625 592.884 86.625C592.283 86.6328 591.892 87.0312 591.884 87.5625ZM603.553 96H599.412V84.6875H603.553C607.006 84.6875 609.131 86.8047 609.131 90.3438C609.131 93.875 607.006 96 603.553 96ZM602.068 93.7188H603.459C605.396 93.7266 606.459 92.7969 606.459 90.3438C606.459 87.8828 605.396 86.9609 603.428 86.9531H602.068V93.7188ZM625.623 83.1719V93.625H623.389V88.6094H621.233V86.7969H623.389V83.1719H625.623ZM613.358 90.2812C615.803 89.5391 616.725 87.6797 616.733 85.9062V85.875H613.983V84.0781H621.764V85.875H619.029V85.9219C619.029 87.5391 619.92 89.3047 622.248 90.0469L621.154 91.8281C619.584 91.3281 618.529 90.3438 617.912 89.1094C617.279 90.4766 616.178 91.5625 614.514 92.0938L613.358 90.2812ZM616.014 97.2656V92.7188H618.264V95.4688H625.951V97.2656H616.014ZM640.244 90.1562V91.9375H634.994V94.2656H632.776V91.9375H627.135V90.1562H640.244ZM628.619 97.2656V93.0781H630.869V95.4688H638.807V97.2656H628.619ZM628.744 89.1406V83.7656H638.573V89.1406H628.744ZM630.948 87.4062H636.369V85.5H630.948V87.4062ZM653.178 83.1562V93.8906H651.038V83.1562H653.178ZM640.569 90.3906C642.561 89.4219 643.233 87.5938 643.241 85.8906V84.0938H645.428V85.8906C645.42 87.5391 646.03 89.1562 647.866 90.0156L646.631 91.75C645.538 91.2344 644.811 90.3984 644.35 89.375C643.85 90.5469 643.03 91.5156 641.803 92.0781L640.569 90.3906ZM643.366 97.2656V92.6406H645.616V95.4688H653.522V97.2656H643.366ZM646.538 88.1562V86.3281H648.131V83.3594H650.256V93.4531H648.131V88.1562H646.538ZM666.643 83.1562V97.5312H664.424V89.9062H662.065V88.1094H664.424V83.1562H666.643ZM655.143 94.3594V84.3281H661.846V86.1406H657.393V88.3125H661.362V90.0625H657.393V92.5234C659.198 92.5078 660.745 92.4375 662.44 92.1875L662.659 93.9688C660.565 94.2812 658.651 94.3438 656.299 94.3594H655.143Z" fill="#097EEA"/>
<circle cx="147" cy="340" r="72" fill="url(#paint15_linear_17_877)" fill-opacity="0.16"/>
<path d="M116.91 328.828V330.594H103.8V328.828H109.253V327.75H105.363V322.781H115.363V324.531H107.613V325.984H115.425V327.75H111.472V328.828H116.91ZM105.269 333.875C105.269 332.156 107.167 331.203 110.316 331.203C113.433 331.203 115.316 332.156 115.316 333.875C115.316 335.555 113.433 336.523 110.316 336.531C107.167 336.523 105.269 335.555 105.269 333.875ZM107.566 333.875C107.55 334.539 108.433 334.82 110.316 334.812C112.152 334.82 113.058 334.539 113.066 333.875C113.058 333.219 112.152 332.906 110.316 332.906C108.433 332.906 107.55 333.219 107.566 333.875ZM130.547 327.734V329.5H125.109V330.25H128.984V334.078H121.172V334.734H129.328V336.422H118.953V332.5H126.75V331.938H118.953V330.25H122.843V329.5H117.468V327.734H130.547ZM119.062 327.125V322.562H128.906V327.125H119.062ZM121.265 325.406H126.656V324.297H121.265V325.406ZM143.168 322.156V329.859H140.933V322.156H143.168ZM131.277 324.828V323.156H134.496V322.062H136.777V323.156H139.965V324.828H131.277ZM132.012 327.453C132.004 326.039 133.457 325.117 135.652 325.109C137.863 325.117 139.277 326.039 139.277 327.453C139.277 328.922 137.863 329.805 135.652 329.797C133.457 329.805 132.004 328.922 132.012 327.453ZM133.496 336.422V332.609H140.965V332H133.496V330.375H143.168V334.125H135.715V334.781H143.512V336.422H133.496ZM134.168 327.453C134.16 327.969 134.722 328.219 135.652 328.219C136.558 328.219 137.113 327.969 137.121 327.453C137.113 326.945 136.558 326.688 135.652 326.688C134.722 326.688 134.16 326.945 134.168 327.453ZM156.852 322.172V330.844H154.602V322.172H156.852ZM145.555 324.797V323H152.211V327.469H147.773V328.523C150.102 328.508 151.711 328.422 153.523 328.156L153.805 329.938C151.688 330.281 149.758 330.344 146.852 330.344H145.57V325.812H149.992V324.797H145.555ZM147.008 333.781C147 332.039 148.883 331.062 151.961 331.062C155.047 331.062 156.938 332.039 156.945 333.781C156.938 335.5 155.047 336.516 151.961 336.5C148.883 336.516 147 335.5 147.008 333.781ZM149.242 333.781C149.234 334.469 150.141 334.766 151.961 334.766C153.781 334.766 154.68 334.469 154.695 333.781C154.68 333.102 153.781 332.797 151.961 332.797C150.141 332.797 149.234 333.102 149.242 333.781ZM164.113 323.156L160.473 336.703H158.223L161.863 323.156H164.113ZM168.469 322.906C169.586 322.898 170.571 323.305 171.258 323.984H174.36V322.156H176.594V330.531H174.36V328.922H171.243C170.555 329.586 169.571 329.992 168.469 329.984C166.289 329.992 164.61 328.484 164.625 326.453C164.61 324.391 166.289 322.898 168.469 322.906ZM166.688 333.656C166.688 331.859 168.602 330.805 171.641 330.812C174.703 330.805 176.633 331.859 176.641 333.656C176.633 335.445 174.703 336.516 171.641 336.5C168.602 336.516 166.688 335.445 166.688 333.656ZM166.75 326.453C166.75 327.477 167.461 328.094 168.469 328.094C169.446 328.094 170.141 327.477 170.141 326.453C170.141 325.383 169.446 324.82 168.469 324.828C167.461 324.82 166.75 325.383 166.75 326.453ZM168.891 333.656C168.883 334.414 169.852 334.766 171.641 334.766C173.5 334.766 174.43 334.414 174.438 333.656C174.43 332.875 173.5 332.523 171.641 332.516C169.852 332.523 168.883 332.875 168.891 333.656ZM172.211 327.141H174.36V325.766H172.211C172.258 325.984 172.282 326.219 172.282 326.453C172.282 326.688 172.258 326.922 172.211 327.141ZM191.325 323.828V325.641H189.543V326.953H191.325V328.797H189.543V330.5H187.293V322.156H189.543V323.828H191.325ZM178.168 326.422C178.153 324.375 179.887 322.922 182.153 322.922C184.379 322.922 186.106 324.375 186.106 326.422C186.106 328.453 184.379 329.93 182.153 329.922C179.887 329.93 178.153 328.453 178.168 326.422ZM179.856 333.641C179.848 331.828 181.793 330.742 184.809 330.75C187.77 330.742 189.684 331.828 189.684 333.641C189.684 335.43 187.77 336.516 184.809 336.5C181.793 336.516 179.848 335.43 179.856 333.641ZM180.372 326.422C180.364 327.461 181.129 328.031 182.153 328.031C183.137 328.031 183.911 327.461 183.918 326.422C183.911 325.398 183.137 324.797 182.153 324.797C181.129 324.797 180.364 325.398 180.372 326.422ZM182.106 333.641C182.098 334.414 183.028 334.727 184.809 334.719C186.575 334.727 187.458 334.414 187.465 333.641C187.458 332.859 186.575 332.516 184.809 332.516C183.028 332.516 182.098 332.859 182.106 333.641ZM132.599 346.172V356.625H130.365V351.609H128.209V349.797H130.365V346.172H132.599ZM120.334 353.281C122.779 352.539 123.701 350.68 123.709 348.906V348.875H120.959V347.078H128.74V348.875H126.006V348.922C126.006 350.539 126.896 352.305 129.224 353.047L128.131 354.828C126.56 354.328 125.506 353.344 124.888 352.109C124.256 353.477 123.154 354.562 121.49 355.094L120.334 353.281ZM122.99 360.266V355.719H125.24V358.469H132.927V360.266H122.99ZM147.221 353.156V354.938H141.971V357.266H139.752V354.938H134.111V353.156H147.221ZM135.596 360.266V356.078H137.846V358.469H145.783V360.266H135.596ZM135.721 352.141V346.766H145.549V352.141H135.721ZM137.924 350.406H143.346V348.5H137.924V350.406ZM160.154 346.156V356.891H158.014V346.156H160.154ZM147.545 353.391C149.537 352.422 150.209 350.594 150.217 348.891V347.094H152.404V348.891C152.397 350.539 153.006 352.156 154.842 353.016L153.607 354.75C152.514 354.234 151.787 353.398 151.326 352.375C150.826 353.547 150.006 354.516 148.779 355.078L147.545 353.391ZM150.342 360.266V355.641H152.592V358.469H160.498V360.266H150.342ZM153.514 351.156V349.328H155.107V346.359H157.232V356.453H155.107V351.156H153.514ZM173.619 346.156V360.531H171.401V352.906H169.041V351.109H171.401V346.156H173.619ZM162.119 357.359V347.328H168.823V349.141H164.369V351.312H168.338V353.062H164.369V355.523C166.174 355.508 167.721 355.438 169.416 355.188L169.635 356.969C167.541 357.281 165.627 357.344 163.276 357.359H162.119Z" fill="#097EEA"/>
<path opacity="0.1" d="M623.097 808C553.695 808 515.259 785.054 501.703 758.255C485.612 726.387 500.689 686.612 543.081 649.168C588.143 609.325 609.44 566.947 594.802 546.13C577.9 522.068 508.735 524.366 365.232 602.836C296.608 640.381 233.325 659.745 177.175 660.387C127.989 660.996 87.3887 646.87 59.7362 619.632C19.6434 580.16 13.8289 519.534 44.5239 461.34C115.413 326.941 228.322 234.785 231.432 232.284C233.088 230.594 273.688 189.264 343.394 146.548C408.74 106.502 513.772 56.9265 643.11 48.3766C785.294 38.9481 866.257 49.3566 877.311 78.4533C882.382 91.8358 872.477 108.665 848.611 127.151C831.877 140.094 827.516 155.909 836.61 170.508C857.299 203.694 941.101 222.619 1044.65 171.928C1113.47 138.201 1183.86 145.67 1219.72 190.515C1240.75 216.773 1247.71 252.797 1239.87 294.702C1230.95 342.453 1203.7 394.901 1158.94 450.56L1146.94 465.497C977.949 675.696 914.733 754.369 715.723 797.084C680.194 804.722 649.431 808 623.131 808H623.097ZM558.09 530.01C576.514 530.01 589.63 534.876 596.628 544.812C612.178 566.947 591.253 609.561 544.568 650.824C502.988 687.558 488.114 726.353 503.732 757.207C526.719 802.728 609.744 817.496 715.216 794.854C913.449 752.274 976.529 673.804 1145.15 464.044L1157.15 449.107C1240.82 345.055 1263.57 248.911 1217.93 191.9C1182.74 147.9 1113.47 140.668 1045.59 173.922C940.865 225.221 855.811 205.587 834.649 171.691C824.88 156.011 829.443 139.114 847.191 125.36C863.215 112.923 881.097 94.8435 875.148 79.2306C867.711 59.6638 821.432 38.8129 643.211 50.607C396.671 66.9634 234.61 232.216 232.987 233.872L232.886 233.974C231.736 234.886 117.813 327.212 46.5184 462.388C16.2967 519.635 21.9759 579.282 61.325 618.01C108.179 664.139 212.332 683.841 364.151 600.842C449.137 554.375 516.882 530.01 558.124 530.01H558.09Z" fill="url(#paint16_radial_17_877)"/>
<g filter="url(#filter0_d_17_877)">
<rect x="192" y="87" width="220" height="66" rx="33" fill="#F5F5F5"/>
</g>
<g filter="url(#filter1_d_17_877)">
<rect x="861" y="103" width="220" height="66" rx="33" fill="#F5F5F5"/>
</g>
<g filter="url(#filter2_d_17_877)">
<rect x="878" y="582" width="220" height="66" rx="33" fill="#F5F5F5"/>
</g>
<path d="M220.512 129.711V125.035L231.059 108.547H238.617V125H241.711V129.711H238.617V134H232.887V129.711H220.512ZM226.488 125H232.992V114.91H232.781L226.488 124.789V125ZM250.437 131.328L247.308 141.488H243.195L244.882 131.328H250.437ZM264.014 134.352C258.442 134.352 254.434 131.117 254.346 126.582H260.182C260.27 128.463 261.94 129.729 264.014 129.711C266.405 129.729 268.11 128.041 268.092 125.562C268.11 123.084 266.387 121.379 263.944 121.379C262.133 121.379 260.903 122.1 260.217 123.453H254.838L256.104 108.547H272.381V113.398H261.026L260.428 119.48H260.604C261.465 118.092 263.469 117.072 265.842 117.09C270.465 117.072 273.893 120.535 273.893 125.387C273.893 130.625 269.938 134.352 264.014 134.352ZM287.189 134.352C280.58 134.352 276.537 129.623 276.537 121.273C276.537 112.924 280.58 108.195 287.189 108.195C293.798 108.195 297.859 112.959 297.841 121.273C297.859 129.641 293.798 134.352 287.189 134.352ZM282.689 121.273C282.671 126.916 284.482 129.465 287.189 129.465C289.896 129.465 291.707 126.916 291.689 121.273C291.689 115.719 289.896 113.064 287.189 113.047C284.5 113.064 282.707 115.719 282.689 121.273ZM311.278 134.352C304.669 134.352 300.626 129.623 300.626 121.273C300.626 112.924 304.669 108.195 311.278 108.195C317.887 108.195 321.948 112.959 321.93 121.273C321.948 129.641 317.887 134.352 311.278 134.352ZM306.778 121.273C306.761 126.916 308.571 129.465 311.278 129.465C313.985 129.465 315.796 126.916 315.778 121.273C315.778 115.719 313.985 113.064 311.278 113.047C308.589 113.064 306.796 115.719 306.778 121.273ZM332.906 107.316C335.771 107.299 338.18 108.846 339.674 111.535H346.301V105.102H351.293V137.445H346.301V125.492H340.043C338.602 128.674 336.018 130.484 332.906 130.484C327.967 130.484 324.416 126.02 324.434 118.848C324.416 111.781 327.967 107.299 332.906 107.316ZM329.285 118.848C329.268 123.541 330.744 125.879 332.906 125.879C335.104 125.879 336.527 123.541 336.527 118.848C336.527 114.242 335.104 111.869 332.906 111.887C330.744 111.869 329.268 114.242 329.285 118.848ZM341.08 115.613C341.256 116.615 341.344 117.705 341.344 118.848C341.344 119.779 341.291 120.658 341.168 121.484H346.301V115.613H341.08ZM382.484 105.102V137.375H377.667V121.133H375.171V136.004H370.495V105.945H375.171V117.055H377.667V105.102H382.484ZM354.077 127.355C360.335 123.611 363.077 119.234 363.728 113.047H355.835V109.039H368.667C368.667 118.268 366.03 125.527 356.995 130.836L354.077 127.355Z" fill="#1784EA"/>
<path d="M928.16 121.137V144.656H923.133V133.371H918.281V129.293H923.133V121.137H928.16ZM900.562 137.133C906.064 135.463 908.139 131.279 908.156 127.289V127.219H901.969V123.176H919.477V127.219H913.324V127.324C913.324 130.963 915.328 134.936 920.566 136.605L918.105 140.613C914.572 139.488 912.199 137.273 910.811 134.496C909.387 137.572 906.908 140.016 903.164 141.211L900.562 137.133ZM906.539 152.848V142.617H911.602V148.805H928.898V152.848H906.539ZM957.628 122.473V125.074C957.646 127.447 957.646 130.137 957.03 133.477H961.003V137.484H948.734V141.668H957.593V153.375H952.53V145.641H934.425V141.668H943.636V137.484H931.507V133.477H951.898C952.443 130.699 952.548 128.502 952.566 126.48H935.058V122.473H957.628ZM982.427 124.547V150H976.416V130.172H976.275L970.545 133.688V128.484L976.838 124.547H982.427ZM997.973 150.352C991.364 150.352 987.321 145.623 987.321 137.273C987.321 128.924 991.364 124.195 997.973 124.195C1004.58 124.195 1008.64 128.959 1008.63 137.273C1008.64 145.641 1004.58 150.352 997.973 150.352ZM993.473 137.273C993.456 142.916 995.266 145.465 997.973 145.465C1000.68 145.465 1002.49 142.916 1002.47 137.273C1002.47 131.719 1000.68 129.064 997.973 129.047C995.284 129.064 993.491 131.719 993.473 137.273ZM1038.52 121.102V153.375H1033.7V137.133H1031.2V152.004H1026.53V121.945H1031.2V133.055H1033.7V121.102H1038.52ZM1010.11 143.355C1016.37 139.611 1019.11 135.234 1019.76 129.047H1011.87V125.039H1024.7C1024.7 134.268 1022.06 141.527 1013.03 146.836L1010.11 143.355Z" fill="#1784EA"/>
<path d="M921.5 602.547V628H915.488V608.172H915.348L909.617 611.688V606.484L915.91 602.547H921.5ZM931.597 625.328L928.468 635.488H924.355L926.042 625.328H931.597ZM945.174 628.352C939.602 628.352 935.594 625.117 935.506 620.582H941.342C941.43 622.463 943.1 623.729 945.174 623.711C947.565 623.729 949.27 622.041 949.252 619.562C949.27 617.084 947.547 615.379 945.104 615.379C943.293 615.379 942.063 616.1 941.377 617.453H935.998L937.264 602.547H953.541V607.398H942.186L941.588 613.48H941.764C942.625 612.092 944.629 611.072 947.002 611.09C951.625 611.072 955.053 614.535 955.053 619.387C955.053 624.625 951.098 628.352 945.174 628.352ZM968.349 628.352C961.74 628.352 957.697 623.623 957.697 615.273C957.697 606.924 961.74 602.195 968.349 602.195C974.959 602.195 979.019 606.959 979.002 615.273C979.019 623.641 974.959 628.352 968.349 628.352ZM963.849 615.273C963.832 620.916 965.642 623.465 968.349 623.465C971.056 623.465 972.867 620.916 972.849 615.273C972.849 609.719 971.056 607.064 968.349 607.047C965.66 607.064 963.867 609.719 963.849 615.273ZM992.438 628.352C985.829 628.352 981.786 623.623 981.786 615.273C981.786 606.924 985.829 602.195 992.438 602.195C999.048 602.195 1003.11 606.959 1003.09 615.273C1003.11 623.641 999.048 628.352 992.438 628.352ZM987.938 615.273C987.921 620.916 989.731 623.465 992.438 623.465C995.145 623.465 996.956 620.916 996.938 615.273C996.938 609.719 995.145 607.064 992.438 607.047C989.749 607.064 987.956 609.719 987.938 615.273ZM1021.59 601.703V617.383H1005.95V601.703H1021.59ZM1009.64 630.848V620.266H1014.7V626.805H1031.86V630.848H1009.64ZM1010.94 613.445H1016.6V605.711H1010.94V613.445ZM1025.74 622.621V599.137H1030.8V608.242H1034.98V612.391H1030.8V622.621H1025.74ZM1063.08 599.102V617.945H1058.05V614.148H1052.53V616.363H1037.07V601.457H1052.53V603.672H1058.05V599.102H1063.08ZM1040.79 625.082C1040.79 621.092 1045.05 618.736 1051.94 618.754C1058.92 618.736 1063.17 621.092 1063.19 625.082C1063.17 629.107 1058.92 631.41 1051.94 631.375C1045.05 631.41 1040.79 629.107 1040.79 625.082ZM1042.09 612.355H1047.58V605.43H1042.09V612.355ZM1045.82 625.082C1045.82 626.752 1047.91 627.561 1051.94 627.578C1056.05 627.561 1058.12 626.752 1058.16 625.082C1058.12 623.324 1056.05 622.586 1051.94 622.586C1047.91 622.586 1045.82 623.324 1045.82 625.082ZM1052.53 610.07H1058.05V607.609H1052.53V610.07Z" fill="#1784EA"/>
<g filter="url(#filter3_d_17_877)">
<rect x="41" y="590" width="220" height="66" rx="33" fill="#F5F5F5"/>
</g>
<path d="M84.0586 638.352C78.5039 638.334 73.4414 635.029 73.4414 625.73C73.4766 617.293 77.6953 612.195 84.1992 612.195C89.543 612.195 93.1641 615.588 93.6562 619.859H87.75C87.3633 618.207 85.9922 617.311 84.1992 617.328C80.9824 617.311 79.3828 620.264 79.3828 624.887H79.5586C80.6484 622.584 83.2148 621.23 86.0625 621.23C90.668 621.23 93.9551 624.658 93.9375 629.387C93.9551 634.695 89.9297 638.352 84.0586 638.352ZM79.9453 629.598C79.9453 631.9 81.668 633.729 84.0234 633.711C86.3965 633.729 88.1367 631.936 88.1016 629.562C88.1367 627.225 86.4141 625.449 84.0586 625.449C81.7031 625.449 79.9453 627.26 79.9453 629.598ZM107.339 638.352C100.73 638.352 96.6867 633.623 96.6867 625.273C96.6867 616.924 100.73 612.195 107.339 612.195C113.948 612.195 118.009 616.959 117.991 625.273C118.009 633.641 113.948 638.352 107.339 638.352ZM102.839 625.273C102.821 630.916 104.632 633.465 107.339 633.465C110.046 633.465 111.857 630.916 111.839 625.273C111.839 619.719 110.046 617.064 107.339 617.047C104.65 617.064 102.857 619.719 102.839 625.273ZM131.428 638.352C124.819 638.352 120.776 633.623 120.776 625.273C120.776 616.924 124.819 612.195 131.428 612.195C138.037 612.195 142.098 616.959 142.08 625.273C142.098 633.641 138.037 638.352 131.428 638.352ZM126.928 625.273C126.911 630.916 128.721 633.465 131.428 633.465C134.135 633.465 135.946 630.916 135.928 625.273C135.928 619.719 134.135 617.064 131.428 617.047C128.739 617.064 126.946 619.719 126.928 625.273ZM155.517 638.352C148.908 638.352 144.865 633.623 144.865 625.273C144.865 616.924 148.908 612.195 155.517 612.195C162.127 612.195 166.187 616.959 166.17 625.273C166.187 633.641 162.127 638.352 155.517 638.352ZM151.017 625.273C151 630.916 152.81 633.465 155.517 633.465C158.224 633.465 160.035 630.916 160.017 625.273C160.017 619.719 158.224 617.064 155.517 617.047C152.828 617.064 151.035 619.719 151.017 625.273ZM177.145 611.316C180.011 611.299 182.419 612.846 183.913 615.535H190.54V609.102H195.532V641.445H190.54V629.492H184.282C182.841 632.674 180.257 634.484 177.145 634.484C172.206 634.484 168.655 630.02 168.673 622.848C168.655 615.781 172.206 611.299 177.145 611.316ZM173.524 622.848C173.507 627.541 174.983 629.879 177.145 629.879C179.343 629.879 180.766 627.541 180.766 622.848C180.766 618.242 179.343 615.869 177.145 615.887C174.983 615.869 173.507 618.242 173.524 622.848ZM185.319 619.613C185.495 620.615 185.583 621.705 185.583 622.848C185.583 623.779 185.53 624.658 185.407 625.484H190.54V619.613H185.319ZM226.723 609.102V641.375H221.906V625.133H219.41V640.004H214.734V609.945H219.41V621.055H221.906V609.102H226.723ZM198.316 631.355C204.574 627.611 207.316 623.234 207.967 617.047H200.074V613.039H212.906C212.906 622.268 210.27 629.527 201.234 634.836L198.316 631.355Z" fill="#1784EA"/>
<circle cx="1067" cy="412" r="72" fill="url(#paint17_linear_17_877)" fill-opacity="0.16"/>
<path d="M1042.46 394.156V398.766H1044.2V400.609H1042.46V405.344H1040.21V394.156H1042.46ZM1030.73 402.312C1031.73 402.312 1032.88 402.305 1034.09 402.266V401.531C1032.56 401.289 1031.62 400.523 1031.62 399.422C1031.62 397.992 1033.03 397.164 1035.18 397.172C1037.32 397.164 1038.74 397.992 1038.74 399.422C1038.74 400.508 1037.81 401.273 1036.32 401.523V402.164C1037.44 402.094 1038.56 401.992 1039.62 401.844L1039.78 403.375C1036.78 403.953 1033.41 403.992 1030.96 404.031L1030.73 402.312ZM1031.1 396.844V395.25H1034.09V394.109H1036.32V395.25H1039.28V396.844H1031.1ZM1032.7 408.266V404.609H1034.96V406.469H1042.95V408.266H1032.7ZM1033.78 399.422C1033.77 399.875 1034.27 400.117 1035.18 400.125C1036.1 400.117 1036.59 399.875 1036.59 399.422C1036.59 398.883 1036.1 398.656 1035.18 398.656C1034.27 398.656 1033.77 398.883 1033.78 399.422ZM1050.02 397.906C1050.01 400.055 1051.01 402.57 1053.46 403.688L1052.21 405.453C1050.63 404.742 1049.55 403.367 1048.92 401.734C1048.29 403.547 1047.17 405.062 1045.52 405.828L1044.22 404.047C1046.72 402.898 1047.74 400.25 1047.74 397.906V397.344H1044.82V395.516H1052.8V397.344H1050.02V397.906ZM1053.71 408.5V394.156H1055.96V399.531H1057.99V401.391H1055.96V408.5H1053.71ZM1069 395.078V401.422H1062.05V395.078H1069ZM1062.89 406.734C1065.49 406.438 1066.72 405.5 1067.08 404.531H1063.51V402.766H1073.25V404.531H1069.72C1070.08 405.477 1071.33 406.445 1073.9 406.75L1073.09 408.469C1070.76 408.188 1069.2 407.305 1068.38 406.141C1067.56 407.305 1066.01 408.156 1063.69 408.422L1062.89 406.734ZM1064.26 399.641H1066.78V396.844H1064.26V399.641ZM1070.84 402.141V394.156H1073.09V397.172H1074.95V399H1073.09V402.141H1070.84ZM1088.42 400.984V402.734H1082.98V403.703H1086.85V408.344H1076.84V403.703H1080.73V402.734H1075.34V400.984H1088.42ZM1075.82 398.891C1078.99 398.727 1080.24 397.922 1080.52 397.109H1076.56V395.344H1080.73V394.203H1082.98V395.344H1087.17V397.109H1083.18C1083.47 397.922 1084.74 398.727 1087.89 398.891L1087.24 400.547C1084.53 400.383 1082.75 399.695 1081.85 398.656C1080.95 399.695 1079.17 400.383 1076.46 400.547L1075.82 398.891ZM1079.04 406.547H1084.67V405.484H1079.04V406.547ZM1096.96 395.391V397.156H1089.05V395.391H1091.99V394.031H1094.24V395.391H1096.96ZM1089.69 400.266C1089.69 398.672 1091.1 397.57 1093.08 397.562C1095.08 397.57 1096.52 398.672 1096.54 400.266C1096.52 401.867 1095.08 402.938 1093.08 402.938C1091.1 402.938 1089.69 401.867 1089.69 400.266ZM1091.24 405.969C1091.24 404.383 1093.15 403.43 1096.24 403.438C1099.3 403.43 1101.22 404.383 1101.23 405.969C1101.22 407.547 1099.3 408.516 1096.24 408.5C1093.15 408.516 1091.24 407.547 1091.24 405.969ZM1091.79 400.266C1091.79 400.961 1092.3 401.281 1093.08 401.281C1093.88 401.281 1094.44 400.961 1094.44 400.266C1094.44 399.57 1093.88 399.227 1093.08 399.234C1092.3 399.227 1091.79 399.57 1091.79 400.266ZM1093.62 405.969C1093.62 406.547 1094.51 406.82 1096.24 406.812C1097.92 406.82 1098.8 406.547 1098.8 405.969C1098.8 405.383 1097.92 405.133 1096.24 405.125C1094.51 405.133 1093.62 405.383 1093.62 405.969ZM1097.13 401.891V400.094H1098.91V399H1097.18V397.203H1098.91V394.156H1101.15V403.25H1098.91V401.891H1097.13ZM1031.51 420.922C1031.51 422.562 1032.43 424.312 1034.85 425.031L1033.7 426.781C1032.13 426.297 1031.05 425.328 1030.41 424.102C1029.75 425.438 1028.63 426.516 1026.96 427.047L1025.81 425.281C1028.26 424.523 1029.22 422.664 1029.23 420.922H1026.4V419.125H1034.26V420.922H1031.51ZM1028.12 432.266V427.562H1030.4V430.469H1038.2V432.266H1028.12ZM1035.59 428.484V418.172H1037.84V428.484H1035.59ZM1050.88 418.172V421.969H1052.76V423.812H1050.88V428.531H1048.63V418.172H1050.88ZM1039.97 426.219V419.281H1046.46V421.062H1042.22V424.422C1044.72 424.398 1046.08 424.312 1047.58 423.984L1047.82 425.781C1046.08 426.141 1044.44 426.219 1041.21 426.219H1039.97ZM1041.47 432.266V427.391H1043.72V430.469H1051.35V432.266H1041.47ZM1065.6 418.156V432.5H1063.44V418.156H1065.6ZM1053.24 424.375C1053.23 421.117 1054.46 419.125 1056.36 419.125C1057.56 419.125 1058.49 419.891 1059.03 421.25H1060.52V418.344H1062.64V431.859H1060.52V427.516H1059.04C1058.5 428.883 1057.56 429.656 1056.36 429.656C1054.46 429.656 1053.23 427.656 1053.24 424.375ZM1055.27 424.375C1055.26 426.539 1055.63 427.5 1056.36 427.5C1057.09 427.5 1057.51 426.539 1057.52 424.375C1057.51 422.227 1057.08 421.25 1056.36 421.25C1055.63 421.25 1055.26 422.227 1055.27 424.375ZM1059.47 423.031C1059.53 423.453 1059.55 423.898 1059.55 424.375C1059.55 424.836 1059.53 425.273 1059.48 425.688H1060.52V423.031H1059.47ZM1073.48 426.875C1076.48 426.859 1078.36 427.898 1078.36 429.672C1078.36 431.469 1076.48 432.523 1073.48 432.531C1070.43 432.523 1068.52 431.469 1068.53 429.672C1068.52 427.898 1070.43 426.859 1073.48 426.875ZM1067.17 425.828V419.062H1069.39V420.766H1071.94V419.062H1074.19V425.828H1067.17ZM1069.39 424.078H1071.94V422.484H1069.39V424.078ZM1070.78 429.672C1070.77 430.43 1071.7 430.781 1073.48 430.781C1075.25 430.781 1076.13 430.43 1076.14 429.672C1076.13 428.922 1075.25 428.602 1073.48 428.594C1071.7 428.602 1070.77 428.922 1070.78 429.672ZM1075.97 426.562V418.156H1078.22V421.406H1080.08V423.266H1078.22V426.562H1075.97ZM1092.82 418.156V428.891H1090.68V418.156H1092.82ZM1080.21 425.391C1082.21 424.422 1082.88 422.594 1082.89 420.891V419.094H1085.07V420.891C1085.06 422.539 1085.67 424.156 1087.51 425.016L1086.28 426.75C1085.18 426.234 1084.46 425.398 1083.99 424.375C1083.49 425.547 1082.67 426.516 1081.45 427.078L1080.21 425.391ZM1083.01 432.266V427.641H1085.26V430.469H1093.17V432.266H1083.01ZM1086.18 423.156V421.328H1087.78V418.359H1089.9V428.453H1087.78V423.156H1086.18ZM1106.29 418.156V432.531H1104.07V424.906H1101.71V423.109H1104.07V418.156H1106.29ZM1094.79 429.359V419.328H1101.49V421.141H1097.04V423.312H1101.01V425.062H1097.04V427.523C1098.84 427.508 1100.39 427.438 1102.08 427.188L1102.3 428.969C1100.21 429.281 1098.3 429.344 1095.94 429.359H1094.79Z" fill="#097EEA"/>
<defs>
<filter id="filter0_d_17_877" x="188" y="87" width="228" height="74" filterUnits="userSpaceOnUse" color-interpolation-filters="sRGB">
<feFlood flood-opacity="0" result="BackgroundImageFix"/>
<feColorMatrix in="SourceAlpha" type="matrix" values="0 0 0 0 0 0 0 0 0 0 0 0 0 0 0 0 0 0 127 0" result="hardAlpha"/>
<feOffset dy="4"/>
<feGaussianBlur stdDeviation="2"/>
<feComposite in2="hardAlpha" operator="out"/>
<feColorMatrix type="matrix" values="0 0 0 0 0 0 0 0 0 0 0 0 0 0 0 0 0 0 0.25 0"/>
<feBlend mode="normal" in2="BackgroundImageFix" result="effect1_dropShadow_17_877"/>
<feBlend mode="normal" in="SourceGraphic" in2="effect1_dropShadow_17_877" result="shape"/>
</filter>
<filter id="filter1_d_17_877" x="857" y="103" width="228" height="74" filterUnits="userSpaceOnUse" color-interpolation-filters="sRGB">
<feFlood flood-opacity="0" result="BackgroundImageFix"/>
<feColorMatrix in="SourceAlpha" type="matrix" values="0 0 0 0 0 0 0 0 0 0 0 0 0 0 0 0 0 0 127 0" result="hardAlpha"/>
<feOffset dy="4"/>
<feGaussianBlur stdDeviation="2"/>
<feComposite in2="hardAlpha" operator="out"/>
<feColorMatrix type="matrix" values="0 0 0 0 0 0 0 0 0 0 0 0 0 0 0 0 0 0 0.25 0"/>
<feBlend mode="normal" in2="BackgroundImageFix" result="effect1_dropShadow_17_877"/>
<feBlend mode="normal" in="SourceGraphic" in2="effect1_dropShadow_17_877" result="shape"/>
</filter>
<filter id="filter2_d_17_877" x="874" y="582" width="228" height="74" filterUnits="userSpaceOnUse" color-interpolation-filters="sRGB">
<feFlood flood-opacity="0" result="BackgroundImageFix"/>
<feColorMatrix in="SourceAlpha" type="matrix" values="0 0 0 0 0 0 0 0 0 0 0 0 0 0 0 0 0 0 127 0" result="hardAlpha"/>
<feOffset dy="4"/>
<feGaussianBlur stdDeviation="2"/>
<feComposite in2="hardAlpha" operator="out"/>
<feColorMatrix type="matrix" values="0 0 0 0 0 0 0 0 0 0 0 0 0 0 0 0 0 0 0.25 0"/>
<feBlend mode="normal" in2="BackgroundImageFix" result="effect1_dropShadow_17_877"/>
<feBlend mode="normal" in="SourceGraphic" in2="effect1_dropShadow_17_877" result="shape"/>
</filter>
<filter id="filter3_d_17_877" x="37" y="590" width="228" height="74" filterUnits="userSpaceOnUse" color-interpolation-filters="sRGB">
<feFlood flood-opacity="0" result="BackgroundImageFix"/>
<feColorMatrix in="SourceAlpha" type="matrix" values="0 0 0 0 0 0 0 0 0 0 0 0 0 0 0 0 0 0 127 0" result="hardAlpha"/>
<feOffset dy="4"/>
<feGaussianBlur stdDeviation="2"/>
<feComposite in2="hardAlpha" operator="out"/>
<feColorMatrix type="matrix" values="0 0 0 0 0 0 0 0 0 0 0 0 0 0 0 0 0 0 0.25 0"/>
<feBlend mode="normal" in2="BackgroundImageFix" result="effect1_dropShadow_17_877"/>
<feBlend mode="normal" in="SourceGraphic" in2="effect1_dropShadow_17_877" result="shape"/>
</filter>
<radialGradient id="paint0_radial_17_877" cx="0" cy="0" r="1" gradientUnits="userSpaceOnUse" gradientTransform="translate(667.373 422.324) scale(288.571 288.329)">
<stop stop-color="#383C8D"/>
<stop offset="1" stop-color="#33368A"/>
</radialGradient>
<radialGradient id="paint1_radial_17_877" cx="0" cy="0" r="1" gradientUnits="userSpaceOnUse" gradientTransform="translate(661.793 421.265) scale(291.771 291.527)">
<stop stop-color="#434795"/>
<stop offset="0.3" stop-color="#3E4292"/>
<stop offset="1" stop-color="#383C8F"/>
</radialGradient>
<radialGradient id="paint2_radial_17_877" cx="0" cy="0" r="1" gradientUnits="userSpaceOnUse" gradientTransform="translate(656.232 420.246) scale(295.152 294.904)">
<stop stop-color="#4E529C"/>
<stop offset="0.47" stop-color="#444797"/>
<stop offset="1" stop-color="#3E4194"/>
</radialGradient>
<radialGradient id="paint3_radial_17_877" cx="0" cy="0" r="1" gradientUnits="userSpaceOnUse" gradientTransform="translate(650.672 419.346) scale(298.672 298.422)">
<stop stop-color="#595CA4"/>
<stop offset="0.55" stop-color="#494D9C"/>
<stop offset="1" stop-color="#434799"/>
</radialGradient>
<radialGradient id="paint4_radial_17_877" cx="0" cy="0" r="1" gradientUnits="userSpaceOnUse" gradientTransform="translate(645.131 418.587) scale(302.392 302.139)">
<stop stop-color="#6467AC"/>
<stop offset="0.06" stop-color="#6164AA"/>
<stop offset="0.61" stop-color="#4F52A1"/>
<stop offset="1" stop-color="#494C9E"/>
</radialGradient>
<radialGradient id="paint5_radial_17_877" cx="0" cy="0" r="1" gradientUnits="userSpaceOnUse" gradientTransform="translate(639.57 417.927) scale(306.293 306.036)">
<stop stop-color="#6F72B4"/>
<stop offset="0.18" stop-color="#6669AF"/>
<stop offset="0.66" stop-color="#5557A6"/>
<stop offset="1" stop-color="#4F51A3"/>
</radialGradient>
<radialGradient id="paint6_radial_17_877" cx="0" cy="0" r="1" gradientUnits="userSpaceOnUse" gradientTransform="translate(633.89 417.368) scale(310.293 310.033)">
<stop stop-color="#7B7DBB"/>
<stop offset="0.27" stop-color="#6C6FB4"/>
<stop offset="0.69" stop-color="#5A5DAB"/>
<stop offset="1" stop-color="#5457A8"/>
</radialGradient>
<radialGradient id="paint7_radial_17_877" cx="0" cy="0" r="1" gradientUnits="userSpaceOnUse" gradientTransform="translate(628.269 416.888) scale(314.434 314.17)">
<stop stop-color="#8688C3"/>
<stop offset="0.32" stop-color="#7274B9"/>
<stop offset="0.72" stop-color="#6062B0"/>
<stop offset="1" stop-color="#5A5CAD"/>
</radialGradient>
<radialGradient id="paint8_radial_17_877" cx="0" cy="0" r="1" gradientUnits="userSpaceOnUse" gradientTransform="translate(622.629 416.489) scale(318.814 318.547)">
<stop stop-color="#9193CB"/>
<stop offset="0.38" stop-color="#7879BE"/>
<stop offset="0.74" stop-color="#6667B5"/>
<stop offset="1" stop-color="#6061B2"/>
</radialGradient>
<radialGradient id="paint9_radial_17_877" cx="0" cy="0" r="1" gradientUnits="userSpaceOnUse" gradientTransform="translate(616.948 416.169) scale(323.335 323.064)">
<stop stop-color="#9C9DD3"/>
<stop offset="0.01" stop-color="#9B9CD2"/>
<stop offset="0.41" stop-color="#7D7FC3"/>
<stop offset="0.76" stop-color="#6B6DBA"/>
<stop offset="1" stop-color="#6567B7"/>
</radialGradient>
<radialGradient id="paint10_radial_17_877" cx="0" cy="0" r="1" gradientUnits="userSpaceOnUse" gradientTransform="translate(611.327 415.849) scale(327.935 327.66)">
<stop stop-color="#A7A8DA"/>
<stop offset="0.07" stop-color="#A1A2D7"/>
<stop offset="0.45" stop-color="#8384C8"/>
<stop offset="0.77" stop-color="#7172BF"/>
<stop offset="1" stop-color="#6B6CBC"/>
</radialGradient>
<radialGradient id="paint11_radial_17_877" cx="0" cy="0" r="1" gradientUnits="userSpaceOnUse" gradientTransform="translate(605.547 415.589) scale(332.736 332.457)">
<stop stop-color="#B2B3E2"/>
<stop offset="0.13" stop-color="#A6A7DC"/>
<stop offset="0.48" stop-color="#888ACD"/>
<stop offset="0.78" stop-color="#7678C4"/>
<stop offset="1" stop-color="#7072C1"/>
</radialGradient>
<radialGradient id="paint12_radial_17_877" cx="0" cy="0" r="1" gradientUnits="userSpaceOnUse" gradientTransform="translate(599.606 415.349) scale(337.596 337.313)">
<stop stop-color="#BDBEEA"/>
<stop offset="0.17" stop-color="#ACADE1"/>
<stop offset="0.5" stop-color="#8E8FD2"/>
<stop offset="0.79" stop-color="#7C7DC9"/>
<stop offset="1" stop-color="#7677C6"/>
</radialGradient>
<linearGradient id="paint13_linear_17_877" x1="625" y1="697" x2="625" y2="841" gradientUnits="userSpaceOnUse">
<stop stop-color="#1281E7"/>
<stop offset="1" stop-color="#0074E0" stop-opacity="0.2"/>
</linearGradient>
<linearGradient id="paint14_linear_17_877" x1="623" y1="6" x2="623" y2="150" gradientUnits="userSpaceOnUse">
<stop stop-color="#1281E7"/>
<stop offset="1" stop-color="#0074E0" stop-opacity="0.2"/>
</linearGradient>
<linearGradient id="paint15_linear_17_877" x1="147" y1="268" x2="147" y2="412" gradientUnits="userSpaceOnUse">
<stop stop-color="#1281E7"/>
<stop offset="1" stop-color="#0074E0" stop-opacity="0.2"/>
</linearGradient>
<radialGradient id="paint16_radial_17_877" cx="0" cy="0" r="1" gradientUnits="userSpaceOnUse" gradientTransform="translate(633.579 426.272) scale(507.8 507.635)">
<stop stop-color="#BDBEEA"/>
<stop offset="0.17" stop-color="#ACADE1"/>
<stop offset="0.5" stop-color="#8E8FD2"/>
<stop offset="0.79" stop-color="#7C7DC9"/>
<stop offset="1" stop-color="#7677C6"/>
</radialGradient>
<linearGradient id="paint17_linear_17_877" x1="1067" y1="340" x2="1067" y2="484" gradientUnits="userSpaceOnUse">
<stop stop-color="#1281E7"/>
<stop offset="1" stop-color="#0074E0" stop-opacity="0.2"/>
</linearGradient>
<clipPath id="clip0_17_877">
<rect width="842" height="507" fill="white" transform="translate(195 162)"/>
</clipPath>
<clipPath id="clip1_17_877">
<rect width="340" height="73" fill="white" transform="translate(467 359)"/>
</clipPath>
</defs>
</svg>
