<svg width="89" height="18" viewBox="0 0 89 18" fill="none" xmlns="http://www.w3.org/2000/svg">
<path d="M14.8984 6.20682L10.7328 5.55819L8.8707 1.51346C8.81984 1.40272 8.73617 1.31307 8.63281 1.25858C8.37359 1.12147 8.05859 1.23572 7.92898 1.51346L6.06687 5.55819L1.90133 6.20682C1.78648 6.2244 1.68148 6.2824 1.60109 6.3703C1.5039 6.47732 1.45035 6.62131 1.45219 6.77062C1.45404 6.91993 1.51114 7.06235 1.61094 7.16658L4.62476 10.3148L3.91273 14.7603C3.89603 14.8637 3.90672 14.9701 3.94356 15.0673C3.98041 15.1646 4.04195 15.2488 4.1212 15.3105C4.20046 15.3722 4.29425 15.4088 4.39196 15.4163C4.48966 15.4237 4.58736 15.4017 4.67398 15.3527L8.39984 13.2539L12.1257 15.3527C12.2274 15.4107 12.3455 15.4301 12.4587 15.409C12.7442 15.3562 12.9362 15.0662 12.887 14.7603L12.1749 10.3148L15.1887 7.16658C15.2708 7.08045 15.3249 6.96795 15.3413 6.8449C15.3856 6.53729 15.1855 6.25252 14.8984 6.20682V6.20682Z" fill="#D8D8DD"/>
<mask id="mask0_3_414" style="mask-type:alpha" maskUnits="userSpaceOnUse" x="1" y="1" width="15" height="15">
<path d="M14.8984 6.20682L10.7328 5.55819L8.8707 1.51346C8.81984 1.40272 8.73617 1.31307 8.63281 1.25858C8.37359 1.12147 8.05859 1.23572 7.92898 1.51346L6.06687 5.55819L1.90133 6.20682C1.78648 6.2244 1.68148 6.2824 1.60109 6.37029C1.5039 6.47732 1.45035 6.62131 1.45219 6.77062C1.45404 6.91993 1.51114 7.06235 1.61094 7.16658L4.62476 10.3148L3.91273 14.7603C3.89603 14.8637 3.90672 14.9701 3.94356 15.0673C3.98041 15.1646 4.04195 15.2488 4.1212 15.3105C4.20046 15.3722 4.29425 15.4088 4.39196 15.4163C4.48966 15.4237 4.58736 15.4017 4.67398 15.3527L8.39984 13.2539L12.1257 15.3527C12.2274 15.4107 12.3455 15.4301 12.4587 15.409C12.7442 15.3562 12.9362 15.0662 12.887 14.7603L12.1749 10.3148L15.1887 7.16658C15.2708 7.08045 15.3249 6.96795 15.3413 6.8449C15.3856 6.53729 15.1855 6.25252 14.8984 6.20682Z" fill="#F4CD0C"/>
</mask>
<g mask="url(#mask0_3_414)">
<rect x="-9" width="66" height="75" fill="#F4B30C"/>
</g>
<path d="M32.7621 6.20682L28.299 5.55819L26.3039 1.51346C26.2494 1.40272 26.1598 1.31307 26.049 1.25858C25.7713 1.12147 25.4338 1.23572 25.2949 1.51346L23.2998 5.55819L18.8367 6.20682C18.7137 6.2244 18.6012 6.2824 18.5151 6.3703C18.4109 6.47732 18.3535 6.62131 18.3555 6.77062C18.3575 6.91993 18.4187 7.06235 18.5256 7.16658L21.7547 10.3148L20.9918 14.7603C20.9739 14.8637 20.9854 14.9701 21.0248 15.0673C21.0643 15.1646 21.1303 15.2488 21.2152 15.3105C21.3001 15.3722 21.4006 15.4088 21.5053 15.4163C21.6099 15.4237 21.7146 15.4017 21.8074 15.3527L25.7994 13.2539L29.7914 15.3527C29.9004 15.4107 30.027 15.4301 30.1483 15.409C30.4541 15.3562 30.6598 15.0662 30.607 14.7603L29.8442 10.3148L33.0733 7.16658C33.1611 7.08045 33.2192 6.96795 33.2367 6.8449C33.2842 6.53729 33.0697 6.25252 32.7621 6.20682V6.20682Z" fill="#D8D8DD"/>
<mask id="mask1_3_414" style="mask-type:alpha" maskUnits="userSpaceOnUse" x="18" y="1" width="16" height="15">
<path d="M32.7621 6.20682L28.299 5.55819L26.3039 1.51346C26.2494 1.40272 26.1598 1.31307 26.049 1.25858C25.7713 1.12147 25.4338 1.23572 25.2949 1.51346L23.2998 5.55819L18.8367 6.20682C18.7137 6.2244 18.6012 6.2824 18.5151 6.37029C18.4109 6.47732 18.3535 6.62131 18.3555 6.77062C18.3575 6.91993 18.4187 7.06235 18.5256 7.16658L21.7547 10.3148L20.9918 14.7603C20.9739 14.8637 20.9854 14.9701 21.0248 15.0673C21.0643 15.1646 21.1303 15.2488 21.2152 15.3105C21.3001 15.3722 21.4006 15.4088 21.5053 15.4163C21.6099 15.4237 21.7146 15.4017 21.8074 15.3527L25.7994 13.2539L29.7914 15.3527C29.9004 15.4107 30.027 15.4301 30.1483 15.409C30.4541 15.3562 30.6598 15.0662 30.607 14.7603L29.8442 10.3148L33.0733 7.16658C33.1611 7.08045 33.2192 6.96795 33.2367 6.8449C33.2842 6.53729 33.0697 6.25252 32.7621 6.20682Z" fill="#F4CD0C"/>
</mask>
<g mask="url(#mask1_3_414)">
<rect x="7.7998" width="66" height="75" fill="#F4B30C"/>
</g>
<path d="M50.7621 6.20682L46.299 5.55819L44.3039 1.51346C44.2494 1.40272 44.1598 1.31307 44.049 1.25858C43.7713 1.12147 43.4338 1.23572 43.2949 1.51346L41.2998 5.55819L36.8367 6.20682C36.7137 6.2244 36.6012 6.2824 36.5151 6.3703C36.4109 6.47732 36.3535 6.62131 36.3555 6.77062C36.3575 6.91993 36.4187 7.06235 36.5256 7.16658L39.7547 10.3148L38.9918 14.7603C38.9739 14.8637 38.9854 14.9701 39.0248 15.0673C39.0643 15.1646 39.1303 15.2488 39.2152 15.3105C39.3001 15.3722 39.4006 15.4088 39.5053 15.4163C39.6099 15.4237 39.7146 15.4017 39.8074 15.3527L43.7994 13.2539L47.7914 15.3527C47.9004 15.4107 48.027 15.4301 48.1483 15.409C48.4541 15.3562 48.6598 15.0662 48.607 14.7603L47.8442 10.3148L51.0733 7.16658C51.1611 7.08045 51.2192 6.96795 51.2367 6.8449C51.2842 6.53729 51.0697 6.25252 50.7621 6.20682V6.20682Z" fill="#D8D8DD"/>
<mask id="mask2_3_414" style="mask-type:alpha" maskUnits="userSpaceOnUse" x="36" y="1" width="16" height="15">
<path d="M50.7621 6.20682L46.299 5.55819L44.3039 1.51346C44.2494 1.40272 44.1598 1.31307 44.049 1.25858C43.7713 1.12147 43.4338 1.23572 43.2949 1.51346L41.2998 5.55819L36.8367 6.20682C36.7137 6.2244 36.6012 6.2824 36.5151 6.37029C36.4109 6.47732 36.3535 6.62131 36.3555 6.77062C36.3575 6.91993 36.4187 7.06235 36.5256 7.16658L39.7547 10.3148L38.9918 14.7603C38.9739 14.8637 38.9854 14.9701 39.0248 15.0673C39.0643 15.1646 39.1303 15.2488 39.2152 15.3105C39.3001 15.3722 39.4006 15.4088 39.5053 15.4163C39.6099 15.4237 39.7146 15.4017 39.8074 15.3527L43.7994 13.2539L47.7914 15.3527C47.9004 15.4107 48.027 15.4301 48.1483 15.409C48.4541 15.3562 48.6598 15.0662 48.607 14.7603L47.8442 10.3148L51.0733 7.16658C51.1611 7.08045 51.2192 6.96795 51.2367 6.8449C51.2842 6.53729 51.0697 6.25252 50.7621 6.20682Z" fill="#F4CD0C"/>
</mask>
<g mask="url(#mask2_3_414)">
<rect x="25.7998" width="66" height="75" fill="#F4B30C"/>
</g>
<path d="M68.7621 6.20682L64.299 5.55819L62.3039 1.51346C62.2494 1.40272 62.1598 1.31307 62.049 1.25858C61.7713 1.12147 61.4338 1.23572 61.2949 1.51346L59.2998 5.55819L54.8367 6.20682C54.7137 6.2244 54.6012 6.2824 54.5151 6.3703C54.4109 6.47732 54.3535 6.62131 54.3555 6.77062C54.3575 6.91993 54.4187 7.06235 54.5256 7.16658L57.7547 10.3148L56.9918 14.7603C56.9739 14.8637 56.9854 14.9701 57.0248 15.0673C57.0643 15.1646 57.1303 15.2488 57.2152 15.3105C57.3001 15.3722 57.4006 15.4088 57.5053 15.4163C57.6099 15.4237 57.7146 15.4017 57.8074 15.3527L61.7994 13.2539L65.7914 15.3527C65.9004 15.4107 66.027 15.4301 66.1483 15.409C66.4541 15.3562 66.6598 15.0662 66.607 14.7603L65.8442 10.3148L69.0733 7.16658C69.1611 7.08045 69.2192 6.96795 69.2367 6.8449C69.2842 6.53729 69.0697 6.25252 68.7621 6.20682V6.20682Z" fill="#D8D8DD"/>
<mask id="mask3_3_414" style="mask-type:alpha" maskUnits="userSpaceOnUse" x="54" y="1" width="16" height="15">
<path d="M68.7621 6.20682L64.299 5.55819L62.3039 1.51346C62.2494 1.40272 62.1598 1.31307 62.049 1.25858C61.7713 1.12147 61.4338 1.23572 61.2949 1.51346L59.2998 5.55819L54.8367 6.20682C54.7137 6.2244 54.6012 6.2824 54.5151 6.37029C54.4109 6.47732 54.3535 6.62131 54.3555 6.77062C54.3575 6.91993 54.4187 7.06235 54.5256 7.16658L57.7547 10.3148L56.9918 14.7603C56.9739 14.8637 56.9854 14.9701 57.0248 15.0673C57.0643 15.1646 57.1303 15.2488 57.2152 15.3105C57.3001 15.3722 57.4006 15.4088 57.5053 15.4163C57.6099 15.4237 57.7146 15.4017 57.8074 15.3527L61.7994 13.2539L65.7914 15.3527C65.9004 15.4107 66.027 15.4301 66.1483 15.409C66.4541 15.3562 66.6598 15.0662 66.607 14.7603L65.8442 10.3148L69.0733 7.16658C69.1611 7.08045 69.2192 6.96795 69.2367 6.8449C69.2842 6.53729 69.0697 6.25252 68.7621 6.20682Z" fill="#F4CD0C"/>
</mask>
<g mask="url(#mask3_3_414)">
<rect x="43.7998" width="66" height="75" fill="#F4B30C"/>
</g>
<path d="M86.7621 6.20682L82.299 5.55819L80.3039 1.51346C80.2494 1.40272 80.1598 1.31307 80.049 1.25858C79.7713 1.12147 79.4338 1.23572 79.2949 1.51346L77.2998 5.55819L72.8367 6.20682C72.7137 6.2244 72.6012 6.2824 72.5151 6.3703C72.4109 6.47732 72.3535 6.62131 72.3555 6.77062C72.3575 6.91993 72.4187 7.06235 72.5256 7.16658L75.7547 10.3148L74.9918 14.7603C74.9739 14.8637 74.9854 14.9701 75.0248 15.0673C75.0643 15.1646 75.1303 15.2488 75.2152 15.3105C75.3001 15.3722 75.4006 15.4088 75.5053 15.4163C75.6099 15.4237 75.7146 15.4017 75.8074 15.3527L79.7994 13.2539L83.7914 15.3527C83.9004 15.4107 84.027 15.4301 84.1483 15.409C84.4541 15.3562 84.6598 15.0662 84.607 14.7603L83.8442 10.3148L87.0733 7.16658C87.1611 7.08045 87.2192 6.96795 87.2367 6.8449C87.2842 6.53729 87.0697 6.25252 86.7621 6.20682V6.20682Z" fill="#D8D8DD"/>
<mask id="mask4_3_414" style="mask-type:alpha" maskUnits="userSpaceOnUse" x="72" y="1" width="16" height="15">
<path d="M86.7621 6.20682L82.299 5.55819L80.3039 1.51346C80.2494 1.40272 80.1598 1.31307 80.049 1.25858C79.7713 1.12147 79.4338 1.23572 79.2949 1.51346L77.2998 5.55819L72.8367 6.20682C72.7137 6.2244 72.6012 6.2824 72.5151 6.37029C72.4109 6.47732 72.3535 6.62131 72.3555 6.77062C72.3575 6.91993 72.4187 7.06235 72.5256 7.16658L75.7547 10.3148L74.9918 14.7603C74.9739 14.8637 74.9854 14.9701 75.0248 15.0673C75.0643 15.1646 75.1303 15.2488 75.2152 15.3105C75.3001 15.3722 75.4006 15.4088 75.5053 15.4163C75.6099 15.4237 75.7146 15.4017 75.8074 15.3527L79.7994 13.2539L83.7914 15.3527C83.9004 15.4107 84.027 15.4301 84.1483 15.409C84.4541 15.3562 84.6598 15.0662 84.607 14.7603L83.8442 10.3148L87.0733 7.16658C87.1611 7.08045 87.2192 6.96795 87.2367 6.8449C87.2842 6.53729 87.0697 6.25252 86.7621 6.20682Z" fill="#F4CD0C"/>
</mask>
<g mask="url(#mask4_3_414)">
<rect x="61.7998" width="66" height="75" fill="#F4B30C"/>
</g>
</svg>
