<svg width="17" height="18" viewBox="0 0 17 18" fill="none" xmlns="http://www.w3.org/2000/svg">
<path d="M14.8984 6.20682L10.7328 5.55819L8.8707 1.51346C8.81984 1.40272 8.73617 1.31307 8.63281 1.25858C8.37359 1.12147 8.05859 1.23572 7.92898 1.51346L6.06687 5.55819L1.90133 6.20682C1.78648 6.2244 1.68148 6.2824 1.60109 6.3703C1.5039 6.47732 1.45035 6.62131 1.45219 6.77062C1.45404 6.91993 1.51114 7.06235 1.61094 7.16658L4.62476 10.3148L3.91273 14.7603C3.89603 14.8637 3.90672 14.9701 3.94356 15.0673C3.98041 15.1646 4.04195 15.2488 4.1212 15.3105C4.20046 15.3722 4.29425 15.4088 4.39196 15.4163C4.48966 15.4237 4.58736 15.4017 4.67398 15.3527L8.39984 13.2539L12.1257 15.3527C12.2274 15.4107 12.3455 15.4301 12.4587 15.409C12.7442 15.3562 12.9362 15.0662 12.887 14.7603L12.1749 10.3148L15.1887 7.16658C15.2708 7.08045 15.3249 6.96795 15.3413 6.8449C15.3856 6.53729 15.1855 6.25252 14.8984 6.20682V6.20682Z" fill="#D8D8DD"/>
<mask id="mask0_3_440" style="mask-type:alpha" maskUnits="userSpaceOnUse" x="1" y="1" width="15" height="15">
<path d="M14.8984 6.20682L10.7328 5.55819L8.8707 1.51346C8.81984 1.40272 8.73617 1.31307 8.63281 1.25858C8.37359 1.12147 8.05859 1.23572 7.92898 1.51346L6.06687 5.55819L1.90133 6.20682C1.78648 6.2244 1.68148 6.2824 1.60109 6.37029C1.5039 6.47732 1.45035 6.62131 1.45219 6.77062C1.45404 6.91993 1.51114 7.06235 1.61094 7.16658L4.62476 10.3148L3.91273 14.7603C3.89603 14.8637 3.90672 14.9701 3.94356 15.0673C3.98041 15.1646 4.04195 15.2488 4.1212 15.3105C4.20046 15.3722 4.29425 15.4088 4.39196 15.4163C4.48966 15.4237 4.58736 15.4017 4.67398 15.3527L8.39984 13.2539L12.1257 15.3527C12.2274 15.4107 12.3455 15.4301 12.4587 15.409C12.7442 15.3562 12.9362 15.0662 12.887 14.7603L12.1749 10.3148L15.1887 7.16658C15.2708 7.08045 15.3249 6.96795 15.3413 6.8449C15.3856 6.53729 15.1855 6.25252 14.8984 6.20682Z" fill="#F4CD0C"/>
</mask>
<g mask="url(#mask0_3_440)">
<rect x="-9" width="66" height="75" fill="#F4B30C"/>
</g>
</svg>
