<svg width="96" height="100" viewBox="0 0 96 100" fill="none" xmlns="http://www.w3.org/2000/svg">
<g clip-path="url(#clip0_12_515)">
<path d="M64.5632 30.56C59.8803 32.655 54.696 33.83 49.2409 33.83C43.7859 33.83 38.6016 32.655 33.9186 30.56L49.2409 0L64.5632 30.56ZM12.675 72.93L18.6966 60.92C23.6553 62.88 27.3054 67.455 27.912 72.93H12.675ZM54.4202 70.23L42.7029 46.86L30.81 70.575C29.5064 64.87 25.4753 60.195 20.1556 57.995L32.4496 33.47C37.5737 35.785 43.2544 37.085 49.2309 37.085C55.2074 37.085 60.8881 35.785 66.0122 33.47L71.6578 44.73C62.4073 49.925 55.804 59.275 54.4102 70.225L54.4202 70.23ZM57.4486 72.93C58.0151 62.1 64.1922 52.73 73.1269 47.655L77.3184 56.02L68.84 72.935H57.4486V72.93ZM72.4951 72.93L79.1485 59.66L85.8018 72.93H72.4951Z" fill="white"/>
<path d="M14.4399 99.7605H11.0304L9.32574 95.8705H4.04617L2.26124 99.7605H0L7.36032 83.5005L14.4399 99.7605ZM4.67791 94.5455H8.76419L6.74863 89.9405L4.6729 94.5455H4.67791Z" fill="white"/>
<path d="M22.467 92.405C22.467 92.13 22.4369 91.89 22.3818 91.675C22.3266 91.46 22.2464 91.28 22.1512 91.14C22.0559 90.995 21.9456 90.89 21.8202 90.815C21.6949 90.74 21.5695 90.705 21.4342 90.705C21.2988 90.705 21.1484 90.735 20.9729 90.79C20.7974 90.845 20.6169 90.925 20.4264 91.025C20.2359 91.125 20.0403 91.25 19.8398 91.4C19.6392 91.55 19.4487 91.71 19.2682 91.895V99.765H16.1396V89.97L19.2682 88.77V89.865C19.7495 89.5 20.2609 89.23 20.8125 89.06C21.359 88.89 21.9055 88.8 22.447 88.8C22.8681 88.8 23.2692 88.885 23.6453 89.06C24.0213 89.23 24.3522 89.465 24.638 89.76C24.9238 90.055 25.1494 90.4 25.3149 90.795C25.4803 91.19 25.5656 91.615 25.5656 92.065V99.765H22.467V92.41V92.405Z" fill="white"/>
<path d="M28.5388 85.23C28.5388 85.015 28.5839 84.805 28.6691 84.61C28.7544 84.415 28.8747 84.245 29.0301 84.105C29.1856 83.965 29.361 83.855 29.5616 83.77C29.7622 83.685 29.9777 83.645 30.2134 83.645C30.449 83.645 30.6646 83.685 30.8702 83.77C31.0758 83.855 31.2513 83.965 31.4017 84.105C31.5521 84.245 31.6724 84.415 31.7577 84.61C31.8429 84.805 31.888 85.015 31.888 85.23C31.888 85.445 31.8429 85.655 31.7577 85.845C31.6724 86.04 31.5521 86.205 31.4017 86.345C31.2513 86.485 31.0758 86.595 30.8702 86.68C30.6646 86.765 30.449 86.805 30.2134 86.805C29.9777 86.805 29.7622 86.765 29.5616 86.68C29.361 86.595 29.1856 86.485 29.0301 86.345C28.8747 86.205 28.7544 86.04 28.6691 85.845C28.5839 85.65 28.5388 85.445 28.5388 85.23ZM28.6691 89.965L31.7877 88.765V99.755H28.6691V89.96V89.965Z" fill="white"/>
<path d="M35.0818 84.6951L38.2105 83.4951V89.7351C38.6116 89.4601 39.0478 89.2351 39.5241 89.0601C40.0004 88.8851 40.4567 88.7951 40.8979 88.7951C41.5397 88.7951 42.1313 88.9251 42.6728 89.1801C43.2143 89.4351 43.6806 89.7851 44.0767 90.2201C44.4728 90.6601 44.7786 91.1701 44.9992 91.7501C45.2198 92.3301 45.3301 92.9501 45.3301 93.6001C45.3301 94.1751 45.2599 94.7301 45.1196 95.2651C44.9792 95.8001 44.7786 96.3051 44.5229 96.7751C44.2672 97.2451 43.9563 97.6751 43.5953 98.0701C43.2344 98.4651 42.8332 98.8001 42.392 99.0751C41.9508 99.3501 41.4795 99.5701 40.9731 99.7201C40.4667 99.8751 39.9403 99.9501 39.3937 99.9501C38.5865 99.9501 37.8144 99.8351 37.0723 99.6101C36.3353 99.3801 35.6735 99.0201 35.0818 98.5201V84.6901V84.6951ZM38.2105 97.8101C38.3158 97.9101 38.4261 98.0051 38.5414 98.0951C38.6567 98.1851 38.777 98.2651 38.9024 98.3351C39.0277 98.4051 39.1681 98.4601 39.3135 98.5051C39.4589 98.5451 39.6194 98.5701 39.7949 98.5701C40.1408 98.5701 40.4567 98.4601 40.7425 98.2401C41.0283 98.0201 41.2689 97.7151 41.4745 97.3251C41.6801 96.9351 41.8355 96.4751 41.9458 95.9451C42.0561 95.4151 42.1113 94.8451 42.1113 94.2351C42.1113 93.7801 42.0561 93.3501 41.9408 92.9451C41.8255 92.5401 41.67 92.1901 41.4745 91.8851C41.279 91.5801 41.0433 91.3401 40.7776 91.1651C40.5118 90.9901 40.226 90.9001 39.9252 90.9001C39.6244 90.9001 39.3386 90.9901 39.0227 91.1701C38.7069 91.3501 38.4361 91.5751 38.2105 91.8501V97.8151V97.8101Z" fill="white"/>
<path d="M47.5462 85.23C47.5462 85.015 47.5914 84.805 47.6766 84.61C47.7618 84.415 47.8822 84.245 48.0376 84.105C48.193 83.965 48.3685 83.855 48.5691 83.77C48.7696 83.685 48.9852 83.645 49.2209 83.645C49.4565 83.645 49.6721 83.685 49.8777 83.77C50.0832 83.855 50.2587 83.965 50.4091 84.105C50.5596 84.245 50.6799 84.415 50.7651 84.61C50.8504 84.805 50.8955 85.015 50.8955 85.23C50.8955 85.445 50.8504 85.655 50.7651 85.845C50.6799 86.04 50.5596 86.205 50.4091 86.345C50.2587 86.485 50.0832 86.595 49.8777 86.68C49.6721 86.765 49.4565 86.805 49.2209 86.805C48.9852 86.805 48.7696 86.765 48.5691 86.68C48.3685 86.595 48.193 86.485 48.0376 86.345C47.8822 86.205 47.7618 86.04 47.6766 85.845C47.5914 85.65 47.5462 85.445 47.5462 85.23ZM47.6766 89.965L50.7952 88.765V99.755H47.6766V89.96V89.965Z" fill="white"/>
<path d="M58.7923 99.9603C57.975 99.9603 57.223 99.8203 56.531 99.5403C55.8391 99.2603 55.2425 98.8753 54.7361 98.3853C54.2297 97.8953 53.8386 97.3153 53.5528 96.6553C53.267 95.9903 53.1266 95.2753 53.1266 94.5053C53.1266 93.6803 53.267 92.9153 53.5528 92.2153C53.8386 91.5153 54.2297 90.9153 54.7311 90.4103C55.2325 89.9053 55.8291 89.5103 56.521 89.2253C57.2129 88.9403 57.965 88.8003 58.7823 88.8003C59.5995 88.8003 60.3516 88.9403 61.0485 89.2153C61.7454 89.4903 62.3421 89.8703 62.8485 90.3553C63.3549 90.8403 63.751 91.4103 64.0368 92.0653C64.3226 92.7203 64.468 93.4253 64.468 94.1853C64.468 94.9453 64.3276 95.7253 64.0418 96.4253C63.756 97.1253 63.3649 97.7403 62.8585 98.2603C62.3521 98.7853 61.7555 99.1953 61.0585 99.5003C60.3616 99.8053 59.6095 99.9603 58.7923 99.9603ZM59.1533 98.6453C59.4341 98.6453 59.6948 98.5503 59.9354 98.3553C60.1761 98.1603 60.3867 97.9053 60.5622 97.5753C60.7377 97.2503 60.878 96.8703 60.9733 96.4453C61.0686 96.0153 61.1187 95.5703 61.1187 95.1103C61.1187 94.4253 61.0686 93.7753 60.9733 93.1703C60.878 92.5653 60.7176 92.0303 60.497 91.5753C60.2764 91.1203 59.9906 90.7603 59.6396 90.4903C59.2887 90.2253 58.8575 90.0903 58.3511 90.0903C58.1054 90.0903 57.8647 90.1853 57.6391 90.3753C57.4135 90.5653 57.2129 90.8203 57.0374 91.1403C56.862 91.4603 56.7266 91.8253 56.6213 92.2453C56.516 92.6603 56.4659 93.1003 56.4659 93.5653C56.4659 94.2603 56.526 94.9153 56.6514 95.5303C56.7767 96.1453 56.9522 96.6853 57.1828 97.1453C57.4135 97.6053 57.6943 97.9703 58.0252 98.2403C58.3561 98.5103 58.7321 98.6453 59.1533 98.6453Z" fill="white"/>
<path d="M79.715 92.4599C79.715 92.2199 79.685 91.9949 79.6298 91.7799C79.5746 91.5649 79.4944 91.3799 79.3941 91.2199C79.2939 91.0599 79.1785 90.9349 79.0432 90.8399C78.9078 90.7449 78.7674 90.6999 78.612 90.6999C78.4315 90.6999 78.246 90.7299 78.0504 90.7949C77.8549 90.8599 77.6644 90.9399 77.4738 91.0449C77.2833 91.1499 77.1028 91.2749 76.9374 91.4149C76.7719 91.5549 76.6215 91.7049 76.4962 91.8549V99.7549H73.4176V92.4549C73.4176 92.2149 73.3876 91.9899 73.3274 91.7749C73.2672 91.5599 73.187 91.3749 73.0817 91.2149C72.9764 91.0549 72.8611 90.9299 72.7257 90.8349C72.5904 90.7399 72.455 90.6949 72.3146 90.6949C72.1491 90.6949 71.9687 90.7249 71.7781 90.7899C71.5876 90.8549 71.3971 90.9349 71.2065 91.0399C71.016 91.1449 70.8305 91.2699 70.655 91.4099C70.4795 91.5499 70.3191 91.6999 70.1787 91.8499V99.7499H67.0701V89.9549L70.1787 88.7549V89.9249C70.6651 89.5749 71.1714 89.2999 71.6979 89.0949C72.2244 88.8899 72.7257 88.7899 73.2071 88.7899C73.4728 88.7899 73.7435 88.8199 74.0143 88.8849C74.285 88.9499 74.5458 89.0399 74.7965 89.1549C75.0471 89.2699 75.2778 89.4099 75.4934 89.5749C75.709 89.7399 75.8895 89.9249 76.0449 90.1399C76.2806 89.9449 76.5363 89.7599 76.817 89.5949C77.0978 89.4299 77.3936 89.2849 77.7045 89.1699C78.0153 89.0549 78.3312 88.9649 78.6571 88.8949C78.983 88.8299 79.3039 88.7949 79.6248 88.7949C80.061 88.7949 80.4721 88.8849 80.8632 89.0599C81.2543 89.2349 81.5952 89.4749 81.891 89.7849C82.1869 90.0949 82.4175 90.4549 82.593 90.8699C82.7685 91.2849 82.8537 91.7299 82.8537 92.2049V99.7599H79.715V92.4599Z" fill="white"/>
<path d="M90.7756 100C90.0486 100 89.3617 99.8603 88.7199 99.5753C88.0782 99.2903 87.5216 98.9103 87.0453 98.4303C86.569 97.9503 86.1929 97.3903 85.9172 96.7553C85.6414 96.1203 85.501 95.4503 85.501 94.7403C85.501 93.8903 85.6264 93.1053 85.8821 92.3803C86.1378 91.6553 86.4988 91.0253 86.9651 90.4903C87.4314 89.9553 87.9929 89.5403 88.6447 89.2453C89.2965 88.9453 90.0235 88.8003 90.8257 88.8003C91.5427 88.8003 92.1945 88.9203 92.7912 89.1603C93.3878 89.4003 93.8942 89.7253 94.3204 90.1403C94.7466 90.5553 95.0725 91.0403 95.3081 91.6003C95.5438 92.1603 95.6591 92.7603 95.6591 93.4003H88.5545C88.5795 93.9953 88.6648 94.5653 88.8102 95.1053C88.9556 95.6453 89.1461 96.1203 89.3868 96.5303C89.6274 96.9403 89.9082 97.2653 90.2341 97.5103C90.56 97.7503 90.916 97.8753 91.3121 97.8753C91.653 97.8753 91.9889 97.8153 92.3199 97.6903C92.6508 97.5653 92.9566 97.4003 93.2374 97.1853C93.5182 96.9703 93.7638 96.7203 93.9694 96.4403C94.175 96.1553 94.3254 95.8503 94.4207 95.5203L96.005 95.7853C95.8446 96.3653 95.5889 96.9153 95.2379 97.4253C94.8869 97.9353 94.4758 98.3853 94.0045 98.7703C93.5332 99.1553 93.0218 99.4603 92.4653 99.6803C91.9087 99.9003 91.3472 100.01 90.7806 100.01L90.7756 100ZM92.0892 92.2803C92.0642 91.9653 91.999 91.6753 91.8937 91.4103C91.7884 91.1453 91.658 90.9203 91.4976 90.7303C91.3372 90.5403 91.1516 90.3953 90.936 90.2953C90.7204 90.1953 90.4898 90.1403 90.2441 90.1403C90.0486 90.1403 89.8581 90.1903 89.6726 90.2953C89.487 90.3953 89.3166 90.5403 89.1662 90.7253C89.0157 90.9103 88.8904 91.1353 88.7851 91.4003C88.6798 91.6653 88.6146 91.9553 88.5795 92.2803H92.0892Z" fill="white"/>
</g>
<defs>
<clipPath id="clip0_12_515">
<rect width="96" height="100" fill="white"/>
</clipPath>
</defs>
</svg>
