<svg width="36" height="36" viewBox="0 0 36 36" fill="none" xmlns="http://www.w3.org/2000/svg">
<rect x="3" y="11.5" width="30" height="20" stroke="#1565C0" stroke-width="2.25" stroke-linejoin="round"/>
<path d="M17.9155 11C17.971 10.6757 18 10.3415 18 10C18 6.96243 15.7055 4.5 12.875 4.5C10.0445 4.5 7.75 6.96243 7.75 10C7.75 10.3415 7.779 10.6757 7.8345 11" stroke="#1565C0" stroke-width="2.25"/>
<path d="M28.1655 11C28.221 10.6757 28.25 10.3415 28.25 10C28.25 6.96243 25.9555 4.5 23.125 4.5C20.2945 4.5 18 6.96243 18 10C18 10.3415 18.029 10.6757 18.0845 11" stroke="#1565C0" stroke-width="2.25"/>
<path d="M14 18.9999L16.9764 13.0236" stroke="#1565C0" stroke-width="2.25" stroke-linecap="square"/>
<path d="M22 18.9999L18.9915 13.0235" stroke="#1565C0" stroke-width="2.25" stroke-linecap="square"/>
</svg>
