<svg width="24" height="25" viewBox="0 0 24 25" fill="none" xmlns="http://www.w3.org/2000/svg">
<path d="M12.75 8.25C12.75 7.83579 12.4142 7.5 12 7.5C11.5858 7.5 11.25 7.83579 11.25 8.25V11.75H7.75C7.33579 11.75 7 12.0858 7 12.5C7 12.9142 7.33579 13.25 7.75 13.25H11.25V16.75C11.25 17.1642 11.5858 17.5 12 17.5C12.4142 17.5 12.75 17.1642 12.75 16.75V13.25H16.25C16.6642 13.25 17 12.9142 17 12.5C17 12.0858 16.6642 11.75 16.25 11.75H12.75V8.25Z" fill="#474747"/>
<path fill-rule="evenodd" clip-rule="evenodd" d="M12 1.5C5.92487 1.5 1 6.42487 1 12.5C1 18.5751 5.92487 23.5 12 23.5C18.0751 23.5 23 18.5751 23 12.5C23 6.42487 18.0751 1.5 12 1.5ZM2.5 12.5C2.5 7.25329 6.75329 3 12 3C17.2467 3 21.5 7.25329 21.5 12.5C21.5 17.7467 17.2467 22 12 22C6.75329 22 2.5 17.7467 2.5 12.5Z" fill="#474747"/>
</svg>
