<svg width="40" height="40" viewBox="0 0 40 40" fill="none" xmlns="http://www.w3.org/2000/svg">
<g clip-path="url(#clip0_1_969)">
<path d="M26.8264 12.2254C24.9533 13.0634 22.8796 13.5334 20.6975 13.5334C18.5155 13.5334 16.4418 13.0634 14.5687 12.2254L20.6975 0.00146484L26.8264 12.2254ZM6.07129 29.1732L8.47992 24.3693C10.4634 25.1533 11.9234 26.9833 12.1661 29.1732H6.07129ZM22.7693 28.0932L18.0824 18.7453L13.3253 28.2312C12.8038 25.9493 11.1914 24.0793 9.06353 23.1993L13.9811 13.3894C16.0307 14.3154 18.303 14.8353 20.6935 14.8353C23.0841 14.8353 25.3564 14.3154 27.406 13.3894L29.6642 17.8933C25.964 19.9713 23.3228 23.7113 22.7652 28.0912L22.7693 28.0932ZM23.9806 29.1732C24.2072 24.8413 26.678 21.0933 30.2519 19.0633L31.9285 22.4093L28.5371 29.1752H23.9806V29.1732ZM29.9992 29.1732L32.6605 23.8653L35.3218 29.1732H29.9992Z" fill="#656C77"/>
<path d="M6.77639 39.9034H5.41263L4.73076 38.3474H2.61894L1.90498 39.9034H1.00049L3.94459 33.3994L6.77639 39.9034ZM2.87164 37.8174H4.50614L3.69992 35.9754L2.86963 37.8174H2.87164Z" fill="#656C77"/>
<path d="M9.98751 36.9618C9.98751 36.8518 9.97548 36.7558 9.95342 36.6698C9.93136 36.5838 9.89927 36.5118 9.86116 36.4558C9.82306 36.3978 9.77894 36.3558 9.7288 36.3258C9.67866 36.2958 9.62852 36.2818 9.57437 36.2818C9.52022 36.2818 9.46006 36.2938 9.38987 36.3158C9.31967 36.3378 9.24747 36.3698 9.17126 36.4098C9.09505 36.4498 9.01684 36.4998 8.93662 36.5598C8.8564 36.6198 8.78019 36.6838 8.70799 36.7578V39.9058H7.45654V35.9878L8.70799 35.5078V35.9458C8.90052 35.7998 9.10508 35.6918 9.32569 35.6238C9.54429 35.5558 9.76289 35.5198 9.97949 35.5198C10.148 35.5198 10.3084 35.5538 10.4588 35.6238C10.6092 35.6918 10.7416 35.7858 10.8559 35.9038C10.9702 36.0218 11.0605 36.1598 11.1266 36.3178C11.1928 36.4758 11.2269 36.6458 11.2269 36.8258V39.9058H9.98751V36.9638V36.9618Z" fill="#656C77"/>
<path d="M12.416 34.092C12.416 34.006 12.4341 33.922 12.4682 33.844C12.5023 33.766 12.5504 33.698 12.6126 33.642C12.6747 33.586 12.7449 33.542 12.8251 33.508C12.9054 33.474 12.9916 33.458 13.0859 33.458C13.1801 33.458 13.2664 33.474 13.3486 33.508C13.4308 33.542 13.501 33.586 13.5612 33.642C13.6213 33.698 13.6695 33.766 13.7036 33.844C13.7377 33.922 13.7557 34.006 13.7557 34.092C13.7557 34.178 13.7377 34.262 13.7036 34.338C13.6695 34.416 13.6213 34.482 13.5612 34.538C13.501 34.594 13.4308 34.638 13.3486 34.672C13.2664 34.706 13.1801 34.722 13.0859 34.722C12.9916 34.722 12.9054 34.706 12.8251 34.672C12.7449 34.638 12.6747 34.594 12.6126 34.538C12.5504 34.482 12.5023 34.416 12.4682 34.338C12.4341 34.26 12.416 34.178 12.416 34.092ZM12.4682 35.986L13.7156 35.506V39.902H12.4682V35.984V35.986Z" fill="#656C77"/>
<path d="M15.0332 33.8775L16.2846 33.3975V35.8934C16.4451 35.7834 16.6196 35.6934 16.8101 35.6234C17.0006 35.5534 17.1831 35.5174 17.3596 35.5174C17.6163 35.5174 17.853 35.5694 18.0696 35.6714C18.2862 35.7734 18.4727 35.9134 18.6311 36.0874C18.7895 36.2634 18.9119 36.4674 19.0001 36.6994C19.0884 36.9314 19.1325 37.1794 19.1325 37.4394C19.1325 37.6694 19.1044 37.8914 19.0483 38.1054C18.9921 38.3194 18.9119 38.5214 18.8096 38.7094C18.7073 38.8974 18.583 39.0694 18.4386 39.2274C18.2942 39.3854 18.1337 39.5194 17.9573 39.6294C17.7808 39.7394 17.5922 39.8274 17.3897 39.8874C17.1871 39.9494 16.9766 39.9794 16.758 39.9794C16.4351 39.9794 16.1262 39.9334 15.8294 39.8434C15.5346 39.7514 15.2699 39.6074 15.0332 39.4074V33.8755V33.8775ZM16.2846 39.1234C16.3268 39.1634 16.3709 39.2014 16.417 39.2374C16.4631 39.2734 16.5113 39.3054 16.5614 39.3334C16.6115 39.3614 16.6677 39.3834 16.7259 39.4014C16.784 39.4174 16.8482 39.4274 16.9184 39.4274C17.0568 39.4274 17.1831 39.3834 17.2974 39.2954C17.4118 39.2074 17.508 39.0854 17.5902 38.9294C17.6725 38.7734 17.7346 38.5894 17.7788 38.3774C17.8229 38.1654 17.8449 37.9374 17.8449 37.6934C17.8449 37.5114 17.8229 37.3394 17.7768 37.1774C17.7306 37.0154 17.6685 36.8754 17.5902 36.7534C17.512 36.6314 17.4178 36.5354 17.3115 36.4654C17.2052 36.3954 17.0909 36.3594 16.9705 36.3594C16.8502 36.3594 16.7359 36.3954 16.6095 36.4674C16.4832 36.5394 16.3749 36.6294 16.2846 36.7394V39.1254V39.1234Z" fill="#656C77"/>
<path d="M20.019 34.092C20.019 34.006 20.0371 33.922 20.0712 33.844C20.1053 33.766 20.1534 33.698 20.2156 33.642C20.2778 33.586 20.3479 33.542 20.4282 33.508C20.5084 33.474 20.5946 33.458 20.6889 33.458C20.7831 33.458 20.8694 33.474 20.9516 33.508C21.0338 33.542 21.104 33.586 21.1642 33.642C21.2244 33.698 21.2725 33.766 21.3066 33.844C21.3407 33.922 21.3587 34.006 21.3587 34.092C21.3587 34.178 21.3407 34.262 21.3066 34.338C21.2725 34.416 21.2244 34.482 21.1642 34.538C21.104 34.594 21.0338 34.638 20.9516 34.672C20.8694 34.706 20.7831 34.722 20.6889 34.722C20.5946 34.722 20.5084 34.706 20.4282 34.672C20.3479 34.638 20.2778 34.594 20.2156 34.538C20.1534 34.482 20.1053 34.416 20.0712 34.338C20.0371 34.26 20.019 34.178 20.019 34.092ZM20.0712 35.986L21.3186 35.506V39.902H20.0712V35.984V35.986Z" fill="#656C77"/>
<path d="M24.5177 39.9835C24.1908 39.9835 23.89 39.9275 23.6132 39.8155C23.3365 39.7035 23.0978 39.5495 22.8952 39.3535C22.6927 39.1575 22.5362 38.9255 22.4219 38.6615C22.3076 38.3955 22.2515 38.1095 22.2515 37.8015C22.2515 37.4715 22.3076 37.1655 22.4219 36.8855C22.5362 36.6055 22.6927 36.3655 22.8932 36.1635C23.0938 35.9615 23.3324 35.8035 23.6092 35.6895C23.886 35.5755 24.1868 35.5195 24.5137 35.5195C24.8406 35.5195 25.1414 35.5755 25.4202 35.6855C25.699 35.7955 25.9376 35.9475 26.1402 36.1415C26.3427 36.3355 26.5012 36.5635 26.6155 36.8255C26.7298 37.0875 26.788 37.3695 26.788 37.6735C26.788 37.9775 26.7318 38.2895 26.6175 38.5695C26.5032 38.8495 26.3467 39.0955 26.1442 39.3035C25.9416 39.5135 25.703 39.6775 25.4242 39.7995C25.1454 39.9215 24.8446 39.9835 24.5177 39.9835ZM24.6621 39.4575C24.7744 39.4575 24.8787 39.4195 24.975 39.3415C25.0712 39.2635 25.1555 39.1615 25.2257 39.0295C25.2958 38.8995 25.352 38.7475 25.3901 38.5775C25.4282 38.4055 25.4483 38.2275 25.4483 38.0435C25.4483 37.7695 25.4282 37.5095 25.3901 37.2675C25.352 37.0255 25.2878 36.8115 25.1996 36.6295C25.1113 36.4475 24.997 36.3035 24.8566 36.1955C24.7162 36.0895 24.5438 36.0355 24.3412 36.0355C24.2429 36.0355 24.1467 36.0735 24.0564 36.1495C23.9662 36.2255 23.886 36.3275 23.8158 36.4555C23.7456 36.5835 23.6914 36.7295 23.6493 36.8975C23.6072 37.0635 23.5871 37.2395 23.5871 37.4255C23.5871 37.7035 23.6112 37.9655 23.6613 38.2115C23.7115 38.4575 23.7817 38.6735 23.8739 38.8575C23.9662 39.0415 24.0785 39.1875 24.2109 39.2955C24.3432 39.4035 24.4936 39.4575 24.6621 39.4575Z" fill="#656C77"/>
<path d="M32.887 36.9839C32.887 36.8879 32.875 36.7979 32.8529 36.7119C32.8309 36.6259 32.7988 36.5519 32.7587 36.4879C32.7186 36.4239 32.6724 36.3739 32.6183 36.3359C32.5641 36.2979 32.508 36.2799 32.4458 36.2799C32.3736 36.2799 32.2994 36.2919 32.2212 36.3179C32.143 36.3439 32.0668 36.3759 31.9906 36.4179C31.9143 36.4599 31.8421 36.5099 31.776 36.5659C31.7098 36.6219 31.6496 36.6819 31.5995 36.7419V39.9019H30.3681V36.9819C30.3681 36.8859 30.3561 36.7959 30.332 36.7099C30.3079 36.6239 30.2758 36.5499 30.2337 36.4859C30.1916 36.4219 30.1455 36.3719 30.0913 36.3339C30.0372 36.2959 29.983 36.2779 29.9269 36.2779C29.8607 36.2779 29.7885 36.2899 29.7123 36.3159C29.6361 36.3419 29.5599 36.3739 29.4837 36.4159C29.4074 36.4579 29.3332 36.5079 29.263 36.5639C29.1929 36.6199 29.1287 36.6799 29.0725 36.7399V39.8999H27.8291V35.982L29.0725 35.502V35.97C29.2671 35.83 29.4696 35.72 29.6802 35.638C29.8908 35.556 30.0913 35.516 30.2839 35.516C30.3901 35.516 30.4984 35.528 30.6067 35.554C30.715 35.58 30.8193 35.616 30.9196 35.662C31.0199 35.708 31.1121 35.764 31.1984 35.83C31.2846 35.8959 31.3568 35.97 31.419 36.0559C31.5132 35.978 31.6155 35.904 31.7278 35.838C31.8401 35.772 31.9585 35.714 32.0828 35.668C32.2072 35.622 32.3335 35.586 32.4639 35.558C32.5942 35.532 32.7226 35.518 32.8509 35.518C33.0254 35.518 33.1899 35.554 33.3463 35.624C33.5027 35.694 33.6391 35.79 33.7574 35.914C33.8757 36.038 33.968 36.182 34.0382 36.3479C34.1084 36.5139 34.1425 36.6919 34.1425 36.8819V39.9039H32.887V36.9839Z" fill="#656C77"/>
<path d="M37.3105 39.9995C37.0197 39.9995 36.7449 39.9435 36.4882 39.8295C36.2315 39.7155 36.0089 39.5635 35.8184 39.3715C35.6279 39.1795 35.4774 38.9555 35.3671 38.7015C35.2568 38.4475 35.2007 38.1795 35.2007 37.8955C35.2007 37.5555 35.2508 37.2415 35.3531 36.9515C35.4554 36.6615 35.5998 36.4095 35.7863 36.1955C35.9728 35.9815 36.1974 35.8155 36.4581 35.6975C36.7189 35.5775 37.0097 35.5195 37.3305 35.5195C37.6173 35.5195 37.8781 35.5675 38.1167 35.6635C38.3554 35.7595 38.5579 35.8895 38.7284 36.0555C38.8989 36.2215 39.0292 36.4155 39.1235 36.6395C39.2177 36.8635 39.2639 37.1035 39.2639 37.3595H36.422C36.4321 37.5975 36.4662 37.8255 36.5243 38.0415C36.5825 38.2575 36.6587 38.4475 36.755 38.6115C36.8512 38.7755 36.9635 38.9055 37.0939 39.0035C37.2243 39.0995 37.3666 39.1495 37.5251 39.1495C37.6615 39.1495 37.7958 39.1255 37.9282 39.0755C38.0606 39.0255 38.1829 38.9595 38.2952 38.8735C38.4075 38.7875 38.5058 38.6875 38.588 38.5755C38.6702 38.4615 38.7304 38.3395 38.7685 38.2075L39.4022 38.3135C39.3381 38.5455 39.2358 38.7655 39.0954 38.9695C38.955 39.1735 38.7906 39.3535 38.602 39.5075C38.4135 39.6615 38.209 39.7835 37.9864 39.8715C37.7637 39.9595 37.5391 40.0035 37.3125 40.0035L37.3105 39.9995ZM37.8359 36.9115C37.8259 36.7855 37.7998 36.6695 37.7577 36.5635C37.7156 36.4575 37.6635 36.3675 37.5993 36.2915C37.5351 36.2155 37.4609 36.1575 37.3747 36.1175C37.2884 36.0775 37.1962 36.0555 37.0979 36.0555C37.0197 36.0555 36.9435 36.0755 36.8693 36.1175C36.7951 36.1575 36.7269 36.2155 36.6667 36.2895C36.6066 36.3635 36.5564 36.4535 36.5143 36.5595C36.4722 36.6655 36.4461 36.7815 36.4321 36.9115H37.8359Z" fill="#656C77"/>
</g>
<defs>
<clipPath id="clip0_1_969">
<rect width="40" height="40" fill="white"/>
</clipPath>
</defs>
</svg>
