<svg width="40" height="40" viewBox="0 0 40 40" fill="none" xmlns="http://www.w3.org/2000/svg">
<g clip-path="url(#clip0_1_980)">
<path d="M40.0002 19.9999C40.0002 18.029 38.9511 16.3007 37.3805 15.3426C38.2628 13.7295 38.3083 11.704 37.3228 9.99992C36.3738 8.3565 34.6212 7.32254 32.7261 7.27706C32.717 6.84649 32.6533 6.41593 32.5412 5.9884C32.1652 4.58148 31.2616 3.40805 30.0002 2.6773C29.1724 2.19822 28.2325 1.94655 27.2804 1.94655C26.3283 1.94655 25.449 2.18609 24.6576 2.61969C23.6994 1.04904 21.9711 -0.00311279 20.0002 -0.00311279C18.0293 -0.00311279 16.301 1.04904 15.3428 2.61969C14.5515 2.18609 13.6509 1.94655 12.72 1.94655C11.7892 1.94655 10.828 2.19822 10.0002 2.6773C8.73884 3.40501 7.83829 4.58148 7.45928 5.9884C7.34405 6.4129 7.28341 6.84649 7.27431 7.27706C5.37923 7.32254 3.62665 8.3565 2.67759 9.99992C1.94987 11.2613 1.75582 12.7288 2.1318 14.1358C2.24702 14.5633 2.40773 14.9666 2.61391 15.3456C1.04629 16.3037 -0.00585938 18.0321 -0.00585938 19.9999C-0.00585938 21.9678 1.04326 23.6991 2.61391 24.6573C1.73156 26.2734 1.68608 28.2959 2.67152 29.9999C3.62058 31.6433 5.37316 32.6773 7.26825 32.7228C7.27735 33.1533 7.34102 33.5839 7.45321 34.0084C7.8292 35.4153 8.73278 36.5888 9.99415 37.3195C10.8219 37.7986 11.7619 38.0503 12.714 38.0503C13.6661 38.0503 14.5454 37.8107 15.3368 37.3771C16.2949 38.9478 18.0233 39.9999 19.9942 39.9999C21.965 39.9999 23.6934 38.9478 24.6515 37.3771C25.4429 37.8107 26.3435 38.0503 27.2743 38.0503C28.2052 38.0503 29.1664 37.7986 29.9942 37.3195C31.2555 36.5918 32.1561 35.4153 32.5351 34.0084C32.6503 33.5839 32.711 33.1503 32.7201 32.7228C34.6151 32.6773 36.3677 31.6433 37.3168 29.9999C38.3022 28.2928 38.2567 26.2704 37.3744 24.6573C38.945 23.6991 39.9942 21.9708 39.9942 19.9999H40.0002Z" fill="#656C77"/>
<path d="M19.8849 8.21496C19.7697 8.21496 19.6787 8.12096 19.6787 8.00877V5.81654C19.6787 5.70132 19.7727 5.61035 19.8849 5.61035C19.9971 5.61035 20.0911 5.70435 20.0911 5.81654V8.00877C20.0911 8.124 19.9971 8.21496 19.8849 8.21496Z" fill="white"/>
<path d="M19.8849 4.92214C19.7697 4.92214 19.6787 4.82815 19.6787 4.71596V3.84876C19.6787 3.73354 19.7727 3.64258 19.8849 3.64258C19.9971 3.64258 20.0911 3.73657 20.0911 3.84876V4.71596C20.0911 4.83118 19.9971 4.92214 19.8849 4.92214Z" fill="white"/>
<path d="M5.34568 19.7337H4.69984C4.58462 19.7337 4.49365 19.6397 4.49365 19.5275C4.49365 19.4153 4.58765 19.3213 4.69984 19.3213H5.34568C5.46091 19.3213 5.55187 19.4153 5.55187 19.5275C5.55187 19.6397 5.45787 19.7337 5.34568 19.7337Z" fill="white"/>
<path d="M8.36534 19.7337H6.28529C6.17007 19.7337 6.0791 19.6397 6.0791 19.5275C6.0791 19.4153 6.1731 19.3213 6.28529 19.3213H8.36534C8.48056 19.3213 8.57152 19.4153 8.57152 19.5275C8.57152 19.6397 8.47753 19.7337 8.36534 19.7337Z" fill="white"/>
<path d="M33.402 19.7337H31.3917C31.2765 19.7337 31.1855 19.6397 31.1855 19.5275C31.1855 19.4153 31.2795 19.3213 31.3917 19.3213H33.402C33.5173 19.3213 33.6082 19.4153 33.6082 19.5275C33.6082 19.6397 33.5142 19.7337 33.402 19.7337Z" fill="white"/>
<path d="M35.3 19.7337H34.36C34.2448 19.7337 34.1538 19.6397 34.1538 19.5275C34.1538 19.4153 34.2478 19.3213 34.36 19.3213H35.3C35.4152 19.3213 35.5061 19.4153 35.5061 19.5275C35.5061 19.6397 35.4121 19.7337 35.3 19.7337Z" fill="white"/>
<path d="M28.0321 11.59C27.9806 11.59 27.926 11.5688 27.8866 11.5294C27.8047 11.4475 27.8047 11.3171 27.8866 11.2383L29.5664 9.55847C29.6483 9.4766 29.7787 9.4766 29.8575 9.55847C29.9394 9.64034 29.9394 9.77072 29.8575 9.84956L28.1777 11.5294C28.1383 11.5688 28.0837 11.59 28.0321 11.59Z" fill="white"/>
<path d="M30.4975 9.12442C30.4459 9.12442 30.3913 9.10319 30.3519 9.06377C30.2701 8.98191 30.2701 8.85153 30.3519 8.77269L30.8826 8.24206C30.9644 8.1602 31.0948 8.1602 31.1736 8.24206C31.2555 8.32393 31.2555 8.45431 31.1736 8.53315L30.643 9.06377C30.6036 9.10319 30.549 9.12442 30.4975 9.12442Z" fill="white"/>
<path d="M9.35734 9.20629C9.3058 9.20629 9.25122 9.18507 9.2118 9.14565L8.83581 8.76966C8.75395 8.68779 8.75395 8.55741 8.83581 8.47858C8.91768 8.39671 9.04807 8.39671 9.1269 8.47858L9.50289 8.85456C9.58475 8.93643 9.58475 9.06681 9.50289 9.14565C9.46347 9.18507 9.40889 9.20629 9.35734 9.20629Z" fill="white"/>
<path d="M11.7408 11.5897C11.6892 11.5897 11.6347 11.5685 11.5952 11.5291L9.90027 9.83412C9.8184 9.75225 9.8184 9.62186 9.90027 9.54303C9.98214 9.46116 10.1125 9.46116 10.1914 9.54303L11.8863 11.238C11.9682 11.3199 11.9682 11.4502 11.8863 11.5291C11.8469 11.5685 11.7923 11.5897 11.7408 11.5897Z" fill="white"/>
<path d="M24.9212 7.57523C24.8939 7.57523 24.8666 7.56916 24.8423 7.56007C24.7362 7.51762 24.6877 7.39633 24.7302 7.29021L24.9879 6.66559C25.0303 6.55946 25.1516 6.51095 25.2577 6.5534C25.3639 6.59585 25.4124 6.71713 25.3699 6.82326L25.1122 7.44788C25.0789 7.52671 25.003 7.57523 24.9212 7.57523Z" fill="white"/>
<path d="M25.6126 5.90417C25.5853 5.90417 25.558 5.8981 25.5338 5.88901C25.4276 5.84656 25.3791 5.72527 25.4216 5.61915L25.7157 4.91266C25.7581 4.80653 25.8794 4.75802 25.9855 4.80047C26.0917 4.84292 26.1402 4.9642 26.0977 5.07033L25.8036 5.77682C25.7703 5.85565 25.6945 5.90417 25.6126 5.90417Z" fill="white"/>
<path d="M5.86428 13.9275C5.83699 13.9275 5.8097 13.9214 5.78544 13.9123L5.27301 13.7001C5.16688 13.6576 5.11837 13.5364 5.16082 13.4302C5.20327 13.3241 5.32455 13.2756 5.43068 13.318L5.94311 13.5303C6.04924 13.5727 6.09775 13.694 6.0553 13.8002C6.02195 13.879 5.94614 13.9275 5.86428 13.9275Z" fill="white"/>
<path d="M9.23568 15.3255C9.20839 15.3255 9.1811 15.3195 9.15684 15.3104L6.59772 14.2491C6.49159 14.2067 6.44308 14.0854 6.48553 13.9792C6.52798 13.8731 6.64926 13.8246 6.75539 13.8671L9.31451 14.9283C9.42064 14.9708 9.46915 15.092 9.4267 15.1982C9.39335 15.277 9.31755 15.3255 9.23568 15.3255Z" fill="white"/>
<path d="M30.531 15.3254C30.4492 15.3254 30.3734 15.2769 30.34 15.1981C30.2976 15.092 30.3461 14.9707 30.4522 14.9282L31.9713 14.2975C32.0774 14.2551 32.1987 14.3036 32.2412 14.4097C32.2836 14.5159 32.2351 14.6371 32.129 14.6796L30.6099 15.3103C30.5826 15.3224 30.5583 15.3254 30.531 15.3254Z" fill="white"/>
<path d="M33.0594 14.2762C32.9775 14.2762 32.9017 14.2277 32.8683 14.1489C32.8259 14.0428 32.8744 13.9215 32.9805 13.879L33.0685 13.8426C33.1746 13.8002 33.2959 13.8487 33.3383 13.9548C33.3808 14.061 33.3323 14.1822 33.2261 14.2247L33.1382 14.2611C33.1109 14.2732 33.0867 14.2762 33.0594 14.2762Z" fill="white"/>
<path d="M33.1473 14.2404C33.0654 14.2404 32.9896 14.1919 32.9562 14.1131C32.9138 14.0069 32.9623 13.8856 33.0684 13.8432L33.8901 13.5036C33.9963 13.4611 34.1175 13.5097 34.16 13.6158C34.2024 13.7219 34.1539 13.8432 34.0478 13.8856L33.2261 14.2252C33.1988 14.2374 33.1745 14.2404 33.1473 14.2404Z" fill="white"/>
<path d="M14.2818 6.21079C14.1999 6.21079 14.1241 6.16228 14.0907 6.08344L13.8239 5.44063C13.7815 5.3345 13.83 5.21322 13.9361 5.17077C14.0422 5.12832 14.1635 5.17683 14.206 5.28296L14.4728 5.92577C14.5152 6.0319 14.4667 6.15318 14.3606 6.19563C14.3333 6.20776 14.309 6.21079 14.2818 6.21079Z" fill="white"/>
<path d="M15.476 9.09049C15.3941 9.09049 15.3183 9.04198 15.285 8.96314L14.4572 6.96193C14.4148 6.8558 14.4633 6.73452 14.5694 6.69207C14.6755 6.64962 14.7968 6.69813 14.8393 6.80426L15.667 8.80547C15.7095 8.9116 15.661 9.03288 15.5548 9.07533C15.5276 9.08746 15.5033 9.09049 15.476 9.09049Z" fill="white"/>
<path d="M22.1501 8.43887C22.1501 8.43887 22.1228 8.43887 22.1107 8.43583C21.9985 8.41461 21.9257 8.30545 21.95 8.19326L22.3047 6.41946C22.326 6.30727 22.4351 6.2345 22.5473 6.25876C22.6595 6.27998 22.7323 6.38914 22.708 6.50133L22.3533 8.27513C22.3351 8.37216 22.2471 8.4419 22.1501 8.4419V8.43887Z" fill="white"/>
<path d="M8.58111 17.4691C8.58111 17.4691 8.55382 17.4691 8.54169 17.466L7.02865 17.1628C6.91646 17.1416 6.84369 17.0324 6.86795 16.9203C6.88917 16.8081 6.99833 16.7353 7.11052 16.7596L8.62356 17.0628C8.73575 17.084 8.80852 17.1931 8.78426 17.3053C8.76607 17.4024 8.67814 17.4721 8.58111 17.4721V17.4691Z" fill="white"/>
<path d="M33.0233 22.3686C33.0233 22.3686 32.996 22.3686 32.9839 22.3656L31.1434 21.9957C31.0312 21.9744 30.9584 21.8653 30.9827 21.7531C31.0039 21.6409 31.1131 21.5681 31.2253 21.5924L33.0658 21.9623C33.178 21.9835 33.2507 22.0927 33.2265 22.2049C33.2083 22.3019 33.1204 22.3716 33.0233 22.3716V22.3686Z" fill="white"/>
<path d="M29.473 13.3478C29.4063 13.3478 29.3396 13.3145 29.3002 13.2569C29.2365 13.1629 29.2638 13.0325 29.3578 12.9718L30.8223 11.9955C30.9163 11.9318 31.0467 11.9591 31.1073 12.0531C31.171 12.1471 31.1437 12.2775 31.0497 12.3381L29.5852 13.3145C29.5488 13.3387 29.5094 13.3478 29.47 13.3478H29.473Z" fill="white"/>
<path d="M13.4992 10.1465C13.4325 10.1465 13.3658 10.1131 13.3264 10.0555L12.5502 8.88811C12.4865 8.79412 12.5138 8.66374 12.6078 8.60309C12.7018 8.53942 12.8322 8.56671 12.8928 8.6607L13.669 9.82808C13.7327 9.92207 13.7054 10.0525 13.6114 10.1131C13.575 10.1374 13.5356 10.1465 13.4962 10.1465H13.4992Z" fill="white"/>
<path d="M26.2977 10.1646C26.2583 10.1646 26.2189 10.1525 26.1825 10.1282C26.0885 10.0645 26.0612 9.93718 26.1249 9.84015L26.3523 9.50055C26.416 9.40655 26.5433 9.37926 26.6403 9.44294C26.7343 9.50661 26.7616 9.63396 26.698 9.73099L26.4705 10.0706C26.4311 10.1312 26.3644 10.1616 26.2977 10.1616V10.1646Z" fill="white"/>
<path d="M10.3547 13.3484C10.3153 13.3484 10.2759 13.3362 10.2395 13.312L8.63855 12.2386C8.54455 12.1749 8.51726 12.0476 8.58094 11.9506C8.64461 11.8566 8.77196 11.8293 8.86899 11.8929L10.47 12.9663C10.564 13.03 10.5912 13.1574 10.5276 13.2544C10.4882 13.315 10.4214 13.3453 10.3547 13.3453V13.3484Z" fill="white"/>
<path d="M6.76787 22.3235C6.67084 22.3235 6.58594 22.2568 6.56471 22.1568C6.54349 22.0446 6.61626 21.9354 6.72845 21.9142L8.54167 21.5564C8.65386 21.5352 8.76302 21.608 8.78424 21.7201C8.80547 21.8323 8.73269 21.9415 8.62051 21.9627L6.80728 22.3205C6.80728 22.3205 6.77999 22.3235 6.76787 22.3235Z" fill="white"/>
<path d="M31.1883 17.5025C31.0912 17.5025 31.0063 17.4358 30.9851 17.3357C30.9639 17.2235 31.0367 17.1144 31.1489 17.0931L32.6953 16.7869C32.8074 16.7657 32.9166 16.8384 32.9378 16.9506C32.959 17.0628 32.8863 17.172 32.7741 17.1932L31.2277 17.4994C31.2277 17.4994 31.2004 17.5025 31.1883 17.5025Z" fill="white"/>
<path d="M17.6529 8.43366C17.5559 8.43366 17.471 8.36695 17.4498 8.26689L17.1526 6.75992C17.1314 6.64773 17.2041 6.53857 17.3163 6.51735C17.4285 6.49612 17.5377 6.5689 17.5589 6.68108L17.8561 8.18806C17.8773 8.30025 17.8045 8.4094 17.6923 8.43063C17.6802 8.43063 17.665 8.43366 17.6529 8.43366Z" fill="white"/>
<path d="M8.36576 29.9885H8.01706L7.9352 29.6216C7.78965 29.7884 7.64411 29.9036 7.49857 29.9673C7.35302 30.031 7.18626 30.0643 6.99523 30.0643C6.76176 30.0643 6.55254 30.0219 6.37061 29.937C6.18565 29.8521 6.03101 29.7338 5.90063 29.5853C5.77328 29.4367 5.67322 29.2639 5.60651 29.0668C5.5398 28.8697 5.50342 28.6574 5.50342 28.433C5.50342 28.2087 5.53677 28.0025 5.60651 27.8054C5.67625 27.6083 5.77328 27.4355 5.90063 27.2869C6.02798 27.1383 6.18565 27.0201 6.37061 26.9321C6.55557 26.8442 6.76479 26.8018 6.99523 26.8018C7.16503 26.8018 7.32574 26.823 7.47734 26.8685C7.62895 26.9139 7.7654 26.9807 7.88668 27.0686C8.00494 27.1565 8.105 27.2687 8.18383 27.4021C8.26267 27.5355 8.31118 27.6902 8.33241 27.866H7.79875C7.78359 27.766 7.75327 27.675 7.70475 27.5992C7.65624 27.5234 7.5956 27.4567 7.52282 27.4052C7.45005 27.3536 7.36819 27.3142 7.27722 27.2869C7.18626 27.2596 7.09226 27.2475 6.9922 27.2475C6.82543 27.2475 6.68292 27.2808 6.56164 27.3475C6.44035 27.4143 6.34332 27.5052 6.26752 27.6144C6.19171 27.7266 6.13714 27.8539 6.10075 27.9964C6.06436 28.1389 6.04617 28.2845 6.04617 28.433C6.04617 28.5816 6.06436 28.7272 6.10075 28.8697C6.13714 29.0122 6.19171 29.1395 6.26752 29.2517C6.34332 29.3639 6.44035 29.4549 6.56164 29.5186C6.68292 29.5853 6.82543 29.6186 6.9922 29.6186C7.13168 29.6186 7.256 29.6035 7.36212 29.564C7.46825 29.5246 7.56224 29.467 7.63501 29.3942C7.71082 29.3215 7.7654 29.2305 7.80178 29.1213C7.83817 29.0152 7.85939 28.8939 7.86243 28.7636H7.03465V28.3481H8.36273V29.9885H8.36576Z" fill="white"/>
<path d="M8.92383 26.8721H9.46961V28.6883C9.46961 28.7914 9.47568 28.9006 9.48477 29.0067C9.49387 29.1159 9.52419 29.2099 9.57271 29.2978C9.62122 29.3827 9.69399 29.4555 9.79102 29.51C9.88805 29.5646 10.0245 29.5919 10.2034 29.5919C10.3823 29.5919 10.5187 29.5646 10.6158 29.51C10.7128 29.4555 10.7856 29.3827 10.8341 29.2978C10.8826 29.2129 10.9099 29.1159 10.922 29.0067C10.9311 28.9006 10.9372 28.7914 10.9372 28.6883V26.8721H11.483V28.8672C11.483 29.0673 11.4526 29.2432 11.392 29.3918C11.3313 29.5404 11.2434 29.6647 11.1312 29.7647C11.019 29.8648 10.8856 29.9406 10.728 29.9891C10.5703 30.0376 10.3974 30.0649 10.2034 30.0649C10.0093 30.0649 9.8365 30.0407 9.67883 29.9891C9.52116 29.9406 9.38775 29.8648 9.27556 29.7647C9.16337 29.6647 9.07847 29.5404 9.01479 29.3918C8.95415 29.2432 8.92383 29.0704 8.92383 28.8672V26.8721Z" fill="white"/>
<path d="M12.9412 26.8721H13.5204L14.7211 29.9891H14.1359L13.8448 29.1644H12.6016L12.3106 29.9891H11.7466L12.9412 26.8721ZM12.7502 28.749H13.7023L13.2354 27.4088H13.2232L12.7533 28.749H12.7502Z" fill="white"/>
<path d="M15.0187 26.8713H16.5074C16.8501 26.8713 17.1078 26.9471 17.2806 27.0926C17.4535 27.2412 17.5384 27.4474 17.5384 27.7112C17.5384 27.8598 17.5171 27.9841 17.4717 28.0811C17.4292 28.1782 17.3777 28.257 17.3201 28.3176C17.2624 28.3783 17.2048 28.4207 17.1472 28.445C17.0896 28.4692 17.0502 28.4874 17.0229 28.4965V28.5056C17.0684 28.5117 17.1199 28.5268 17.1745 28.5481C17.2291 28.5723 17.2776 28.6087 17.3261 28.6603C17.3716 28.7118 17.411 28.7785 17.4413 28.8574C17.4717 28.9362 17.4868 29.0393 17.4868 29.1636C17.4868 29.3455 17.502 29.5123 17.5293 29.6639C17.5566 29.8155 17.599 29.9216 17.6566 29.9853H17.0714C17.032 29.9186 17.0077 29.8458 16.9986 29.764C16.9926 29.6821 16.9865 29.6033 16.9865 29.5275C16.9865 29.3849 16.9774 29.2606 16.9592 29.1575C16.941 29.0544 16.9107 28.9695 16.8622 28.8998C16.8137 28.8301 16.753 28.7815 16.6712 28.7482C16.5893 28.7148 16.4892 28.6997 16.3649 28.6997H15.5614V29.9823H15.0156V26.8652L15.0187 26.8713ZM15.5644 28.2903H16.4589C16.6348 28.2903 16.7652 28.2479 16.8561 28.166C16.9471 28.0842 16.9926 27.9598 16.9926 27.7931C16.9926 27.693 16.9774 27.6142 16.9501 27.5505C16.9198 27.4868 16.8804 27.4383 16.8288 27.405C16.7773 27.3716 16.7197 27.3473 16.653 27.3352C16.5863 27.3231 16.5196 27.317 16.4498 27.317H15.5644V28.2903Z" fill="white"/>
<path d="M18.9237 26.8721H19.5028L20.7035 29.9891H20.1183L19.8272 29.1644H18.5841L18.293 29.9891H17.729L18.9237 26.8721ZM18.7326 28.749H19.6847L19.2178 27.4088H19.2057L18.7357 28.749H18.7326Z" fill="white"/>
<path d="M20.9795 26.8721H21.5556L22.9777 29.1674H22.9868V26.8721H23.5053V29.9891H22.9292L21.5101 27.6968H21.498V29.9891H20.9795V26.8721Z" fill="white"/>
<path d="M23.8569 26.8721H26.3797V27.3421H25.3882V29.9861H24.8424V27.3421H23.8569V26.8721Z" fill="white"/>
<path d="M26.7407 26.8712H28.9845V27.3412H27.2865V28.1568H28.8572V28.6025H27.2865V29.5152H29.0148V29.9852H26.7407V26.8682V26.8712Z" fill="white"/>
<path d="M29.4878 26.8712H31.7316V27.3412H30.0336V28.1568H31.6042V28.6025H30.0336V29.5152H31.7619V29.9852H29.4878V26.8682V26.8712Z" fill="white"/>
<path d="M32.2383 26.8713H33.53C33.7695 26.8713 33.9757 26.9107 34.1485 26.9926C34.3244 27.0745 34.4669 27.1866 34.5761 27.3261C34.6852 27.4686 34.7671 27.6324 34.8217 27.8204C34.8762 28.0084 34.9035 28.2115 34.9035 28.4268C34.9035 28.6421 34.8762 28.8452 34.8217 29.0332C34.7671 29.2212 34.6852 29.388 34.5761 29.5275C34.4639 29.67 34.3244 29.7791 34.1485 29.861C33.9727 29.9429 33.7665 29.9823 33.53 29.9823H32.2383V26.8652V26.8713ZM32.7841 29.5426H33.3208C33.533 29.5426 33.7058 29.5153 33.8423 29.4577C33.9787 29.4001 34.0849 29.3213 34.1607 29.2212C34.2365 29.1211 34.291 29.0029 34.3183 28.8664C34.3456 28.73 34.3608 28.5845 34.3608 28.4268C34.3608 28.2691 34.3456 28.1236 34.3183 27.9871C34.291 27.8507 34.2395 27.7355 34.1607 27.6324C34.0849 27.5323 33.9787 27.4535 33.8423 27.3959C33.7058 27.3382 33.533 27.311 33.3208 27.311H32.7841V29.5366V29.5426Z" fill="white"/>
<path d="M10.2914 24.8085C10.2914 24.8843 10.3035 24.948 10.3308 24.9995C10.355 25.0511 10.3914 25.0965 10.4369 25.1299C10.4824 25.1633 10.5339 25.1875 10.5946 25.2027C10.6552 25.2178 10.7189 25.2269 10.7886 25.2269C10.8644 25.2269 10.9281 25.2178 10.9797 25.1996C11.0312 25.1814 11.0767 25.1602 11.107 25.1329C11.1404 25.1056 11.1646 25.0753 11.1798 25.0389C11.1949 25.0025 11.201 24.9662 11.201 24.9298C11.201 24.854 11.1828 24.7994 11.1495 24.763C11.1161 24.7266 11.0797 24.7024 11.0373 24.6872C10.9675 24.6629 10.8857 24.6387 10.7947 24.6144C10.7037 24.5902 10.5885 24.5629 10.4521 24.5265C10.3672 24.5053 10.2974 24.475 10.2428 24.4386C10.1883 24.4022 10.1428 24.3628 10.1094 24.3203C10.0761 24.2779 10.0549 24.2294 10.0397 24.1808C10.0276 24.1323 10.0185 24.0808 10.0185 24.0292C10.0185 23.9292 10.0397 23.8443 10.0791 23.7715C10.1185 23.6987 10.1761 23.6381 10.2428 23.5926C10.3096 23.5441 10.3884 23.5107 10.4733 23.4865C10.5582 23.4622 10.6461 23.4531 10.7341 23.4531C10.8371 23.4531 10.9342 23.4653 11.0251 23.4925C11.1161 23.5198 11.1949 23.5593 11.2647 23.6108C11.3344 23.6623 11.389 23.729 11.4284 23.8079C11.4678 23.8867 11.4891 23.9747 11.4891 24.0777H11.1464C11.1373 23.9504 11.0949 23.8625 11.016 23.8109C10.9402 23.7594 10.8402 23.7321 10.7219 23.7321C10.6825 23.7321 10.6401 23.7351 10.5976 23.7442C10.5552 23.7533 10.5157 23.7654 10.4824 23.7867C10.449 23.8079 10.4187 23.8321 10.3945 23.8655C10.3702 23.8988 10.3611 23.9383 10.3611 23.9898C10.3611 24.0596 10.3823 24.1141 10.4248 24.1536C10.4672 24.193 10.5248 24.2233 10.5946 24.2415C10.6006 24.2415 10.631 24.2506 10.6825 24.2657C10.7341 24.2809 10.7886 24.293 10.8523 24.3112C10.916 24.3264 10.9766 24.3446 11.0342 24.3597C11.0949 24.3749 11.1373 24.387 11.1616 24.3931C11.2253 24.4143 11.2798 24.4416 11.3284 24.475C11.3769 24.5083 11.4163 24.5508 11.4466 24.5932C11.48 24.6387 11.5012 24.6872 11.5194 24.7357C11.5345 24.7873 11.5436 24.8388 11.5436 24.8904C11.5436 24.9995 11.5224 25.0935 11.4769 25.1723C11.4314 25.2512 11.3738 25.3149 11.3011 25.3634C11.2283 25.4119 11.1434 25.4483 11.0524 25.4725C10.9615 25.4968 10.8644 25.5059 10.7674 25.5059C10.6552 25.5059 10.5521 25.4938 10.4521 25.4665C10.352 25.4392 10.2671 25.3967 10.1943 25.3391C10.1216 25.2815 10.064 25.2087 10.0185 25.1208C9.97602 25.0329 9.95176 24.9267 9.94873 24.8055H10.2914V24.8085Z" fill="white"/>
<path d="M12.3683 23.5049H12.7321L13.4871 25.4636H13.1203L12.9353 24.9451H12.153L11.968 25.4636H11.6133L12.3653 23.5049H12.3683ZM12.247 24.6844H12.8443L12.5502 23.8415H12.5411L12.244 24.6844H12.247Z" fill="white"/>
<path d="M13.2358 23.5049H14.8217V23.802H14.2001V25.4636H13.8574V23.802H13.2389V23.5049H13.2358Z" fill="white"/>
<path d="M15.0459 23.5049H15.3885V25.4636H15.0459V23.5049Z" fill="white"/>
<path d="M16.0345 24.8085C16.0345 24.8843 16.0467 24.948 16.0739 24.9995C16.0982 25.0511 16.1346 25.0965 16.1801 25.1299C16.2256 25.1633 16.2771 25.1875 16.3377 25.2027C16.3984 25.2178 16.4621 25.2269 16.5318 25.2269C16.6076 25.2269 16.6713 25.2178 16.7228 25.1996C16.7744 25.1814 16.8199 25.1602 16.8502 25.1329C16.8835 25.1056 16.9078 25.0753 16.9229 25.0389C16.9381 25.0025 16.9442 24.9662 16.9442 24.9298C16.9442 24.854 16.926 24.7994 16.8926 24.763C16.8593 24.7266 16.8229 24.7024 16.7804 24.6872C16.7107 24.6629 16.6288 24.6387 16.5379 24.6144C16.4469 24.5902 16.3317 24.5629 16.1952 24.5265C16.1103 24.5053 16.0406 24.475 15.986 24.4386C15.9314 24.4022 15.886 24.3628 15.8526 24.3203C15.8192 24.2779 15.798 24.2294 15.7829 24.1808C15.7707 24.1323 15.7616 24.0808 15.7616 24.0292C15.7616 23.9292 15.7829 23.8443 15.8223 23.7715C15.8617 23.6987 15.9193 23.6381 15.986 23.5926C16.0527 23.5441 16.1316 23.5107 16.2165 23.4865C16.3014 23.4622 16.3893 23.4531 16.4772 23.4531C16.5803 23.4531 16.6773 23.4653 16.7683 23.4925C16.8593 23.5198 16.9381 23.5593 17.0078 23.6108C17.0776 23.6623 17.1322 23.729 17.1716 23.8079C17.211 23.8867 17.2322 23.9747 17.2322 24.0777H16.8896C16.8805 23.9504 16.838 23.8625 16.7592 23.8109C16.6834 23.7594 16.5833 23.7321 16.4651 23.7321C16.4257 23.7321 16.3832 23.7351 16.3408 23.7442C16.2983 23.7533 16.2589 23.7654 16.2256 23.7867C16.1922 23.8079 16.1619 23.8321 16.1376 23.8655C16.1134 23.8988 16.1043 23.9383 16.1043 23.9898C16.1043 24.0596 16.1255 24.1141 16.1679 24.1536C16.2104 24.193 16.268 24.2233 16.3377 24.2415C16.3438 24.2415 16.3741 24.2506 16.4257 24.2657C16.4772 24.2809 16.5318 24.293 16.5955 24.3112C16.6591 24.3264 16.7198 24.3446 16.7774 24.3597C16.838 24.3749 16.8805 24.387 16.9048 24.3931C16.9684 24.4143 17.023 24.4416 17.0715 24.475C17.12 24.5083 17.1595 24.5508 17.1898 24.5932C17.2231 24.6387 17.2444 24.6872 17.2625 24.7357C17.2777 24.7873 17.2868 24.8388 17.2868 24.8904C17.2868 24.9995 17.2656 25.0935 17.2201 25.1723C17.1746 25.2512 17.117 25.3149 17.0442 25.3634C16.9715 25.4119 16.8866 25.4483 16.7956 25.4725C16.7046 25.4968 16.6076 25.5059 16.5106 25.5059C16.3984 25.5059 16.2953 25.4938 16.1952 25.4665C16.0952 25.4392 16.0103 25.3967 15.9375 25.3391C15.8647 25.2815 15.8071 25.2087 15.7616 25.1208C15.7192 25.0329 15.6949 24.9267 15.6919 24.8055H16.0345V24.8085Z" fill="white"/>
<path d="M17.5869 23.5049H18.9392V23.802H17.9295V24.3145H18.8149V24.5934H17.9295V25.4636H17.5869V23.5049Z" fill="white"/>
<path d="M19.588 23.5049H19.9519L20.7069 25.4636H20.34L20.155 24.9451H19.3727L19.1878 25.4636H18.833L19.585 23.5049H19.588ZM19.4667 24.6844H20.0641L19.7699 23.8415H19.7608L19.4637 24.6844H19.4667Z" fill="white"/>
<path d="M22.2143 24.1262C22.1991 24.0685 22.1779 24.017 22.1536 23.9685C22.1294 23.92 22.096 23.8806 22.0536 23.8442C22.0142 23.8108 21.9656 23.7835 21.9111 23.7623C21.8565 23.7411 21.7958 23.735 21.7231 23.735C21.62 23.735 21.529 23.7562 21.4532 23.7987C21.3774 23.8411 21.3168 23.8957 21.2682 23.9685C21.2197 24.0382 21.1864 24.1201 21.1621 24.208C21.1379 24.299 21.1288 24.39 21.1288 24.4809C21.1288 24.5719 21.1409 24.6659 21.1621 24.7538C21.1864 24.8448 21.2197 24.9236 21.2682 24.9933C21.3168 25.0631 21.3774 25.1207 21.4532 25.1631C21.529 25.2056 21.62 25.2268 21.7231 25.2268C21.7989 25.2268 21.8686 25.2147 21.9262 25.1874C21.9838 25.1601 22.0354 25.1237 22.0778 25.0782C22.1203 25.0328 22.1536 24.9782 22.1779 24.9145C22.2021 24.8508 22.2173 24.7841 22.2234 24.7144H22.5569C22.5508 24.8326 22.5235 24.9388 22.4811 25.0358C22.4386 25.1328 22.381 25.2177 22.3083 25.2875C22.2355 25.3572 22.1506 25.4118 22.0505 25.4512C21.9505 25.4906 21.8443 25.5088 21.7231 25.5088C21.5775 25.5088 21.4441 25.4815 21.3289 25.4269C21.2137 25.3724 21.1136 25.2996 21.0348 25.2056C20.9529 25.1116 20.8923 25.0024 20.8498 24.8781C20.8074 24.7538 20.7861 24.6204 20.7861 24.4809C20.7861 24.3414 20.8074 24.2111 20.8498 24.0867C20.8923 23.9624 20.9529 23.8533 21.0348 23.7593C21.1166 23.6653 21.2137 23.5925 21.3289 23.5379C21.4441 23.4833 21.5775 23.4561 21.7231 23.4561C21.8322 23.4561 21.9353 23.4712 22.0323 23.5015C22.1294 23.5319 22.2143 23.5743 22.2901 23.6319C22.3628 23.6895 22.4235 23.7593 22.469 23.8411C22.5145 23.923 22.5417 24.017 22.5539 24.1231H22.2112L22.2143 24.1262Z" fill="white"/>
<path d="M22.687 23.5049H24.2728V23.802H23.6512V25.4636H23.3086V23.802H22.69V23.5049H22.687Z" fill="white"/>
<path d="M24.5 23.5049H24.8426V25.4636H24.5V23.5049Z" fill="white"/>
<path d="M26.0951 23.4561C26.2407 23.4561 26.3741 23.4833 26.4893 23.5379C26.6045 23.5925 26.7046 23.6653 26.7834 23.7593C26.8623 23.8533 26.9259 23.9624 26.9684 24.0867C27.0108 24.2111 27.0321 24.3414 27.0321 24.4809C27.0321 24.6204 27.0108 24.7538 26.9684 24.8781C26.9259 25.0024 26.8653 25.1116 26.7834 25.2056C26.7016 25.2996 26.6045 25.3724 26.4893 25.4269C26.3741 25.4815 26.2407 25.5088 26.0951 25.5088C25.9496 25.5088 25.8162 25.4815 25.701 25.4269C25.5857 25.3724 25.4857 25.2996 25.4068 25.2056C25.325 25.1116 25.2643 25.0024 25.2219 24.8781C25.1794 24.7538 25.1582 24.6204 25.1582 24.4809C25.1582 24.3414 25.1794 24.2111 25.2219 24.0867C25.2643 23.9624 25.325 23.8533 25.4068 23.7593C25.4887 23.6653 25.5857 23.5925 25.701 23.5379C25.8162 23.4833 25.9496 23.4561 26.0951 23.4561ZM26.0951 23.735C25.992 23.735 25.9011 23.7562 25.8253 23.7987C25.7495 23.8411 25.6888 23.8957 25.6403 23.9685C25.5918 24.0382 25.5584 24.1201 25.5342 24.208C25.5099 24.299 25.5008 24.39 25.5008 24.4809C25.5008 24.5719 25.513 24.6659 25.5342 24.7538C25.5584 24.8448 25.5918 24.9236 25.6403 24.9933C25.6888 25.0631 25.7495 25.1207 25.8253 25.1631C25.9011 25.2056 25.992 25.2268 26.0951 25.2268C26.1982 25.2268 26.2892 25.2056 26.365 25.1631C26.4408 25.1207 26.5014 25.0661 26.55 24.9933C26.5985 24.9236 26.6318 24.8417 26.6561 24.7538C26.6803 24.6659 26.6894 24.5719 26.6894 24.4809C26.6894 24.39 26.6773 24.296 26.6561 24.208C26.6349 24.1201 26.5985 24.0382 26.55 23.9685C26.5014 23.8987 26.4408 23.8411 26.365 23.7987C26.2892 23.7562 26.1982 23.735 26.0951 23.735Z" fill="white"/>
<path d="M27.332 23.5049H27.6929L28.5873 24.9482H28.5934V23.5049H28.9209V25.4636H28.56L27.6686 24.0234H27.6595V25.4636H27.332V23.5049Z" fill="white"/>
<path d="M12.7076 15.7729H11.2612V14.5206C11.5705 14.5206 11.8373 14.5024 12.0587 14.46C12.2831 14.4206 12.4711 14.3569 12.6318 14.2659C12.7894 14.175 12.9198 14.0537 13.0199 13.899C13.1199 13.7444 13.2018 13.5564 13.2685 13.332H14.7148V20.973H12.7076V15.7699V15.7729Z" fill="white"/>
<path d="M16.707 15.3181C16.8101 14.8147 16.9708 14.4145 17.183 14.1204C17.3953 13.8263 17.6651 13.6201 17.9926 13.5049C18.3201 13.3896 18.7052 13.332 19.1539 13.332C19.6027 13.332 19.9878 13.3896 20.3152 13.5049C20.6427 13.6201 20.9126 13.8263 21.1248 14.1204C21.3371 14.4145 21.4947 14.8147 21.6009 15.3181C21.704 15.8214 21.7585 16.4582 21.7585 17.2283C21.7585 17.9985 21.707 18.6443 21.6009 19.1446C21.4978 19.6449 21.3371 20.0391 21.1248 20.3332C20.9126 20.6243 20.6427 20.8245 20.3152 20.9336C19.9878 21.0428 19.6027 21.0943 19.1539 21.0943C18.7052 21.0943 18.3201 21.0397 17.9926 20.9336C17.6651 20.8275 17.3953 20.6274 17.183 20.3332C16.9708 20.0422 16.8131 19.6449 16.707 19.1446C16.6039 18.6443 16.5493 18.0076 16.5493 17.2283C16.5493 16.4491 16.6009 15.8214 16.707 15.3181ZM18.6991 19.5873C18.7931 19.7784 18.9447 19.8724 19.1539 19.8724C19.3631 19.8724 19.5148 19.7784 19.6087 19.5873C19.7027 19.3963 19.7482 19.0325 19.7482 18.4927V15.967C19.7482 15.4272 19.6997 15.0634 19.6087 14.8724C19.5148 14.6813 19.3631 14.5873 19.1539 14.5873C18.9447 14.5873 18.7931 14.6813 18.6991 14.8724C18.6051 15.0634 18.5596 15.4272 18.5596 15.967V18.4927C18.5596 19.0325 18.6051 19.3963 18.6991 19.5873Z" fill="white"/>
<path d="M22.3193 15.3181C22.4224 14.8147 22.5831 14.4145 22.7953 14.1204C23.0076 13.8263 23.2775 13.6201 23.6049 13.5049C23.9324 13.3896 24.3175 13.332 24.7662 13.332C25.215 13.332 25.6001 13.3896 25.9275 13.5049C26.255 13.6201 26.5249 13.8263 26.7371 14.1204C26.9494 14.4145 27.107 14.8147 27.2132 15.3181C27.3163 15.8214 27.3708 16.4582 27.3708 17.2283C27.3708 17.9985 27.3193 18.6443 27.2132 19.1446C27.1101 19.6449 26.9494 20.0391 26.7371 20.3332C26.5249 20.6243 26.255 20.8245 25.9275 20.9336C25.6001 21.0428 25.215 21.0943 24.7662 21.0943C24.3175 21.0943 23.9324 21.0397 23.6049 20.9336C23.2775 20.8275 23.0076 20.6274 22.7953 20.3332C22.5831 20.0422 22.4254 19.6449 22.3193 19.1446C22.2162 18.6443 22.1616 18.0076 22.1616 17.2283C22.1616 16.4491 22.2132 15.8214 22.3193 15.3181ZM24.3114 19.5873C24.4054 19.7784 24.557 19.8724 24.7662 19.8724C24.9755 19.8724 25.1271 19.7784 25.2211 19.5873C25.3151 19.3963 25.3605 19.0325 25.3605 18.4927V15.967C25.3605 15.4272 25.312 15.0634 25.2211 14.8724C25.1271 14.6813 24.9755 14.5873 24.7662 14.5873C24.557 14.5873 24.4054 14.6813 24.3114 14.8724C24.2174 15.0634 24.1719 15.4272 24.1719 15.967V18.4927C24.1719 19.0325 24.2174 19.3963 24.3114 19.5873Z" fill="white"/>
<path d="M20.0004 31.8467L20.5128 32.8867L21.662 33.0535L20.8312 33.8631L21.0283 35.0062L20.0004 34.4664L18.9755 35.0062L19.1696 33.8631L18.3418 33.0535L19.4879 32.8867L20.0004 31.8467Z" fill="white"/>
<path d="M15.3184 32.3799L15.658 33.0682L16.4191 33.1773L15.8673 33.714L15.9976 34.4721L15.3184 34.1143L14.6392 34.4721L14.7696 33.714L14.2178 33.1773L14.9788 33.0682L15.3184 32.3799Z" fill="white"/>
<path d="M24.6816 32.3799L25.0243 33.0682L25.7823 33.1773L25.2335 33.714L25.3639 34.4721L24.6816 34.1143L24.0024 34.4721L24.1328 33.714L23.584 33.1773L24.342 33.0682L24.6816 32.3799Z" fill="white"/>
</g>
<defs>
<clipPath id="clip0_1_980">
<rect width="40" height="40" fill="white"/>
</clipPath>
</defs>
</svg>
