<svg width="48" height="46" viewBox="0 0 48 46" fill="none" xmlns="http://www.w3.org/2000/svg">
<path d="M12 12.7857C12 12.5773 12.0828 12.3775 12.2301 12.2301C12.3775 12.0828 12.5773 12 12.7857 12H15.1429C15.3181 12 15.4883 12.0587 15.6264 12.1666C15.7645 12.2745 15.8626 12.4255 15.905 12.5956L16.5414 15.1429H34.7857C34.9051 15.1429 35.0228 15.1701 35.1301 15.2225C35.2373 15.2748 35.3313 15.3509 35.4047 15.4449C35.4782 15.539 35.5293 15.6486 35.5541 15.7653C35.5789 15.8821 35.5767 16.0029 35.5479 16.1187L33.1907 25.5473C33.1483 25.7173 33.0502 25.8683 32.9121 25.9762C32.7741 26.0842 32.6038 26.1428 32.4286 26.1429H18.2857C18.1105 26.1428 17.9402 26.0842 17.8021 25.9762C17.664 25.8683 17.566 25.7173 17.5236 25.5473L14.53 13.5714H12.7857C12.5773 13.5714 12.3775 13.4886 12.2301 13.3413C12.0828 13.1939 12 12.9941 12 12.7857ZM16.9343 16.7143L18.8986 24.5714H31.8157L33.78 16.7143H16.9343ZM19.8571 29.2857C19.4404 29.2857 19.0407 29.4513 18.746 29.746C18.4513 30.0407 18.2857 30.4404 18.2857 30.8571C18.2857 31.2739 18.4513 31.6736 18.746 31.9683C19.0407 32.263 19.4404 32.4286 19.8571 32.4286C20.2739 32.4286 20.6736 32.263 20.9683 31.9683C21.263 31.6736 21.4286 31.2739 21.4286 30.8571C21.4286 30.4404 21.263 30.0407 20.9683 29.746C20.6736 29.4513 20.2739 29.2857 19.8571 29.2857ZM16.7143 30.8571C16.7143 30.0236 17.0454 29.2242 17.6348 28.6348C18.2242 28.0454 19.0236 27.7143 19.8571 27.7143C20.6907 27.7143 21.4901 28.0454 22.0795 28.6348C22.6689 29.2242 23 30.0236 23 30.8571C23 31.6907 22.6689 32.4901 22.0795 33.0795C21.4901 33.6689 20.6907 34 19.8571 34C19.0236 34 18.2242 33.6689 17.6348 33.0795C17.0454 32.4901 16.7143 31.6907 16.7143 30.8571ZM30.8571 29.2857C30.4404 29.2857 30.0407 29.4513 29.746 29.746C29.4513 30.0407 29.2857 30.4404 29.2857 30.8571C29.2857 31.2739 29.4513 31.6736 29.746 31.9683C30.0407 32.263 30.4404 32.4286 30.8571 32.4286C31.2739 32.4286 31.6736 32.263 31.9683 31.9683C32.263 31.6736 32.4286 31.2739 32.4286 30.8571C32.4286 30.4404 32.263 30.0407 31.9683 29.746C31.6736 29.4513 31.2739 29.2857 30.8571 29.2857ZM27.7143 30.8571C27.7143 30.0236 28.0454 29.2242 28.6348 28.6348C29.2242 28.0454 30.0236 27.7143 30.8571 27.7143C31.6907 27.7143 32.4901 28.0454 33.0795 28.6348C33.6689 29.2242 34 30.0236 34 30.8571C34 31.6907 33.6689 32.4901 33.0795 33.0795C32.4901 33.6689 31.6907 34 30.8571 34C30.0236 34 29.2242 33.6689 28.6348 33.0795C28.0454 32.4901 27.7143 31.6907 27.7143 30.8571Z" fill="#A4A4A4"/>
</svg>
