<svg width="36" height="36" viewBox="0 0 36 36" fill="none" xmlns="http://www.w3.org/2000/svg">
<path d="M3 14.5H33" stroke="#1565C0" stroke-width="2.25" stroke-linejoin="round"/>
<rect x="3" y="9" width="30" height="18" stroke="#1565C0" stroke-width="2.25" stroke-linejoin="round"/>
<g clip-path="url(#clip0_13_820)">
<mask id="path-3-inside-1_13_820" fill="white">
<path fill-rule="evenodd" clip-rule="evenodd" d="M22.9032 18.5428C23.5403 19.18 23.5403 20.213 22.9032 20.8502C23.5403 21.4873 23.5403 22.5204 22.9032 23.1576C22.266 23.7947 21.233 23.7947 20.5958 23.1576C20.3239 22.8857 20.1681 22.5417 20.1282 22.1872L15.8718 22.1872C15.8319 22.5418 15.6761 22.8857 15.4042 23.1576C14.767 23.7948 13.734 23.7948 13.0968 23.1576C12.4596 22.5204 12.4596 21.4874 13.0968 20.8502C12.4596 20.2131 12.4596 19.18 13.0968 18.5428C13.734 17.9057 14.767 17.9057 15.4042 18.5428C15.6886 18.8272 15.846 19.1905 15.8766 19.5622L20.1234 19.5622C20.1539 19.1905 20.3114 18.8272 20.5958 18.5428C21.233 17.9056 22.266 17.9056 22.9032 18.5428Z"/>
</mask>
<path fill-rule="evenodd" clip-rule="evenodd" d="M22.9032 18.5428C23.5403 19.18 23.5403 20.213 22.9032 20.8502C23.5403 21.4873 23.5403 22.5204 22.9032 23.1576C22.266 23.7947 21.233 23.7947 20.5958 23.1576C20.3239 22.8857 20.1681 22.5417 20.1282 22.1872L15.8718 22.1872C15.8319 22.5418 15.6761 22.8857 15.4042 23.1576C14.767 23.7948 13.734 23.7948 13.0968 23.1576C12.4596 22.5204 12.4596 21.4874 13.0968 20.8502C12.4596 20.2131 12.4596 19.18 13.0968 18.5428C13.734 17.9057 14.767 17.9057 15.4042 18.5428C15.6886 18.8272 15.846 19.1905 15.8766 19.5622L20.1234 19.5622C20.1539 19.1905 20.3114 18.8272 20.5958 18.5428C21.233 17.9056 22.266 17.9056 22.9032 18.5428Z" fill="#1565C0"/>
<path d="M22.9032 20.8502L22.411 20.358L21.9188 20.8502L22.411 21.3424L22.9032 20.8502ZM20.1282 22.1872L20.8199 22.1095L20.7504 21.4912L20.1282 21.4912L20.1282 22.1872ZM15.8718 22.1872L15.8718 21.4912L15.2496 21.4912L15.1801 22.1095L15.8718 22.1872ZM13.0968 20.8502L13.589 21.3424L14.0812 20.8502L13.589 20.358L13.0968 20.8502ZM15.8766 19.5622L15.1828 19.6192L15.2353 20.2583L15.8766 20.2583L15.8766 19.5622ZM20.1234 19.5622L20.1234 20.2583L20.7647 20.2583L20.8171 19.6192L20.1234 19.5622ZM23.3953 21.3424C24.3043 20.4334 24.3043 18.9596 23.3953 18.0506L22.411 19.035C22.7763 19.4003 22.7763 19.9927 22.411 20.358L23.3953 21.3424ZM23.3953 23.6497C24.3043 22.7408 24.3043 21.267 23.3953 20.358L22.411 21.3424C22.7763 21.7077 22.7763 22.3 22.411 22.6654L23.3953 23.6497ZM20.1036 23.6497C21.0126 24.5587 22.4864 24.5587 23.3953 23.6497L22.411 22.6654C22.0456 23.0307 21.4533 23.0307 21.088 22.6654L20.1036 23.6497ZM19.4365 22.265C19.4933 22.7706 19.7162 23.2624 20.1036 23.6497L21.088 22.6654C20.9316 22.509 20.8428 22.3129 20.8199 22.1095L19.4365 22.265ZM20.1282 21.4912L15.8718 21.4912L15.8718 22.8833L20.1282 22.8833L20.1282 21.4912ZM15.8964 23.6498C16.2837 23.2624 16.5066 22.7706 16.5635 22.265L15.1801 22.1095C15.1572 22.3129 15.0684 22.509 14.912 22.6654L15.8964 23.6498ZM12.6046 23.6498C13.5136 24.5588 14.9874 24.5588 15.8964 23.6498L14.912 22.6654C14.5467 23.0307 13.9543 23.0307 13.589 22.6654L12.6046 23.6498ZM12.6046 20.358C11.6956 21.267 11.6956 22.7408 12.6046 23.6498L13.589 22.6654C13.2237 22.3001 13.2237 21.7077 13.589 21.3424L12.6046 20.358ZM12.6046 18.0507C11.6956 18.9596 11.6956 20.4334 12.6046 21.3424L13.589 20.358C13.2237 19.9927 13.2237 19.4004 13.589 19.035L12.6046 18.0507ZM15.8964 18.0507C14.9874 17.1417 13.5136 17.1417 12.6046 18.0507L13.589 19.035C13.9543 18.6697 14.5467 18.6697 14.912 19.035L15.8964 18.0507ZM16.5703 19.5053C16.5268 18.9754 16.3017 18.456 15.8964 18.0507L14.912 19.035C15.0755 19.1985 15.1653 19.4056 15.1828 19.6192L16.5703 19.5053ZM15.8766 20.2583L20.1234 20.2583L20.1234 18.8662L15.8766 18.8662L15.8766 20.2583ZM20.1036 18.0506C19.6983 18.456 19.4732 18.9754 19.4297 19.5053L20.8171 19.6192C20.8347 19.4056 20.9245 19.1985 21.088 19.035L20.1036 18.0506ZM23.3953 18.0506C22.4864 17.1416 21.0126 17.1416 20.1036 18.0506L21.088 19.035C21.4533 18.6697 22.0456 18.6697 22.411 19.035L23.3953 18.0506Z" fill="#1565C0" mask="url(#path-3-inside-1_13_820)"/>
</g>
<defs>
<clipPath id="clip0_13_820">
<rect width="11.1369" height="11.1369" fill="white" transform="translate(18 13) rotate(45)"/>
</clipPath>
</defs>
</svg>
