<svg width="36" height="36" viewBox="0 0 36 36" fill="none" xmlns="http://www.w3.org/2000/svg">
<path d="M4.51127 14.5501L3.80419 13.6751L3.80418 13.6751L4.51127 14.5501ZM13 31.9989V33.1239H14.125V31.9989H13ZM23 31.9989H21.875V33.1239H23V31.9989ZM31.4898 14.5501L32.1969 13.6751L32.1969 13.6751L31.4898 14.5501ZM18.8648 4.34802L19.5718 3.473L19.5718 3.473L18.8648 4.34802ZM17.1363 4.34802L16.4292 3.473L16.4292 3.473L17.1363 4.34802ZM5.12549 15.6196C5.12549 15.5441 5.15962 15.4726 5.21836 15.4251L3.80418 13.6751C3.21683 14.1497 2.87549 14.8644 2.87549 15.6196H5.12549ZM5.12549 30.6239V15.6196H2.87549V30.6239H5.12549ZM5.37549 30.8739C5.23742 30.8739 5.12549 30.7619 5.12549 30.6239H2.87549C2.87549 32.0046 3.99477 33.1239 5.37549 33.1239V30.8739ZM13 30.8739H5.37549V33.1239H13V30.8739ZM14.125 31.9989V29H11.875V31.9989H14.125ZM14.125 29C14.125 26.8599 15.8599 25.125 18 25.125V22.875C14.6173 22.875 11.875 25.6173 11.875 29H14.125ZM18 25.125C20.1401 25.125 21.875 26.8599 21.875 29H24.125C24.125 25.6173 21.3827 22.875 18 22.875V25.125ZM21.875 29V31.9989H24.125V29H21.875ZM30.6256 30.8739H23V33.1239H30.6256V30.8739ZM30.8756 30.6239C30.8756 30.7619 30.7637 30.8739 30.6256 30.8739V33.1239C32.0063 33.1239 33.1256 32.0046 33.1256 30.6239H30.8756ZM30.8756 15.6196V30.6239H33.1256V15.6196H30.8756ZM30.7827 15.4251C30.8414 15.4726 30.8756 15.5441 30.8756 15.6196H33.1256C33.1256 14.8644 32.7842 14.1497 32.1969 13.6751L30.7827 15.4251ZM18.1577 5.22303L30.7827 15.4251L32.1969 13.6751L19.5718 3.473L18.1577 5.22303ZM17.8434 5.22303C17.9351 5.14896 18.066 5.14896 18.1577 5.22303L19.5718 3.473C18.6552 2.73231 17.3458 2.73231 16.4292 3.473L17.8434 5.22303ZM5.21836 15.4251L17.8434 5.22303L16.4292 3.473L3.80419 13.6751L5.21836 15.4251Z" fill="#1565C0"/>
<path fill-rule="evenodd" clip-rule="evenodd" d="M18.7489 14.774C18.8181 14.8317 18.8809 14.8972 18.9362 14.9693L21.2373 17.9688C21.6509 18.508 21.5671 19.2947 21.05 19.726C20.8375 19.9034 20.5733 20 20.3011 20H15.6989C15.0368 20 14.5 19.4403 14.5 18.7498C14.5 18.4659 14.5927 18.1905 14.7627 17.9688L17.0638 14.9693C17.4775 14.4301 18.2319 14.3427 18.7489 14.774ZM21.75 14C22.4404 14 23 14.5596 23 15.25C23 15.9404 22.4404 16.5 21.75 16.5C21.0596 16.5 20.5 15.9404 20.5 15.25C20.5 14.5596 21.0596 14 21.75 14ZM14.25 14C14.9404 14 15.5 14.5596 15.5 15.25C15.5 15.9404 14.9404 16.5 14.25 16.5C13.5596 16.5 13 15.9404 13 15.25C13 14.5596 13.5596 14 14.25 14ZM19.75 11.5C20.4404 11.5 21 12.0596 21 12.75C21 13.4404 20.4404 14 19.75 14C19.0596 14 18.5 13.4404 18.5 12.75C18.5 12.0596 19.0596 11.5 19.75 11.5ZM16.25 11.5C16.9404 11.5 17.5 12.0596 17.5 12.75C17.5 13.4404 16.9404 14 16.25 14C15.5596 14 15 13.4404 15 12.75C15 12.0596 15.5596 11.5 16.25 11.5Z" fill="#1565C0"/>
</svg>
