<svg width="36" height="36" viewBox="0 0 36 36" fill="none" xmlns="http://www.w3.org/2000/svg">
<path d="M18 33C26.2843 33 33 26.2843 33 18C33 9.71573 26.2843 3 18 3C9.71573 3 3 9.71573 3 18C3 26.2843 9.71573 33 18 33Z" stroke="#1565C0" stroke-width="2.25" stroke-linecap="square"/>
<path d="M12.6675 3.96191C14.9814 8.20538 16.9526 18.8793 6.32641 27.6271" stroke="#1565C0" stroke-width="2.25"/>
<path d="M7.36169 23.7632L10.2248 26.6009" stroke="#1565C0" stroke-width="2"/>
<path d="M11.9356 7.85254L15.8694 6.97198" stroke="#1565C0" stroke-width="2"/>
<path d="M10.0908 20.1465L13.341 22.531" stroke="#1565C0" stroke-width="2"/>
<path d="M12.5276 12.1099L16.5484 11.8215" stroke="#1565C0" stroke-width="2"/>
<path d="M11.8299 16.3608L15.6943 17.5083" stroke="#1565C0" stroke-width="2"/>
<path d="M29.5032 8.47314C25.3776 10.9912 18.3335 19.2494 23.1622 32.1383" stroke="#1565C0" stroke-width="2.25"/>
<path d="M24.1974 28.2744L20.2991 29.3004" stroke="#1565C0" stroke-width="2"/>
<path d="M28.1918 12.2085L25.2253 9.47902" stroke="#1565C0" stroke-width="2"/>
<path d="M23.6424 23.7778L19.6353 24.2178" stroke="#1565C0" stroke-width="2"/>
<path d="M25.5503 15.5996L22.2124 13.3395" stroke="#1565C0" stroke-width="2"/>
<path d="M24.0292 19.6294L20.1089 18.691" stroke="#1565C0" stroke-width="2"/>
</svg>
