<svg width="36" height="36" viewBox="0 0 36 36" fill="none" xmlns="http://www.w3.org/2000/svg">
<mask id="path-1-inside-1_13_813" fill="white">
<path fill-rule="evenodd" clip-rule="evenodd" d="M22.8605 4.5C25.2464 4.5 27.1805 6.43413 27.1805 8.82C29.5664 8.82 31.5005 10.7541 31.5005 13.14C31.5005 15.5259 29.5664 17.46 27.1805 17.46C26.2989 17.46 25.4789 17.1959 24.7955 16.7425L16.7427 24.7953C17.196 25.4787 17.46 26.2985 17.46 27.18C17.46 29.5659 15.5259 31.5 13.14 31.5C10.7541 31.5 8.82 29.5659 8.82 27.18C6.43413 27.18 4.5 25.2459 4.5 22.86C4.5 20.4742 6.43413 18.54 8.82 18.54C9.59736 18.54 10.3268 18.7453 10.9569 19.1047L19.105 10.9566C18.7458 10.3265 18.5405 9.59723 18.5405 8.82C18.5405 6.43413 20.4747 4.5 22.8605 4.5Z"/>
</mask>
<path d="M27.1805 8.82H24.9305V11.07H27.1805V8.82ZM24.7955 16.7425L26.0393 14.8675L24.5057 13.8502L23.2045 15.1515L24.7955 16.7425ZM16.7427 24.7953L15.1517 23.2043L13.8505 24.5054L14.8676 26.0389L16.7427 24.7953ZM8.82 27.18H11.07V24.93H8.82V27.18ZM10.9569 19.1047L9.84233 21.0592L11.3338 21.9098L12.5479 20.6957L10.9569 19.1047ZM19.105 10.9566L20.696 12.5476L21.91 11.3336L21.0597 9.84218L19.105 10.9566ZM29.4305 8.82C29.4305 5.19149 26.489 2.25 22.8605 2.25V6.75C24.0038 6.75 24.9305 7.67677 24.9305 8.82H29.4305ZM33.7505 13.14C33.7505 9.51149 30.809 6.57 27.1805 6.57V11.07C28.3238 11.07 29.2505 11.9968 29.2505 13.14H33.7505ZM27.1805 19.71C30.809 19.71 33.7505 16.7685 33.7505 13.14H29.2505C29.2505 14.2832 28.3238 15.21 27.1805 15.21V19.71ZM23.5516 18.6174C24.5924 19.3079 25.8429 19.71 27.1805 19.71V15.21C26.7548 15.21 26.3654 15.0839 26.0393 14.8675L23.5516 18.6174ZM23.2045 15.1515L15.1517 23.2043L18.3337 26.3862L26.3864 18.3335L23.2045 15.1515ZM19.71 27.18C19.71 25.8426 19.308 24.5923 18.6177 23.5516L14.8676 26.0389C15.084 26.3651 15.21 26.7544 15.21 27.18H19.71ZM13.14 33.75C16.7685 33.75 19.71 30.8085 19.71 27.18H15.21C15.21 28.3233 14.2832 29.25 13.14 29.25V33.75ZM6.57 27.18C6.57 30.8085 9.51149 33.75 13.14 33.75V29.25C11.9968 29.25 11.07 28.3233 11.07 27.18H6.57ZM2.25 22.86C2.25 26.4885 5.19149 29.43 8.82 29.43V24.93C7.67677 24.93 6.75 24.0033 6.75 22.86H2.25ZM8.82 16.29C5.19149 16.29 2.25 19.2315 2.25 22.86H6.75C6.75 21.7168 7.67677 20.79 8.82 20.79V16.29ZM12.0716 17.1502C11.1108 16.6023 9.99846 16.29 8.82 16.29V20.79C9.19627 20.79 9.54275 20.8884 9.84233 21.0592L12.0716 17.1502ZM12.5479 20.6957L20.696 12.5476L17.5141 9.36564L9.36596 17.5137L12.5479 20.6957ZM16.2905 8.82C16.2905 9.99826 16.6027 11.1104 17.1504 12.0711L21.0597 9.84218C20.8889 9.54263 20.7905 9.1962 20.7905 8.82H16.2905ZM22.8605 2.25C19.232 2.25 16.2905 5.19149 16.2905 8.82H20.7905C20.7905 7.67677 21.7173 6.75 22.8605 6.75V2.25Z" fill="#1565C0" mask="url(#path-1-inside-1_13_813)"/>
</svg>
